<?xml version="1.0" encoding="UTF-8" standalone="no"?>
<!-- Created with Inkscape (http://www.inkscape.org/) -->

<svg
   width="150"
   height="150"
   viewBox="0 0 150 150"
   id="svg2"
   version="1.1"
   inkscape:version="1.2.2 (b0a8486541, 2022-12-01)"
   sodipodi:docname="clubs.svg"
   xmlns:inkscape="http://www.inkscape.org/namespaces/inkscape"
   xmlns:sodipodi="http://sodipodi.sourceforge.net/DTD/sodipodi-0.dtd"
   xmlns="http://www.w3.org/2000/svg"
   xmlns:svg="http://www.w3.org/2000/svg"
   xmlns:rdf="http://www.w3.org/1999/02/22-rdf-syntax-ns#"
   xmlns:cc="http://creativecommons.org/ns#"
   xmlns:dc="http://purl.org/dc/elements/1.1/">
  <defs
     id="defs4" />
  <sodipodi:namedview
     id="base"
     pagecolor="#ffffff"
     bordercolor="#666666"
     borderopacity="1.0"
     inkscape:pageopacity="0.0"
     inkscape:pageshadow="2"
     inkscape:zoom="1.7"
     inkscape:cx="72.647059"
     inkscape:cy="101.17647"
     inkscape:document-units="px"
     inkscape:current-layer="layer1"
     showgrid="false"
     units="px"
     inkscape:window-width="1440"
     inkscape:window-height="828"
     inkscape:window-x="0"
     inkscape:window-y="0"
     inkscape:window-maximized="1"
     inkscape:showpageshadow="2"
     inkscape:pagecheckerboard="0"
     inkscape:deskcolor="#d1d1d1" />
  <metadata
     id="metadata7">
    <rdf:RDF>
      <cc:Work
         rdf:about="">
        <dc:format>image/svg+xml</dc:format>
        <dc:type
           rdf:resource="http://purl.org/dc/dcmitype/StillImage" />
      </cc:Work>
    </rdf:RDF>
  </metadata>
  <g
     inkscape:label="Layer 1"
     inkscape:groupmode="layer"
     id="layer1"
     transform="translate(0,-877.36216)">
    <path
       style="fill:#220055;fill-opacity:1;stroke:none;stroke-width:0.933851"
       d="m 29.194991,1020.9058 c 0.04063,-1.9915 2.259696,-3.1647 9.805333,-5.184 11.341686,-3.0353 15.278409,-4.9191 20.514746,-9.8171 9.175029,-8.58222 14.246475,-19.81775 14.921295,-33.0575 0.344647,-6.7618 0.226421,-7.77383 -0.740226,-6.3366 -0.632713,0.94074 -2.780934,4.15955 -4.773837,7.1529 -7.443092,11.17956 -20.966944,18.26006 -33.02805,17.2919 -11.047998,-0.88678 -20.4075,-4.19955 -25.089896,-14.1869 -2.0404008,-4.35207 -3.6233948,-9.56565 -3.6228185,-16.88594 5.368e-4,-6.8167 1.3708581,-9.31962 2.9208625,-12.67465 2.625698,-5.68336 4.768282,-10.22143 10.157208,-12.9522 3.93156,-1.99227 9.180846,-4.0366 15.133736,-3.65287 4.116302,0.26536 8.460082,1.18766 11.126172,2.3624 2.405468,1.05991 4.544155,1.75653 4.752628,1.54806 0.208482,-0.20847 -0.950669,-2.93446 -2.575896,-6.05773 -2.700838,-5.19033 -3.374515,-9.06297 -2.964409,-13.7257 0.667881,-7.59347 3.110033,-15.93687 8.655474,-21.16708 5.799722,-5.47002 12.288862,-8.12709 22.629011,-7.74272 9.620141,0.35762 15.204803,3.28525 20.399884,8.50992 5.082312,5.11124 7.611292,12.82108 8.211712,20.00399 0.40092,4.79626 -0.28242,8.22056 -3.18955,14.08227 -1.75425,3.53714 -2.909338,6.43116 -2.566856,6.43116 0.342476,0 2.984826,-1.09836 5.871886,-2.44083 13.50123,-6.27793 28.98278,-0.19671 35.52623,13.95485 1.57023,3.39594 2.84359,5.80711 2.8378,13.52113 -0.006,8.16983 -1.22726,9.96835 -3.14776,13.85875 -6.07307,12.30222 -20.15196,19.40074 -33.0097,16.64323 -10.946668,-2.34761 -20.152757,-8.95395 -26.891948,-19.29765 -2.092582,-3.2118 -3.990626,-5.83965 -4.217887,-5.83965 -0.660056,0 0.669533,11.55038 2.032732,17.65874 2.654929,11.89645 10.557053,22.69632 20.570311,28.11342 3.830942,2.0725 11.633432,4.5661 20.160182,6.4432 1.32858,0.2925 2.55655,1.3001 2.82216,2.3157 0.46662,1.7845 0.11495,1.7981 -46.387022,1.7981 -25.771457,0 -46.851042,-0.3017 -46.843507,-0.6706 z"
       id="path5891"
       inkscape:connector-curvature="0"
       sodipodi:nodetypes="ccssssssssssscsaasaasssscssssssscsc" />
    <path
       style="fill:#dd55ff;fill-opacity:1;stroke:none;stroke-width:0.933851"
       d="m 73.696139,966.5106 c -0.632713,0.94074 -2.780934,4.15955 -4.773837,7.1529 -7.443092,11.17956 -20.966944,18.26006 -33.02805,17.2919 -11.047998,-0.88678 -20.4075,-4.19955 -25.089896,-14.1869 -2.0404008,-4.35207 -3.6233948,-9.56565 -3.6228185,-16.88594 5.368e-4,-6.8167 1.3708581,-9.31962 2.9208625,-12.67465 2.625698,-5.68336 4.768282,-10.22143 10.157208,-12.9522 3.93156,-1.99227 9.180846,-4.0366 15.133736,-3.65287 4.116302,0.26536 8.460082,1.18766 11.126172,2.3624 2.405468,1.05991 4.544155,1.75653 4.752628,1.54806 0.208482,-0.20847 -0.950669,-2.93446 -2.575896,-6.05773 -2.700838,-5.19033 -3.374515,-9.06297 -2.964409,-13.7257 0.667881,-7.59347 3.110033,-15.93687 8.655474,-21.16708 5.799722,-5.47002 12.288862,-8.12709 22.629011,-7.74272 9.620141,0.35762 15.204803,3.28525 20.399884,8.50992 5.082312,5.11124 7.611292,12.82108 8.211712,20.00399 0.40092,4.79626 -0.28242,8.22056 -3.18955,14.08227 -1.75425,3.53714 -2.909338,6.43116 -2.566856,6.43116 0.342476,0 2.984826,-1.09836 5.871886,-2.44083 13.50123,-6.27793 28.98278,-0.19671 35.52623,13.95485 1.57023,3.39594 2.84359,5.80711 2.8378,13.52113 -0.006,8.16983 -1.22726,9.96835 -3.14776,13.85875 -6.07307,12.30222 -20.15196,19.40074 -33.0097,16.64323 -10.946668,-2.34761 -20.152757,-8.95395 -26.891948,-19.29765 -2.092582,-3.2118 -4.815063,-6.75443 -4.217887,-5.83965 -1.108707,1.5076 -2.203362,-0.48918 -3.143996,1.26336 z"
       id="path603"
       inkscape:connector-curvature="0"
       sodipodi:nodetypes="csssssssscsaasaasssscssscc" />
    <path
       style="fill:#7f2aff;stroke:none;stroke-width:1.53533"
       d="m 88.1335,888.2643 c 0,0 17.06562,17.81194 -1.7677,35.01841 -18.833329,17.20648 -34.958241,11.9618 -34.958241,11.9618 0,0 22.062837,11.73478 12.431845,15.96492 -9.630992,4.23013 62.131166,1.69608 62.131166,1.69608 l -11.97775,-21.99313 -14.681958,4.79659 c 0,0 7.342638,-9.55841 6.540998,-23.00454 C 105.05024,899.2583 88.1335,888.2643 88.1335,888.2643 Z"
       id="path769" />
    <path
       style="fill:#ff55dd;stroke:none;stroke-width:1.53533"
       d="m 109.91001,931.22641 c 0,0 13.59889,6.32194 6.55747,16.8049 -7.04142,10.48298 -73.618342,0.0984 -73.618342,0.0984 l 88.330222,37.9099 c 0,0 16.45058,-10.16013 12.49635,-32.41274 -3.95421,-22.2526 -33.7657,-22.40048 -33.7657,-22.40048 z"
       id="path659" />
    <path
       style="fill:#330080;stroke:none;stroke-width:1.53533"
       d="m 19.884297,934.39984 c 0,0 70.933412,40.79054 100.263643,29.83088 29.33023,-10.95964 12.89999,-28.56059 12.89999,-28.56059 0,0 20.00189,17.62879 6.28087,42.07564 -13.72102,24.44693 -48.317584,4.9978 -48.317584,4.9978 l -15.145658,-18.5845 c 0,0 -21.361319,34.96864 -45.784575,26.16151 C 5.6577276,981.51347 4.632691,970.76011 6.715564,956.24631 8.798438,941.73251 19.884297,934.39984 19.884297,934.39984 Z"
       id="path439"
       sodipodi:nodetypes="cscscccsc" />
  </g>
</svg>
