<?xml version="1.0" encoding="UTF-8" standalone="no"?>
<!-- Created with Inkscape (http://www.inkscape.org/) -->

<svg
   width="150"
   height="150"
   viewBox="0 0 150 150"
   id="svg2"
   version="1.1"
   inkscape:version="1.2.2 (b0a8486541, 2022-12-01)"
   sodipodi:docname="diamonds.svg"
   xmlns:inkscape="http://www.inkscape.org/namespaces/inkscape"
   xmlns:sodipodi="http://sodipodi.sourceforge.net/DTD/sodipodi-0.dtd"
   xmlns="http://www.w3.org/2000/svg"
   xmlns:svg="http://www.w3.org/2000/svg"
   xmlns:rdf="http://www.w3.org/1999/02/22-rdf-syntax-ns#"
   xmlns:cc="http://creativecommons.org/ns#"
   xmlns:dc="http://purl.org/dc/elements/1.1/">
  <defs
     id="defs4" />
  <sodipodi:namedview
     id="base"
     pagecolor="#ffffff"
     bordercolor="#666666"
     borderopacity="1.0"
     inkscape:pageopacity="0.0"
     inkscape:pageshadow="2"
     inkscape:zoom="3.404"
     inkscape:cx="29.524089"
     inkscape:cy="77.849589"
     inkscape:document-units="px"
     inkscape:current-layer="layer1"
     showgrid="false"
     units="px"
     inkscape:window-width="1440"
     inkscape:window-height="828"
     inkscape:window-x="0"
     inkscape:window-y="0"
     inkscape:window-maximized="1"
     inkscape:showpageshadow="2"
     inkscape:pagecheckerboard="0"
     inkscape:deskcolor="#d1d1d1" />
  <metadata
     id="metadata7">
    <rdf:RDF>
      <cc:Work
         rdf:about="">
        <dc:format>image/svg+xml</dc:format>
        <dc:type
           rdf:resource="http://purl.org/dc/dcmitype/StillImage" />
      </cc:Work>
    </rdf:RDF>
  </metadata>
  <g
     inkscape:label="Layer 1"
     inkscape:groupmode="layer"
     id="layer1"
     transform="translate(0,-877.36216)">
    <path
       style="fill:#ff0000;fill-opacity:1;stroke:none"
       d="m 71.53058,1019.2681 c -5.541272,-9.3775 -23.815365,-34.56522 -37.296872,-51.4073 -6.776523,-8.46573 -12.320951,-15.70775 -12.320951,-16.09337 0,-0.38562 2.498012,-3.68932 5.551138,-7.34155 14.779126,-17.67921 34.688967,-44.7342 42.813135,-58.17773 2.491067,-4.12211 4.836029,-7.13807 5.211026,-6.70213 0.374997,0.43594 3.911379,5.74741 7.858624,11.80326 8.617724,13.22128 27.37269,38.4164 38.04969,51.11535 l 7.73836,9.2038 -7.73836,9.2038 c -14.03521,16.69312 -34.035233,44.26127 -44.489716,61.32497 l -1.855601,3.0286 z"
       id="path5878"
       inkscape:connector-curvature="0" />
    <path
       style="fill:#aa0000;fill-opacity:1;stroke:none;stroke-width:0.567302"
       d="m 73.40539,992.95258 c -2.939616,-5.689 -12.633927,-20.96943 -19.785796,-31.18688 -3.59491,-5.13584 -6.5362,-9.5293 -6.5362,-9.76324 0,-0.23394 1.325182,-2.23817 2.944849,-4.45384 7.84025,-10.72531 18.402317,-27.13855 22.712146,-35.29424 1.321498,-2.50073 2.565488,-4.33039 2.764422,-4.06593 0.198934,0.26447 2.074966,3.48674 4.168959,7.1606 4.571658,8.02085 14.521069,23.30578 20.185161,31.00975 l 4.105159,5.5836 -4.105159,5.5836 c -7.445605,10.12708 -18.055513,26.85162 -23.601561,37.20348 l -0.984387,1.8374 z"
       id="path1849"
       inkscape:connector-curvature="0" />
    <path
       style="fill:#ff8080;fill-opacity:1;stroke:none;stroke-width:0.137216"
       d="m 74.637299,904.73752 c -0.71102,-1.37603 -3.055831,-5.07199 -4.785689,-7.54333 -0.869518,-1.24223 -1.580943,-2.3049 -1.580943,-2.36148 0,-0.0566 0.320529,-0.54136 0.712285,-1.07728 1.89636,-2.59418 4.45106,-6.56413 5.493499,-8.53679 0.319638,-0.60486 0.620528,-1.04741 0.668645,-0.98345 0.04811,0.064 0.501882,0.84336 1.008367,1.73198 1.105769,1.94004 3.512283,5.63708 4.882285,7.50048 l 0.992935,1.35053 -0.992935,1.35053 c -1.800906,2.44949 -4.367177,6.49474 -5.708626,8.9986 l -0.238099,0.44442 z"
       id="path1851"
       inkscape:connector-curvature="0" />
    <path
       style="fill:#ff8080;fill-opacity:1;stroke:none;stroke-width:0.137216"
       d="m 64.721552,919.46007 c -0.71102,-1.37603 -3.055831,-5.07199 -4.785689,-7.54333 -0.869518,-1.24223 -1.580943,-2.3049 -1.580943,-2.36148 0,-0.0566 0.320529,-0.54136 0.712285,-1.07728 1.89636,-2.59418 4.45106,-6.56413 5.493499,-8.53679 0.319638,-0.60486 0.620528,-1.04741 0.668645,-0.98345 0.04811,0.064 0.501882,0.84336 1.008367,1.73198 1.105769,1.94004 3.512283,5.63708 4.882285,7.50048 l 0.992935,1.35053 -0.992935,1.35053 c -1.800906,2.44949 -4.367177,6.49474 -5.708626,8.9986 l -0.238099,0.44442 z"
       id="path1853"
       inkscape:connector-curvature="0" />
    <path
       style="fill:#ff8080;fill-opacity:1;stroke:none;stroke-width:0.137216"
       d="m 54.858443,933.28964 c -0.71102,-1.37603 -3.055831,-5.07199 -4.785689,-7.54333 -0.869518,-1.24223 -1.580943,-2.3049 -1.580943,-2.36148 0,-0.0566 0.320529,-0.54136 0.712285,-1.07728 1.89636,-2.59418 4.45106,-6.56413 5.493499,-8.53679 0.319638,-0.60486 0.620528,-1.04741 0.668645,-0.98345 0.04811,0.064 0.501882,0.84336 1.008367,1.73198 1.105769,1.94004 3.512283,5.63708 4.882285,7.50048 l 0.992935,1.35053 -0.992935,1.35053 c -1.800906,2.44949 -4.367177,6.49474 -5.708626,8.9986 l -0.238099,0.44442 z"
       id="path1857"
       inkscape:connector-curvature="0" />
    <path
       style="fill:#ff8080;fill-opacity:1;stroke:none;stroke-width:0.137216"
       d="m 35.458022,961.86054 c -0.71102,-1.37603 -3.055831,-5.07199 -4.785689,-7.54333 -0.869518,-1.24223 -1.580943,-2.3049 -1.580943,-2.36148 0,-0.0566 0.320529,-0.54136 0.712285,-1.07728 1.89636,-2.59418 4.45106,-6.56413 5.493499,-8.53679 0.319638,-0.60486 0.620528,-1.04741 0.668645,-0.98345 0.04811,0.064 0.501882,0.84336 1.008367,1.73198 1.105769,1.94004 3.512283,5.63708 4.882285,7.50048 l 0.992935,1.35053 -0.992935,1.35053 c -1.800906,2.44949 -4.367177,6.49474 -5.708626,8.9986 l -0.238099,0.44442 z"
       id="path1859"
       inkscape:connector-curvature="0" />
    <path
       style="fill:#ff8080;fill-opacity:1;stroke:none;stroke-width:0.137216"
       d="m 44.585942,947.38625 c -0.71102,-1.37603 -3.055831,-5.07199 -4.785689,-7.54333 -0.869518,-1.24223 -1.580943,-2.3049 -1.580943,-2.36148 0,-0.0566 0.320529,-0.54136 0.712285,-1.07728 1.89636,-2.59418 4.45106,-6.56413 5.493499,-8.53679 0.319638,-0.60486 0.620528,-1.04741 0.668645,-0.98345 0.04811,0.064 0.501882,0.84336 1.008367,1.73198 1.105769,1.94004 3.512283,5.63708 4.882285,7.50048 l 0.992935,1.35053 -0.992935,1.35053 c -1.800906,2.44949 -4.367177,6.49474 -5.708626,8.9986 l -0.238099,0.44442 z"
       id="path1863"
       inkscape:connector-curvature="0" />
    <path
       style="fill:#ff8080;fill-opacity:1;stroke:none;stroke-width:0.137216"
       d="m 45.239264,976.28171 c -0.71102,-1.37603 -3.055831,-5.07199 -4.785689,-7.54333 -0.869518,-1.24223 -1.580943,-2.3049 -1.580943,-2.36148 0,-0.0566 0.320529,-0.54136 0.712285,-1.07728 1.89636,-2.59418 4.45106,-6.56413 5.493499,-8.53679 0.319638,-0.60486 0.620528,-1.04741 0.668645,-0.98345 0.04811,0.064 0.501882,0.84336 1.008367,1.73198 1.105769,1.94004 3.512283,5.63708 4.882285,7.50048 l 0.992935,1.35053 -0.992935,1.35053 c -1.800906,2.44949 -4.367177,6.49474 -5.708626,8.9986 l -0.238099,0.44442 z"
       id="path1865"
       inkscape:connector-curvature="0" />
    <path
       style="fill:#ff8080;fill-opacity:1;stroke:none;stroke-width:0.137216"
       d="m 54.628202,990.08309 c -0.71102,-1.37603 -3.055831,-5.07199 -4.785689,-7.54333 -0.869518,-1.24223 -1.580943,-2.3049 -1.580943,-2.36148 0,-0.0566 0.320529,-0.54136 0.712285,-1.07728 1.89636,-2.59418 4.45106,-6.56413 5.493499,-8.53679 0.319638,-0.60486 0.620528,-1.04741 0.668645,-0.98345 0.04811,0.064 0.501882,0.84336 1.008367,1.73198 1.105769,1.94004 3.512283,5.63708 4.882285,7.50048 l 0.992935,1.35053 -0.992935,1.35053 c -1.800906,2.44949 -4.367177,6.49474 -5.708626,8.9986 l -0.238099,0.44442 z"
       id="path1867"
       inkscape:connector-curvature="0" />
    <path
       style="fill:#ff8080;fill-opacity:1;stroke:none;stroke-width:0.137216"
       d="m 64.289311,1004.4607 c -0.71102,-1.3761 -3.055831,-5.07202 -4.785689,-7.54342 -0.869518,-1.2422 -1.580943,-2.3049 -1.580943,-2.3615 0,-0.057 0.320529,-0.5413 0.712285,-1.0772 1.89636,-2.59422 4.45106,-6.56417 5.493499,-8.53683 0.319638,-0.60486 0.620528,-1.04741 0.668645,-0.98345 0.04811,0.064 0.501882,0.84336 1.008367,1.73198 1.105769,1.94004 3.512283,5.63708 4.882285,7.5005 l 0.992935,1.3505 -0.992935,1.3505 c -1.800906,2.4495 -4.367177,6.49482 -5.708626,8.99862 l -0.238099,0.4445 z"
       id="path1869"
       inkscape:connector-curvature="0" />
    <path
       style="fill:#aa0000;fill-opacity:1;stroke:none;stroke-width:0.137216"
       d="m 74.379297,1018.7179 c -0.71102,-1.3761 -3.055831,-5.072 -4.785689,-7.5434 -0.869518,-1.2422 -1.580943,-2.3049 -1.580943,-2.3615 0,-0.057 0.320529,-0.5413 0.712285,-1.0772 1.89636,-2.5942 4.45106,-6.5642 5.493499,-8.53682 0.319638,-0.6049 0.620528,-1.0475 0.668645,-0.9835 0.04811,0.064 0.501882,0.8434 1.008367,1.732 1.105769,1.94002 3.512283,5.63712 4.882285,7.50052 l 0.992935,1.3505 -0.992935,1.3505 c -1.800906,2.4495 -4.367177,6.4948 -5.708626,8.9986 l -0.238099,0.4445 z"
       id="path1871"
       inkscape:connector-curvature="0" />
    <path
       style="fill:#aa0000;fill-opacity:1;stroke:none;stroke-width:0.137216"
       d="m 85.015238,1004.9489 c -0.71102,-1.3761 -3.055831,-5.07202 -4.785689,-7.54342 -0.869518,-1.2422 -1.580943,-2.3049 -1.580943,-2.3615 0,-0.057 0.320529,-0.5413 0.712285,-1.0772 1.89636,-2.59415 4.45106,-6.56415 5.493499,-8.53675 0.319638,-0.6049 0.620528,-1.0475 0.668645,-0.9835 0.04811,0.064 0.501882,0.8434 1.008367,1.732 1.105769,1.94 3.512283,5.6371 4.882285,7.50045 l 0.992935,1.3505 -0.992935,1.3505 c -1.800906,2.4495 -4.367177,6.49482 -5.708626,8.99862 l -0.238099,0.4445 z"
       id="path1873"
       inkscape:connector-curvature="0" />
    <path
       style="fill:#aa0000;fill-opacity:1;stroke:none;stroke-width:0.137216"
       d="m 94.493071,989.58984 c -0.71102,-1.3761 -3.055831,-5.072 -4.785689,-7.5434 -0.869518,-1.2422 -1.580943,-2.3049 -1.580943,-2.3615 0,-0.057 0.320529,-0.5413 0.712285,-1.0772 1.89636,-2.59415 4.45106,-6.56415 5.493499,-8.53675 0.319638,-0.6049 0.620528,-1.0475 0.668645,-0.9835 0.04811,0.064 0.501882,0.8434 1.008367,1.732 1.105769,1.94 3.512283,5.6371 4.882285,7.50045 l 0.99294,1.3505 -0.99294,1.3505 c -1.800906,2.4495 -4.367177,6.4948 -5.708626,8.9986 l -0.238099,0.4445 z"
       id="path1875"
       inkscape:connector-curvature="0" />
    <path
       style="fill:#aa0000;fill-opacity:1;stroke:none;stroke-width:0.137216"
       d="m 104.96137,974.92348 c -0.71102,-1.3761 -3.05583,-5.072 -4.78569,-7.5434 -0.869516,-1.2422 -1.580941,-2.3049 -1.580941,-2.3615 0,-0.057 0.320529,-0.5413 0.712285,-1.0772 1.896356,-2.59415 4.451056,-6.56415 5.493496,-8.53675 0.31964,-0.6049 0.62053,-1.0475 0.66865,-0.9835 0.0481,0.064 0.50188,0.8434 1.00837,1.732 1.10576,1.94 3.51228,5.6371 4.88228,7.50045 l 0.99294,1.3505 -0.99294,1.3505 c -1.80091,2.4495 -4.36718,6.4948 -5.70863,8.9986 l -0.23809,0.4445 z"
       id="path1877"
       inkscape:connector-curvature="0" />
    <path
       style="fill:#aa0000;fill-opacity:1;stroke:none;stroke-width:0.137216"
       d="m 114.88836,961.30136 c -0.71102,-1.3761 -3.05583,-5.072 -4.78569,-7.5434 -0.86952,-1.2422 -1.58094,-2.3049 -1.58094,-2.3615 0,-0.057 0.32053,-0.5413 0.71228,-1.0772 1.89636,-2.59415 4.45107,-6.56415 5.49351,-8.53675 0.31963,-0.6049 0.62052,-1.0475 0.66864,-0.9835 0.0481,0.064 0.50188,0.8434 1.00837,1.732 1.10577,1.94 3.51228,5.6371 4.88228,7.50045 l 0.99294,1.3505 -0.99294,1.3505 c -1.8009,2.4495 -4.36717,6.4948 -5.70862,8.9986 l -0.2381,0.4445 z"
       id="path1879"
       inkscape:connector-curvature="0" />
    <path
       style="fill:#aa0000;fill-opacity:1;stroke:none;stroke-width:0.137216"
       d="m 104.43576,947.22032 c -0.71102,-1.3761 -3.05582,-5.072 -4.785681,-7.5434 -0.869518,-1.2422 -1.580943,-2.3049 -1.580943,-2.3615 0,-0.057 0.320529,-0.5413 0.712285,-1.0772 1.896359,-2.59415 4.451059,-6.56415 5.493499,-8.53675 0.31963,-0.6049 0.62052,-1.0475 0.66864,-0.9835 0.0481,0.064 0.50188,0.8434 1.00837,1.732 1.10577,1.94 3.51228,5.6371 4.88228,7.50045 l 0.99294,1.3505 -0.99294,1.3505 c -1.8009,2.4495 -4.36717,6.4948 -5.70862,8.9986 l -0.2381,0.4445 z"
       id="path1881"
       inkscape:connector-curvature="0" />
    <path
       style="fill:#aa0000;fill-opacity:1;stroke:none;stroke-width:0.137216"
       d="m 94.652522,932.92729 c -0.71102,-1.3761 -3.055827,-5.072 -4.785685,-7.5434 -0.869518,-1.2422 -1.580943,-2.3049 -1.580943,-2.3615 0,-0.057 0.320529,-0.5413 0.712285,-1.0772 1.89636,-2.59415 4.451063,-6.56415 5.493503,-8.53675 0.31963,-0.6049 0.62052,-1.0475 0.66864,-0.9835 0.0481,0.064 0.50188,0.8434 1.00837,1.732 1.10577,1.94 3.51228,5.6371 4.882278,7.50045 l 0.99294,1.3505 -0.99294,1.3505 c -1.800898,2.4495 -4.367168,6.4948 -5.708618,8.9986 l -0.2381,0.4445 z"
       id="path1883"
       inkscape:connector-curvature="0" />
    <path
       style="fill:#aa0000;fill-opacity:1;stroke:none;stroke-width:0.137216"
       d="m 84.856012,918.75895 c -0.71102,-1.3761 -3.055827,-5.072 -4.785685,-7.5434 -0.869518,-1.2422 -1.580943,-2.3049 -1.580943,-2.3615 0,-0.057 0.320529,-0.5413 0.712285,-1.0772 1.89636,-2.59415 4.451063,-6.56415 5.493503,-8.53675 0.31963,-0.6049 0.62052,-1.0475 0.66864,-0.9835 0.0481,0.064 0.50188,0.8434 1.00837,1.732 1.10577,1.94 3.51228,5.6371 4.88228,7.50045 l 0.99294,1.3505 -0.99294,1.3505 c -1.8009,2.4495 -4.36717,6.4948 -5.70862,8.9986 l -0.2381,0.4445 z"
       id="path1885"
       inkscape:connector-curvature="0" />
    <path
       style="opacity:0.5;fill:#006680;stroke-width:1.64409"
       d="m 75.366114,1023.9324 -31.537113,-61.72818 29.854304,1.2214 2.653035,56.44108 34.00136,-59.4445 18.61712,-8.68509 c 0,0 -7.4224,8.12885 -26.97229,33.87761 -19.549879,25.74878 -27.116287,39.39178 -27.116287,39.39178 0,0 -10.72471,-16.7792 -23.6591,-34.81032 -12.934389,-18.03108 24.158971,33.73622 24.158971,33.73622 z"
       id="path2017"
       sodipodi:nodetypes="ccccccscsc" />
    <path
       style="opacity:0.5;fill:#afdde9;stroke-width:1.64409"
       d="M 73.683305,963.42562 110.3377,960.4222 C 97.90104,933.66304 86.629324,906.35843 74.93368,879.26594 Z"
       id="path2073"
       sodipodi:nodetypes="cccc" />
    <path
       style="opacity:0.9;fill:#afdde9;stroke-width:1.64409"
       d="m 75.112527,879.92912 c 0,0 -14.681144,22.10434 -29.700264,42.3826 -15.01912,20.27826 -23.094135,29.54513 -23.094135,29.54513 l 21.645515,10.65579 z"
       id="path2075" />
  </g>
</svg>
