<?xml version="1.0" encoding="UTF-8" standalone="no"?>
<!-- Created with Inkscape (http://www.inkscape.org/) -->

<svg
   width="150mm"
   height="150mm"
   viewBox="0 0 150 149.99999"
   version="1.1"
   id="svg5"
   xml:space="preserve"
   inkscape:version="1.2.2 (b0a8486541, 2022-12-01)"
   sodipodi:docname="grand.svg"
   xmlns:inkscape="http://www.inkscape.org/namespaces/inkscape"
   xmlns:sodipodi="http://sodipodi.sourceforge.net/DTD/sodipodi-0.dtd"
   xmlns="http://www.w3.org/2000/svg"
   xmlns:svg="http://www.w3.org/2000/svg"><sodipodi:namedview
     id="namedview7"
     pagecolor="#ffffff"
     bordercolor="#000000"
     borderopacity="0.25"
     inkscape:showpageshadow="2"
     inkscape:pageopacity="0.0"
     inkscape:pagecheckerboard="0"
     inkscape:deskcolor="#d1d1d1"
     inkscape:document-units="mm"
     showgrid="false"
     inkscape:zoom="1.5003827"
     inkscape:cx="292.25876"
     inkscape:cy="197.94949"
     inkscape:window-width="1440"
     inkscape:window-height="828"
     inkscape:window-x="0"
     inkscape:window-y="0"
     inkscape:window-maximized="1"
     inkscape:current-layer="layer1" /><defs
     id="defs2" /><g
     inkscape:label="Layer 1"
     inkscape:groupmode="layer"
     id="layer1"
     transform="translate(-22.905863,-50.732536)"><path
       style="opacity:1;fill:#ff5555;stroke:none;stroke-width:0.212739"
       d="m 64.047311,184.03223 c 0,0 57.910839,-22.43501 92.489809,-67.38363 2.41173,-3.13497 2.45173,-8.67097 2.45173,-8.67097 L 141.35282,98.126334 97.783151,101.0036 c 0,0 -14.667247,3.55998 -32.595837,24.94895 -5.641731,6.73063 -1.140003,58.07968 -1.140003,58.07968 z"
       id="path5103"
       sodipodi:nodetypes="cscccsc" /><ellipse
       style="opacity:1;fill:#ffaaaa;stroke:none;stroke-width:1.44647;stroke-dasharray:none"
       id="ellipse6983"
       cx="98.364349"
       cy="164.28531"
       rx="25.476675"
       ry="25.715963" /><ellipse
       style="opacity:1;fill:#ff5555;stroke:none;stroke-width:1.09652;stroke-dasharray:none"
       id="ellipse6985"
       cx="98.364349"
       cy="164.28531"
       rx="19.312847"
       ry="19.494242" /><path
       style="opacity:1;fill:#ffaaaa;stroke:none;stroke-width:0.212739"
       d="m 110.9326,98.996554 c -2.40533,0.50169 -11.106945,5.654416 -13.149449,2.007046 -1.053253,-1.880816 0.526645,-6.094062 -0.279561,-7.793061 -0.524328,-1.104986 -0.831771,-2.699642 -1.608785,-3.617164 -0.560227,-0.661533 -2.739888,-0.809132 -2.739888,-1.86243 0,-2.607402 3.549175,-4.177661 3.840494,-6.896619 0.294714,-2.750598 -1.71756,-5.785655 -0.319405,-8.532591 2.026123,-3.980674 8.781184,-2.128462 10.908124,0.302322 3.30901,3.781718 -3.42549,-1.86363 1.78548,0.270786 0.65576,0.2686 2.01454,0.31464 2.56093,0.636474 0.99005,0.583165 1.52753,4.480373 2.12353,5.597865 0.49568,0.929392 6.17805,8.318254 6.172,8.451401 -0.0778,1.711453 0.39832,3.262257 -0.21142,4.946292 -0.99959,2.76077 -5.74953,8.133355 -9.08205,6.489679 z"
       id="path3850" /><path
       style="opacity:1;fill:#d35f5f;stroke:none;stroke-width:0.212739"
       d="m 99.281801,101.32305 c 5.178019,-2.019686 6.423079,-7.501138 5.791579,-12.55314 -0.14166,-1.133286 -0.0706,-2.281046 -0.20719,-3.410586 -0.0204,-0.1686 -0.36549,-1.05815 -0.11665,-1.05815 0.1675,0 1.33653,-0.14189 1.44986,0.02221 0.3694,0.534878 5.07199,10.777525 5.50484,11.996354 0.23369,0.658006 0.84653,1.543696 0.53599,2.239746 -0.87643,1.964406 -10.46702,3.137446 -12.958429,2.763576 z"
       id="path4104" /><path
       style="opacity:1;fill:#de8787;stroke:none;stroke-width:0.212739"
       d="m 98.17258,78.886156 c 0.549734,0.690431 0.643951,1.597969 1.145823,2.327956 0.280291,0.407701 0.705537,0.735255 0.961977,1.150671 0.15982,0.258917 0.091,1.955251 0.11559,2.360735 0.0481,0.794091 0.50321,1.635636 0.40284,2.438537 -0.0317,0.253793 -0.21923,0.467658 -0.3676,0.662642 -0.718737,0.944629 -1.609058,0.65214 -2.578828,0.258993 -0.894633,-0.362685 -2.103602,-0.02328 -3.022819,0.01848 -0.328017,0.01491 -0.665943,0.0444 -0.992749,0.0444 -0.07394,0 -0.226761,0.08119 -0.221728,0.0075 0.08708,-1.276627 0.91021,-2.869753 1.569192,-3.936682 0.195249,-0.316123 0.248063,-0.853008 0.377394,-1.20617 0.44676,-1.220003 0.94702,-2.42912 1.505714,-3.599708 0.214873,-0.450207 0.669997,-0.713639 1.105194,-0.527272 z"
       id="path4372" /><path
       style="opacity:1;fill:#de8787;stroke:none;stroke-width:0.212739"
       d="m 97.90411,94.417046 c -0.08578,-0.03114 0.159235,0.08949 0.24099,0.130119 1.498614,0.74488 3.3098,0.329354 4.80543,1.077179 0.15706,0.07853 0.67575,0.344952 0.86351,0.239822 0.82698,-0.463033 -0.62697,-2.253858 -1.06281,-2.471778 -0.47066,-0.235333 -3.786795,-0.122807 -4.547009,-0.06279 -0.667325,0.05269 -1.105542,-0.181325 -0.687759,0.432281 0.03563,0.05237 0.483361,0.423527 0.476084,0.449926 -0.01978,0.07181 -0.134534,0.146727 -0.08845,0.205242 0.04837,0.06144 0.256365,-0.06501 0.234425,0.01011 -0.0245,0.0837 -0.132449,-0.0034 -0.181157,-0.02071"
       id="path4374" /><path
       style="opacity:1;fill:#501616;stroke:none;stroke-width:0.212739"
       d="m 96.656017,100.61544 c 0.190403,0.29276 0.43738,0.53511 0.704363,0.75698 0.785272,0.56134 0.271393,0.20303 2.137862,1.26683 0.266938,0.15214 0.560588,0.21815 0.860208,0.26565 0.44238,0.036 0.87918,-0.0532 1.30884,-0.14751 0.53303,-0.12198 1.05838,-0.27522 1.58807,-0.41084 0.56016,-0.13411 1.11282,-0.29602 1.6683,-0.44768 0.30627,-0.0948 0.61734,-0.18556 0.91138,-0.31527 0.27462,-0.12115 0.53143,-0.2822 0.79442,-0.42591 0.096,-0.0399 0.18996,-0.0851 0.28804,-0.11953 0.30682,-0.10786 0.64179,-0.1883 0.95728,-0.25721 0.68842,-0.15036 1.38358,-0.25676 2.08004,-0.36104 0.79706,-0.12247 1.60016,-0.20933 2.39023,-0.37459 0.45098,-0.0944 0.60983,-0.144496 1.0543,-0.265206 0.82336,-0.21849 1.61697,-0.51974 2.37755,-0.90116 0.53106,-0.29508 1.00679,-0.675 1.46349,-1.07266 0.42928,-0.38274 0.83401,-0.79094 1.22108,-1.215967 0.32727,-0.362798 0.65099,-0.728951 0.95918,-1.108167 0.31735,-0.395484 0.59701,-0.818724 0.89057,-1.231775 0.20198,-0.267177 0.37166,-0.555998 0.55081,-0.83832 0.18179,-0.288333 0.38458,-0.562543 0.58144,-0.840593 0.22446,-0.307285 0.43954,-0.621314 0.65328,-0.936118 0.0656,-0.09627 0.12956,-0.19365 0.19263,-0.291601 l -1.81475,-1.044598 v 0 c -0.0483,0.101019 -0.0988,0.200926 -0.15722,0.29656 -0.19858,0.321019 -0.419,0.626523 -0.64223,0.930747 -0.20485,0.278448 -0.41038,0.556788 -0.60344,0.843567 -0.17374,0.281946 -0.33423,0.571764 -0.51385,0.85013 -0.27565,0.418876 -0.5672,0.82668 -0.88504,1.214873 -0.30733,0.373796 -0.61852,0.744315 -0.93719,1.108534 -0.3827,0.418486 -0.777,0.826969 -1.2085,1.195936 -0.44555,0.384052 -0.89961,0.763252 -1.4202,1.043462 -0.72769,0.38449 -1.49246,0.69232 -2.28658,0.91171 -1.11246,0.29153 -2.24377,0.49114 -3.38107,0.65975 -1.47422,0.24144 0.11137,-0.0169 -1.42492,0.2291 -0.58425,0.0935 -1.19201,0.16445 -1.75892,0.34319 -0.10934,0.0345 -0.21253,0.0861 -0.31879,0.129146 -0.0567,0.033 -0.43361,0.25273 -0.4869,0.28006 -0.37317,0.19133 -0.7761,0.31498 -1.178,0.42917 -0.55807,0.15425 -1.12234,0.28405 -1.68089,0.43671 -0.52711,0.14393 -1.05537,0.28542 -1.591284,0.39333 -0.419751,0.0751 -0.847172,0.1511 -1.272999,0.076 -0.212539,-0.0489 -0.409204,-0.10814 -0.606324,-0.20382 -0.06877,-0.0334 -0.268498,-0.14626 -0.20266,-0.10739 1.963403,1.15913 1.985601,1.17572 1.343067,0.77413 -0.261033,-0.19685 -0.507547,-0.40992 -0.695037,-0.68116 -0.09493,-0.13037 -0.189682,-0.26431 -0.207854,-0.42922 -0.03198,-0.43902 -0.03385,-0.88 -0.03955,-1.319906"
       id="path6565" /><path
       style="opacity:1;fill:#ff3a5e;fill-opacity:1;stroke:none;stroke-width:0.212739"
       d="m 98.318231,99.703714 c -0.0036,-0.76516 0.0036,-1.53022 0.01416,-2.29531 0.0071,-0.31732 0.03198,-0.634564 0.01978,-0.951959 -0.0053,-0.183513 -0.01033,-0.367208 -0.04222,-0.548483 -0.0204,-0.123707 -0.04436,-0.245474 -0.07536,-0.366859 -0.01951,-0.08751 -0.0343,-0.177108 -0.04124,-0.266443 -0.02441,-0.09578 -0.03795,-0.19465 -0.07358,-0.287329 -0.04935,-0.106447 -0.09565,-0.215476 -0.103508,-0.33412 -0.0053,-0.08477 -0.02654,-0.168056 -0.05888,-0.246802 -0.02735,-0.0017 -0.03456,0.03316 -0.05327,0.01064 -0.0018,-0.02524 0.01817,-0.04855 0.03706,-0.06939 0.343757,-0.345895 -0.100939,-2.010132 -1.208204,-2.070228 -0.242095,-0.02609 -0.485,-0.05934 -0.715578,-0.141396 -0.08453,-0.03754 -0.07821,-0.03189 -0.153783,-0.0755 -0.01995,-0.01154 -0.07901,-0.04766 -0.05906,-0.03604 2.966185,1.728492 2.242484,1.317889 1.636106,0.954329 -0.08919,-0.06182 -0.158184,-0.144234 -0.223781,-0.230094 -0.06574,-0.103551 -0.108942,-0.21545 -0.12739,-0.337505 -0.0147,-0.111157 -0.01051,-0.222487 -0.0062,-0.334331 0.0071,-0.125476 0.02084,-0.250762 0.05389,-0.372443 0.02049,-0.0835 0.03902,-0.167016 0.03527,-0.2535 0.0071,-0.09023 0.03225,-0.177167 0.04935,-0.265743 0.0326,-0.142535 0.06449,-0.285459 0.09273,-0.428832 0.0096,-0.07539 5.61e-4,-0.151318 0.0018,-0.227157 -5.61e-4,-0.08082 0.0018,-0.161676 0.0053,-0.242397 5.61e-4,-0.04028 0.02031,-0.07527 0.02467,-0.115223 -0.05309,-0.749875 -1.201852,-0.930781 -1.8831,-1.145826 -0.09983,-0.04347 -0.20132,-0.08284 -0.302214,-0.123741 -0.226142,-0.09643 -0.450378,-0.197129 -0.671952,-0.303704 -0.375384,-0.181595 -0.755528,-0.353085 -1.12877,-0.539044 -0.739642,-0.395954 -0.418449,-0.227752 1.26099,0.745869 0.06679,0.03872 -0.133662,-0.07741 -0.198595,-0.119168 -0.150641,-0.09688 -0.150333,-0.104656 -0.278387,-0.208712 -0.02838,-0.02305 -0.05713,-0.04566 -0.08569,-0.0685 0.09502,-0.366139 0.299984,-0.69389 0.451207,-1.038128 0.22883,-0.472529 0.452038,-0.947789 0.66954,-1.425643 0.216655,-0.494105 0.436329,-0.986833 0.629717,-1.490743 0.245124,-0.585136 0.500251,-1.166402 0.802126,-1.725068 0.267695,-0.498313 0.534999,-0.99683 0.8047,-1.49405 0.23104,-0.416795 0.474115,-0.831263 0.623284,-1.286364 0.09668,-0.347438 0.178423,-0.699165 0.13302,-1.062709 -0.05541,-0.236597 -0.190867,-0.424908 -0.348302,-0.607483 -0.140396,-0.186282 -0.278769,-0.375234 -0.386909,-0.582433 -0.07714,-0.15507 -0.15446,-0.309986 -0.231397,-0.46515 -0.07527,-0.166836 -0.15185,-0.332812 -0.232047,-0.497296 -0.08338,-0.203373 -0.160428,-0.410926 -0.200522,-0.627742 -0.07019,-0.405719 -0.11948,-0.814596 -0.172241,-1.222869 -0.06075,-0.352174 -0.127238,-0.702893 -0.06244,-1.060539 0.04837,-0.384058 0.10643,-0.767986 0.196995,-1.14456 l -1.859552,-0.979166 1.25e-4,2e-4 c -0.01573,0.392889 -0.08958,0.780481 -0.14964,1.16829 -0.08887,0.375337 -0.03135,0.745125 0.03455,1.118115 0.07998,0.399257 0.110455,0.805752 0.158158,1.209505 0.02079,0.227019 0.08481,0.444709 0.159971,0.658653 0.06424,0.173826 0.147505,0.339602 0.224223,0.508069 0.06903,0.160731 0.150158,0.315683 0.228172,0.472099 0.105655,0.221859 0.246718,0.423339 0.38934,0.622447 0.131158,0.177187 0.269727,0.34717 0.365895,0.546439 0.102707,0.318615 0.03305,0.651469 -0.05122,0.965542 -0.126784,0.446736 -0.357325,0.851899 -0.576723,1.257703 -0.281352,0.493468 -0.528259,1.005217 -0.779462,1.514352 -0.295372,0.566552 -0.573481,1.141231 -0.827483,1.7275 -0.215238,0.493716 -0.413038,0.99484 -0.630586,1.487542 -0.213083,0.476466 -0.447219,0.943081 -0.67937,1.410424 -0.172048,0.344258 -0.357263,0.684637 -0.500327,1.042331 0.0078,0.06692 0.0014,0.137011 0.02322,0.200795 0.06614,0.194289 0.296503,0.358687 0.462257,0.456614 1.769603,1.045471 1.320261,0.815602 2.209439,1.257839 0.391207,0.179372 0.774998,0.374209 1.163474,0.559181 0.233089,0.10921 0.466054,0.219423 0.705085,0.315159 0.108781,0.04178 0.21253,0.09565 0.323512,0.131621 0.772944,0.29441 -2.466001,-1.017622 -1.713585,-1.035259 0.03233,-0.02811 0.0269,-0.02325 0.02378,0.02133 -0.0018,0.08531 2.76e-4,0.170623 -8.46e-4,0.255929 5.61e-4,0.07198 -0.0053,0.143947 -0.0018,0.215872 0.0036,0.136744 -0.03037,0.270797 -0.06173,0.402928 -0.02156,0.09154 -0.05211,0.180528 -0.07171,0.272523 -0.01327,0.08336 -0.01104,0.167329 -0.02206,0.251062 -0.02404,0.129992 -0.04931,0.259672 -0.0645,0.39106 -0.01277,0.122489 -0.01354,0.246141 -0.0072,0.369024 0.009,0.139439 0.04253,0.275869 0.09156,0.406313 0.04507,0.110762 0.117164,0.207221 0.192318,0.299135 4.489126,3.621489 4.581859,1.112645 4.429409,0.760391 -0.279181,0.02534 -0.5655,0.04236 -0.824938,0.0467 -0.08516,0.0014 0.790501,0.632928 0.705351,0.633628 -0.230915,0.0125 -1.423156,-0.625138 -1.65433,-0.621648 -0.360791,0.0028 -0.721564,0.0028 -1.082346,-5.63e-4 -0.18317,-0.0026 -0.366323,-0.0067 -0.54935,-0.01435 -0.06039,-0.01032 -0.09957,0.01325 -0.148234,0.04516 -0.0767,0.07392 -0.156563,0.144494 -0.229936,0.221784 -0.04338,0.0453 -0.07652,0.09766 -0.100507,0.155304 -0.01505,0.04955 -0.03189,0.100647 -0.02245,0.152131 0.05131,0.04932 0.07687,0.113526 0.103544,0.177839 0.02476,0.123173 0.05104,0.245433 0.08933,0.365238 0.03572,0.0831 0.06387,0.168267 0.08151,0.256927 0.02263,0.08541 0.03358,0.173899 0.04766,0.261158 0.0204,0.126154 0.06039,0.247573 0.08712,0.372326 0.03545,0.173211 0.05336,0.348852 0.06342,0.525143 0.0036,0.327844 0.03207,0.654501 0.05033,0.981679 0.03804,0.767274 0.02752,1.535764 0.01256,2.303484 -0.0045,0.4264 -0.02966,0.85205 -0.05166,1.277752 -0.01461,0.19869 0.05754,0.36942 0.156777,0.53612"
       id="path1143"
       sodipodi:nodetypes="ccccccccccccccccccccccccccccccsssccccccccccccccccccccccccccccccccccsccccccccccccccccccccccccccccccccccc" /><path
       style="opacity:1;fill:#000000;stroke:none;stroke-width:0.212739"
       id="path1153"
       d="m 96.156978,88.410177 c 0.13644,-0.111693 0.279739,-0.215025 0.430521,-0.306468 0.03848,-0.02213 0.08026,-0.04517 0.125706,-0.04576 0.02601,0.0028 0.05051,-0.0062 0.07661,-0.0081 0.04561,-0.01508 0.09528,-0.01315 0.142541,-0.0095 0.110519,0.0077 0.221982,0.02046 0.32973,0.04719 0.07349,0.02174 0.145873,0.04948 0.214044,0.08462 0.04303,0.02004 0.08436,0.04237 0.125725,0.06554 0.495734,0.271621 -1.170373,-0.670573 -0.719872,-0.417686 0.358742,0.23945 0.739905,0.443052 1.115946,0.654562 0.07518,0.04795 0.159912,0.0747 0.243084,0.104604 0.06405,0.01629 0.125786,0.03574 0.187125,0.05998 0.08115,0.02362 0.16539,0.03593 0.248999,0.04827 0.09523,0.01067 0.188274,0.03048 0.284175,0.03546 0.129296,0.0064 0.258726,0.006 0.388129,0.0056 0.128592,-0.0017 0.257398,0.005 0.385857,-0.002 0.112808,-0.01316 0.218908,-0.0533 0.322272,-0.09829 0.0999,-0.03971 0.18982,-0.09682 0.27719,-0.158546 0.0876,-0.06191 0.1672,-0.133679 0.24233,-0.209965 0.0724,-0.0713 0.12467,-0.155816 0.15789,-0.251266 0.0263,-0.09156 0.0248,-0.187742 0.0256,-0.282152 -8.9e-4,-0.112524 0.01,-0.224576 0.0184,-0.336611 8.9e-4,-0.01439 0.002,-0.02875 0.004,-0.0431 0,0 -0.93723,-0.484939 -0.93723,-0.484939 v 0 c -5.62e-4,0.01441 -0.0018,0.02883 -0.0018,0.04324 -0.0062,0.114198 -0.01755,0.228086 -0.02156,0.342426 -2.22e-4,0.08439 0.0018,0.169779 -0.01274,0.253181 -0.02245,0.08214 -0.06868,0.149757 -0.130267,0.208571 -0.07233,0.07073 -0.148207,0.137695 -0.232617,0.193939 -0.08266,0.05611 -0.170477,0.103423 -0.263723,0.139795 -0.09687,0.03667 -0.196309,0.06757 -0.301047,0.06766 -0.126712,0.0014 -0.253434,0.0017 -0.380156,0.0012 -0.128806,-0.0017 -0.257933,-0.0029 -0.386222,-0.01573 -0.09378,-0.01289 -0.187126,-0.02897 -0.280791,-0.04259 -0.08115,-0.01546 -0.162308,-0.03226 -0.238781,-0.06445 -0.062,-0.02057 -0.126232,-0.03473 -0.186448,-0.06085 -0.08044,-0.03135 -0.156349,-0.07143 -0.230399,-0.115721 -0.410131,-0.2341 1.263271,0.758786 0.688444,0.390418 -0.342503,-0.241201 -0.72257,-0.426525 -1.090006,-0.627972 -0.04276,-0.02149 -0.08703,-0.04027 -0.131007,-0.05919 -0.07313,-0.0262 -0.146514,-0.05228 -0.223869,-0.06354 -0.113752,-0.01703 -0.228324,-0.03258 -0.343546,-0.03262 -0.05264,0.0029 -0.104087,0.01064 -0.155903,0.01883 -0.02806,0.0057 -0.05665,0.0073 -0.08338,0.01787 -0.0489,0.02116 -0.09463,0.04766 -0.137687,0.07933 -0.1459,0.102445 -0.286901,0.211697 -0.434375,0.311901 0,0 0.889597,0.562843 0.889597,0.562843 z" /><path
       style="opacity:1;fill:#000000;stroke:none;stroke-width:0.212739"
       id="path1157"
       d="m 100.59709,77.073054 c 0.22235,0.03491 0.44403,0.07148 0.66722,0.100838 0.24203,0.03404 0.48584,0.05101 0.72952,0.06806 0.17212,0.01269 0.34465,0.01554 0.51692,0.02505 0.18806,0.0064 0.37625,0.0035 0.56436,0.0045 0.15601,0.0012 0.312,0.0039 0.46802,0.0047 0.0908,8.45e-4 0.1816,0.0017 0.2724,0.0014 0.0988,0.0083 0.19781,0.01311 0.29677,0.01903 0.15426,0.01722 0.30739,0.04227 0.45956,0.07266 0.14884,0.03001 0.29672,0.065 0.44458,0.0996 0.16822,0.04109 0.33206,0.09731 0.49891,0.143194 0.14697,0.04673 0.29094,0.10203 0.43572,0.15506 0.11791,0.04617 0.23338,0.09785 0.35229,0.141413 0.0927,0.04099 0.18902,0.07283 0.27999,0.117756 0.50387,0.264607 1.20423,0.686562 -1.08826,-0.633731 4.49172,2.645992 -0.85007,-0.551981 0.346,0.20461 0.10712,0.06797 0.20934,0.143112 0.31241,0.216933 0.0928,0.07256 0.18741,0.142601 0.28188,0.212931 0.0816,0.06007 0.1569,0.127949 0.23593,0.191251 0.0601,0.0473 0.11484,0.100668 0.1725,0.150793 0.0657,0.05527 0.12765,0.114604 0.19113,0.172364 0.0725,0.06681 0.14535,0.133383 0.21925,0.198659 0.0524,0.04771 0.10499,0.09399 0.16005,0.138288 0.0521,0.04325 0.0989,0.09216 0.14436,0.142269 0.0164,0.01371 0.0264,0.03233 0.0376,0.05012 0,0 1.46312,0.621597 1.46312,0.621597 v 0 c -0.0168,-0.01463 -0.0313,-0.0289 -0.0404,-0.04986 -0.0427,-0.05708 -0.0891,-0.111462 -0.13786,-0.163283 -0.0499,-0.05273 -0.10814,-0.09361 -0.1612,-0.14333 -0.0746,-0.06486 -0.1481,-0.131072 -0.22327,-0.195403 -0.0614,-0.05803 -0.12415,-0.114142 -0.18378,-0.17393 -0.0585,-0.05199 -0.11883,-0.101582 -0.17532,-0.155836 -0.077,-0.06773 -0.16006,-0.128385 -0.23533,-0.198263 -0.0932,-0.07404 -0.19111,-0.141559 -0.28443,-0.215334 -0.0995,-0.0794 -0.20367,-0.152645 -0.30753,-0.226167 -0.86475,-0.590732 -3.07727,-1.735068 -0.3421,-0.212244 -0.51743,-0.29826 -1.05763,-0.66624 -1.62509,-0.914181 -0.0944,-0.03625 -0.18809,-0.07437 -0.28253,-0.110551 -0.11575,-0.04659 -0.23083,-0.095 -0.34907,-0.135133 -0.14655,-0.05264 -0.29278,-0.106884 -0.44349,-0.146704 -0.16606,-0.04837 -0.33235,-0.09602 -0.50078,-0.135616 -0.14913,-0.03502 -0.29862,-0.06862 -0.44982,-0.0936 -0.15781,-0.02583 -0.31617,-0.05235 -0.4759,-0.06242 -0.1021,-0.0073 -0.20464,-0.01376 -0.30699,-0.01363 -0.0894,-1.27e-4 -0.17884,5.63e-4 -0.26824,0.0017 -0.1519,8.45e-4 -0.30379,0.0035 -0.45569,0.0031 -0.1898,-0.0012 -0.37961,-0.0057 -0.56916,-0.01582 -0.16834,-0.006 -0.33681,-0.0093 -0.50488,-0.0211 -0.24126,-0.01725 -0.4821,-0.03896 -0.72145,-0.07468 -0.227866,-0.03223 -0.454239,-0.0737 -0.680674,-0.114716 0,0 1.262714,0.947652 1.262714,0.947652 z" /><path
       style="opacity:1;fill:#000000;stroke:none;stroke-width:0.212739"
       id="path1159"
       d="m 102.15407,76.655472 c -0.0906,0.126496 -0.19801,0.239914 -0.31002,0.347514 -0.0604,0.05928 -0.12106,0.118321 -0.18326,0.175759 -0.0428,0.0397 -0.073,0.0873 -0.0929,0.141775 -0.0166,0.0509 -0.0114,0.104369 -0.0145,0.156819 -0.008,0.07371 -0.0162,0.147336 -0.0205,0.221478 -0.004,0.0643 -0.0113,0.1282 -0.0177,0.192226 -0.0144,0.07052 -0.008,0.123787 0.0353,0.181388 0.42393,0.410001 0.12628,0.107523 1.43137,0.845406 0.0236,0.01337 0.0763,0.01 0.10436,0.01984 0.1199,0.03453 0.24212,0.05266 0.36536,0.06985 0.12823,0.01309 0.25652,0.0291 0.38525,0.03678 0.10123,8.44e-4 0.20368,0.0148 0.30389,-0.0026 0.0953,-0.01874 0.17896,-0.06879 0.26227,-0.11616 0.0788,-0.04358 0.14844,-0.100604 0.21508,-0.160671 0.0623,-0.05543 0.11524,-0.11976 0.16389,-0.187222 0.0475,-0.06675 0.0884,-0.137667 0.12654,-0.210077 0.0306,-0.05469 0.0398,-0.116959 0.0552,-0.176819 0.0123,-0.04433 0.0195,-0.08973 0.0235,-0.135494 0.003,-0.04 0.004,-0.08006 0.004,-0.120152 0.003,-0.04191 -0.0187,-0.07461 -0.0365,-0.110515 -0.0286,-0.0457 -0.0658,-0.08544 -0.0992,-0.127638 -0.0477,-0.05092 -0.0854,-0.110669 -0.12203,-0.169836 -0.2591,-0.534718 -0.94548,-0.807662 -1.52396,-0.846129 -0.0775,-0.0201 -0.1147,-0.01371 -0.17295,0.04385 -0.0549,0.05712 -0.0785,0.131374 -0.0917,0.207595 -0.0188,0.0679 -0.0262,0.137607 -0.0302,0.207718 -8.5e-4,0.10254 -0.004,0.204832 -0.0104,0.307218 -8.9e-4,0.0629 -0.0102,0.125072 -0.017,0.187478 -0.008,0.04041 -0.0131,0.08108 -0.019,0.121754 -0.0107,0.04849 -0.0194,0.09724 -0.0249,0.146586 -0.002,0.04087 -0.004,0.0813 -0.009,0.122063 -0.007,0.03432 -0.011,0.06925 -0.0202,0.103029 -0.0127,0.03496 -0.0217,0.07038 -0.0306,0.106482 0,0 1.48575,0.574572 1.48575,0.574572 v 0 c -0.0115,0.01835 -0.0305,0.05497 -0.0493,0.06596 0.005,-0.03508 0.0121,-0.07025 0.018,-0.105434 0.01,-0.04426 0.0165,-0.08999 0.0162,-0.135302 8.5e-4,-0.04333 0.004,-0.08665 0.0143,-0.12888 0.0105,-0.04207 0.0167,-0.08456 0.023,-0.127424 0.0129,-0.06774 0.0142,-0.138062 0.0181,-0.206716 0.003,-0.101998 0.0109,-0.203714 0.0128,-0.305724 0.003,-0.06082 0.004,-0.1223 0.0198,-0.181337 0.007,-0.02536 0.004,-0.08169 0.0258,-0.0935 0.0104,0.04576 0.0721,0.03502 0.10903,0.04577 0.0323,0.01021 0.16024,0.08516 0.0954,0.04769 -1.35568,-0.783184 -1.84359,-0.808026 -1.30061,-0.775261 0.0543,0.04398 0.0896,0.105911 0.12423,0.165636 0.033,0.03951 0.063,0.08191 0.0992,0.118428 0.0213,0.01872 0.0331,0.04497 0.0603,0.05606 0.021,0.02218 0.0178,0.04922 0.0179,0.07806 5.7e-4,0.03682 5.7e-4,0.07392 -0.007,0.110125 -0.0104,0.04909 -0.0205,0.09851 -0.036,0.145894 -0.0305,0.06618 -0.0686,0.128458 -0.11148,0.187337 -0.0429,0.05744 -0.0904,0.111172 -0.14538,0.157371 -0.0603,0.05065 -0.124,0.09673 -0.19502,0.131528 -0.0706,0.03573 -0.14344,0.06378 -0.22411,0.06094 -0.0959,-0.0053 -0.19214,-0.0045 -0.28776,-0.01478 -0.12444,-0.01243 -0.24948,-0.02062 -0.37266,-0.04338 -0.12223,-0.02261 -0.24273,-0.05437 -0.36032,-0.09484 -0.0316,-0.009 -0.14781,-0.07772 -0.0885,-0.04363 2.092,1.202233 1.75301,0.981984 1.27637,0.744478 -0.0338,-0.01644 -0.0947,-0.01426 -0.0952,-0.0471 0.002,-0.06587 0.007,-0.13156 0.0139,-0.197088 0.003,-0.07221 0.006,-0.144523 0.0215,-0.215411 0.004,-0.04351 0.0111,-0.08691 0.004,-0.130656 -8.5e-4,-0.02916 0.0272,-0.04796 0.0455,-0.06795 0.0601,-0.06028 0.1177,-0.122861 0.1769,-0.184031 0.11105,-0.11741 0.21449,-0.241601 0.32225,-0.361991 0,0 -1.35699,-0.808734 -1.35699,-0.808734 z" /><path
       style="opacity:1;fill:#de8787;stroke:none;stroke-width:0.212739"
       d="m 108.83704,75.641784 c 0.4593,1.471169 -0.17495,3.001996 0.76966,4.391108 6.39403,9.402889 7.43666,1.727463 3.53898,-3.775108 -0.31851,-0.449632 -7.07554,-2.939287 -7.45656,-2.582275 -0.75014,0.702876 2.22314,0.716018 3.21014,2.019577"
       id="path4287" /><path
       style="opacity:1;fill:#ffccaa;stroke:none;stroke-width:0.212739"
       d="m 107.4995,69.958684 c 1.58659,1.352097 7.10809,1.246936 8.35655,2.261262 1.0999,0.893617 1.55423,2.579103 2.47638,3.653148 0.76838,0.894938 1.7521,1.315878 2.60694,2.083498 0.89205,0.801015 1.37703,1.908629 2.14508,2.812208 0.98551,1.159428 1.85122,2.378746 2.69775,3.64858 0.2757,0.413543 1.32225,3.650802 1.06851,4.461198 -0.59865,1.912006 -2.95369,0.934652 -4.25898,0.399149 -0.3508,-0.143916 -2.24979,-0.523222 -2.39903,-0.693702 -1.0745,-1.227328 -1.51768,-2.925235 -2.4816,-4.224422 -1.58612,-2.137796 -3.10768,-3.861057 -4.11569,-6.455763 -0.37913,-0.975899 -0.51639,-2.277166 -0.99556,-3.19196 -0.9296,-1.774679 -4.79475,-2.642035 -5.10035,-4.753196 z"
       id="path4569" /><path
       style="opacity:1;fill:#000000;stroke:none;stroke-width:0.212739"
       id="path1165"
       d="m 99.006427,73.241589 c 0.371613,0.07654 0.7388,0.172721 1.102633,0.279921 0.34805,0.110127 0.6935,0.223747 1.05228,0.29313 0.2259,0.04349 0.45568,0.05021 0.68466,0.06162 0.18258,0.0073 0.36467,0.02226 0.54713,0.03167 0.23161,0.0098 0.46344,0.0057 0.69515,0.0032 0.28309,-0.0062 0.56551,0.0065 0.84812,0.01992 0.20718,0.0061 0.41393,0.01212 0.62026,0.03242 0.17146,0.02021 0.34397,0.02884 0.51545,0.04848 0.17816,0.01782 0.35265,0.05749 0.52552,0.102828 0.18381,0.03979 0.36531,0.08415 0.54331,0.145079 0.24254,0.08254 0.4707,0.199042 0.70004,0.311792 0.1973,0.09866 0.39135,0.203696 0.58326,0.3124 -2.32118,-1.313992 -1.45808,-0.870704 -0.96927,-0.542063 0.16627,0.113376 0.33076,0.22924 0.49187,0.349815 0.15025,0.114485 0.2932,0.23799 0.43632,0.36114 0.0198,0.01714 0.0395,0.03425 0.0592,0.05136 0,0 1.45683,0.590808 1.45683,0.590808 v 0 c -0.0208,-0.01775 -0.0415,-0.03554 -0.0623,-0.0533 -0.14492,-0.122864 -0.28662,-0.249611 -0.43482,-0.368469 -0.15642,-0.12574 -0.32059,-0.240794 -0.48476,-0.356117 -0.5422,-0.387286 -1.13002,-0.69991 -1.71603,-1.01971 -0.19045,-0.102817 -0.38256,-0.202574 -0.57734,-0.296969 -0.23415,-0.112317 -0.47019,-0.221672 -0.719,-0.298283 -0.18305,-0.05441 -0.36933,-0.09518 -0.55499,-0.139627 -0.17823,-0.03895 -0.35785,-0.07207 -0.53994,-0.08673 -0.17156,-0.01435 -0.34298,-0.03035 -0.51457,-0.04444 -0.2058,-0.01342 -0.41206,-0.0141 -0.61807,-0.02308 -0.28051,-0.01 -0.56097,-0.0082 -0.84164,-0.008 -0.23572,-0.0044 -0.47156,-0.0083 -0.70696,-0.02187 -0.18205,-0.01101 -0.36405,-0.02322 -0.54634,-0.02958 -0.22129,-0.01031 -0.44262,-0.02606 -0.659769,-0.07285 -0.348525,-0.07497 -0.685853,-0.190172 -1.027804,-0.289761 -0.379542,-0.106565 -0.763145,-0.197479 -1.142749,-0.303815 0,0 1.254167,0.959008 1.254167,0.959008 z" /><path
       style="opacity:1;fill:#552200;stroke:none;stroke-width:0.212739"
       id="path1167"
       d="m 105.38938,70.297364 c 0.36543,0.0097 0.72897,0.05393 1.09211,0.09323 0.40752,0.05018 0.81397,0.110395 1.21549,0.196647 0.34909,0.0775 0.6857,0.200657 1.02125,0.322336 0.31839,0.12311 0.63402,0.253718 0.94617,0.391914 0.55117,0.219067 2.12371,1.14952 -0.0472,-0.09901 0.42108,0.237179 0.80781,0.525506 1.16666,0.847871 0.27127,0.247081 0.50706,0.528406 0.74094,0.810046 0.16883,0.19817 0.31816,0.410792 0.44972,0.635161 0.15043,0.263651 0.26137,0.546823 0.36716,0.830544 0.0764,0.215027 0.15088,0.430545 0.23984,0.640785 0.13399,0.286112 0.2524,0.579261 0.36372,0.874836 0.11964,0.367574 0.24663,0.732569 0.37145,1.098484 0.30039,0.850553 0.53535,1.721583 0.76715,2.592649 0.16588,0.681393 0.37107,1.351491 0.60978,2.010587 0.12207,0.338035 0.30016,0.649575 0.48898,0.953725 0.17985,0.289653 0.3764,0.568258 0.58386,0.838668 0.18409,0.237191 0.3995,0.44751 0.6138,0.65696 0.1836,0.177741 0.36855,0.354063 0.554,0.529852 0.12782,0.129976 0.26831,0.245899 0.41052,0.359529 0.53488,0.409555 1.10308,0.856826 1.75376,1.031952 0.0924,0.03051 0.18864,0.03023 0.28464,0.02888 0.10937,0.0094 0.21788,0.01602 0.32554,-0.0073 0.11885,-0.0276 0.23507,-0.06557 0.34977,-0.106863 0,0 -1.30769,-0.883771 -1.30769,-0.883771 v 0 c -0.10651,0.03694 -0.21498,0.07052 -0.32835,0.07712 -0.1052,-0.0017 -0.21004,-0.0096 -0.31508,-0.01461 -0.0869,-0.0091 -0.17085,-0.03052 -0.25065,-0.06706 -0.49289,-0.25703 -0.0132,-0.0078 1.23866,0.718829 0.0221,0.01286 -0.0455,-0.02362 -0.0679,-0.03623 -0.0808,-0.04572 -0.15503,-0.100317 -0.22867,-0.156703 -0.14005,-0.114032 -0.28627,-0.220964 -0.41561,-0.347599 -0.18808,-0.180301 -0.38476,-0.351616 -0.56935,-0.535664 -0.21578,-0.203095 -0.42778,-0.411326 -0.62023,-0.636944 -0.21645,-0.263387 -0.4177,-0.5389 -0.60059,-0.826752 -0.18875,-0.301339 -0.37216,-0.607265 -0.51424,-0.933993 -0.27695,-0.661145 -0.50966,-1.339506 -0.69447,-2.032377 -0.23236,-0.856399 -0.43155,-1.722223 -0.69724,-2.569078 -0.11684,-0.361504 -0.2145,-0.728718 -0.33693,-1.088189 -0.10797,-0.295235 -0.22993,-0.584774 -0.3474,-0.876312 -0.0924,-0.209404 -0.17502,-0.422397 -0.25218,-0.637939 -0.10807,-0.287604 -0.21978,-0.574345 -0.3541,-0.8509 -0.12708,-0.235913 -0.26955,-0.462615 -0.44667,-0.664962 -0.24007,-0.285808 -0.47613,-0.576055 -0.74613,-0.834745 -0.36159,-0.335364 -0.74757,-0.642549 -1.17755,-0.887233 -0.84474,-0.487293 -1.67656,-1.012794 -2.57431,-1.401566 -0.3147,-0.134428 -0.63041,-0.267105 -0.95233,-0.383456 -0.33774,-0.118465 -0.67797,-0.233538 -1.03025,-0.301133 -0.40316,-0.07524 -0.80907,-0.136312 -1.21686,-0.180507 -0.37641,-0.04138 -0.75308,-0.07995 -1.13017,-0.11429 0,0 1.26714,0.934601 1.26714,0.934601 z" /><path
       style="opacity:1;fill:#a05a2c;stroke:none;stroke-width:0.212739"
       d="m 119.98482,71.485991 c 1.46015,1.42256 4.02935,-0.269739 5.62751,0.531811 1.14231,0.572927 1.95282,4.170068 2.45712,5.066596 0.44889,0.798013 1.22887,1.388428 1.88016,1.995244 3.02163,2.815287 6.0111,7.782251 6.08861,12.016696 0.019,1.032325 0.66308,3.787731 -0.34895,4.546747 -1.04299,0.782235 -2.78615,-0.279671 -3.41983,-0.913457 -2.1392,-2.139512 -2.51292,-5.08375 -3.64103,-7.734541 -0.37478,-0.880636 -1.84644,-1.920598 -2.46977,-2.675701 -1.48265,-1.79613 -2.78883,-3.698757 -3.73854,-5.82733 -0.88164,-1.976018 -2.24217,-3.92171 -2.95228,-5.968523 -0.40997,-1.181631 0.51071,-1.713544 0.517,-1.037542 z"
       id="path4703" /><path
       style="opacity:1;fill:#784421;stroke:none;stroke-width:0.212739"
       d="m 126.85507,82.979738 c 0.28149,0.190825 0.57822,0.360879 0.84445,0.572473 0.39943,0.317472 0.18999,4.655766 -0.26685,5.308397 -0.37473,0.535321 -1.35284,0.847453 -1.53565,1.511977 -0.35819,1.302089 -0.009,3.909861 0.32432,5.294796 0.63186,2.632733 6.81866,10.190159 10.4805,8.664409 1.64649,-0.68603 1.65598,-2.17757 2.73759,-3.25916 0.93433,-0.93431 3.22555,-2.433936 3.46802,-3.818516 0.0648,-0.370505 -1.44548,0.82001 -1.55463,0.87222 -0.74548,0.35654 -1.93316,0.53369 -2.74036,0.53369 -2.45572,0 -5.10968,-4.346175 -5.58541,-6.458932 -0.15665,-0.695719 1.3332,-0.897547 1.27512,-1.05716 -0.50287,-1.382258 -2.78961,-2.339085 -3.64355,-3.540923 -1.11932,-1.575345 -0.76676,-6.272082 -3.80355,-4.623271 z"
       id="path4701" /><path
       style="opacity:1;fill:#d38d5f;stroke:none;stroke-width:0.212739"
       d="m 115.71006,73.752273 c -0.0444,-0.145547 -0.0849,-0.292433 -0.13352,-0.43664 -0.13098,-0.388095 -0.0117,0.827346 0.0821,1.22606 0.22301,0.947823 0.56468,1.541233 0.9876,2.387056 1.07499,2.149995 2.54461,3.449399 4.13179,5.221143 0.2818,0.314581 0.53646,0.949251 0.8724,1.149518 1.23917,0.738736 2.30047,1.321123 3.28259,2.438719 0.4189,0.476684 -0.24299,4.172058 1.48674,3.154543 2.99657,-1.762727 -0.96814,-10.155173 -2.10402,-12.336766 -1.06743,-2.050148 -1.30729,-5.285888 -4.33094,-5.069915 -0.9189,0.06564 -1.7937,0.498664 -2.71984,0.554233 -2.11953,0.127169 -2.61326,-0.322378 -1.55491,1.712049 z"
       id="path4504" /><path
       style="opacity:1;fill:#ffb380;stroke:none;stroke-width:0.212739"
       d="m 130.76638,73.231753 c 1.35673,1.86 1.48054,4.591602 1.8237,6.86512 0.0367,0.243075 1.06895,3.918775 0.47302,3.832223 -1.97133,-0.286314 -3.46507,-2.720394 -4.47009,-4.113624 -0.26895,-0.372835 -4.91408,-7.021913 -4.59136,-7.702305 0.65028,-1.370961 7.81586,-0.530188 6.76473,1.118586 z"
       id="path4768" /><path
       style="opacity:1;fill:#d45500;stroke:none;stroke-width:0.212739"
       id="path2625"
       d="m 122.11048,73.881767 c 0.27591,0.463629 0.52658,0.941753 0.77577,1.420092 0.30243,0.615994 0.66869,1.196209 1.02603,1.780983 0.38766,0.643306 0.7682,1.290882 1.13075,1.948683 0.36703,0.686548 0.72949,1.375859 1.07489,2.073581 0.29014,0.606673 0.52964,1.235476 0.73715,1.874632 0.27931,0.922435 0.40178,1.879853 0.45385,2.839186 0.023,0.702319 -1.6e-4,1.406856 -0.15241,2.094239 -0.10148,0.413338 -0.30203,0.776597 -0.58453,1.091166 -0.30062,0.312869 -0.68093,0.498222 -1.08668,0.632985 -0.4772,0.133096 -0.97168,0.130887 -1.46168,0.102039 -0.67489,-0.04026 -1.32083,-0.244037 -1.9515,-0.474258 -0.6425,-0.204228 -2.47438,-1.294751 0.0566,0.154207 -0.0884,-0.05385 -0.17064,-0.116435 -0.25178,-0.180394 0,0 -1.45539,-0.586373 -1.45539,-0.586373 v 0 c 0.0834,0.07133 0.16676,0.142879 0.25809,0.204077 0.84647,0.492593 1.63741,1.00946 2.56372,1.321899 0.64941,0.222693 1.31474,0.429109 2.0055,0.46036 0.50592,0.02049 1.01522,0.0065 1.50313,-0.145178 0.42298,-0.157039 0.82204,-0.35795 1.13304,-0.694731 0.30018,-0.33683 0.50599,-0.726734 0.61069,-1.16823 0.14136,-0.714513 0.14179,-1.439744 0.0984,-2.165565 -0.0191,-0.362579 -0.033,-0.718758 -0.0712,-1.080089 -0.0629,-0.594546 -0.18325,-1.182397 -0.30948,-1.766029 -0.20946,-0.646544 -0.44662,-1.285263 -0.73925,-1.899282 -0.3432,-0.701289 -0.72525,-1.382855 -1.07482,-2.081036 -0.36254,-0.659175 -0.74018,-1.309943 -1.12844,-1.954301 -0.34878,-0.582311 -0.71381,-1.156018 -1.01445,-1.765587 -0.24141,-0.460211 -0.48672,-0.919254 -0.70643,-1.390253 0,0 -1.43961,-0.646823 -1.43961,-0.646823 z" /><path
       style="opacity:1;fill:#a05a2c;stroke:none;stroke-width:0.212739"
       d="m 120.31122,94.250385 c -0.37742,1.021315 0.57821,1.602803 1.07364,2.447959 0.24837,0.42367 1.20341,2.95737 1.86748,3.01389 1.81027,0.15408 4.43008,0.0644 6.00684,1.115676 2.32494,1.54995 3.27969,5.98363 6.72243,4.65946 0.77749,-0.29905 1.63566,-0.88878 2.03218,-1.64217 1.58025,-3.00252 -4.06429,0.94339 -6.04601,-2.0292 -1.3865,-2.079736 -2.45879,-10.264566 -5.15594,-11.00016 -1.43044,-0.390126 -3.15861,-0.524365 -4.63912,-0.841612 -0.8276,-0.177341 -1.66379,-0.961169 -1.67823,-0.842471 -0.1593,1.310028 0.2233,2.592278 0,3.887414 -0.10403,0.603175 -0.45773,2.404366 -0.31755,1.808559 0.0452,-0.192336 0.0896,-0.384896 0.13428,-0.577345"
       id="path4573" /><path
       style="opacity:1;fill:#ffccaa;stroke:none;stroke-width:0.212739"
       d="m 133.53363,79.90443 c 0.68244,0.177904 1.00589,1.013904 1.43456,1.567598 3.45548,4.463273 1.06915,10.171646 2.24823,11.628144 0.45768,0.56536 1.13245,0.885844 1.8577,0.821084 1.16064,-0.103636 2.77167,-1.626665 3.3956,0.06692 0.29502,0.800787 0.1854,1.680044 -0.12315,2.46325 -1.18944,3.019248 -8.63356,4.154254 -8.72746,0.08555 -0.0443,-1.915582 0.96178,-3.433518 1.81665,-5.059923 0.15771,-0.300061 -0.37294,-1.73307 -0.46161,-2.103051 -0.45526,-1.899507 -2.00606,-3.009775 -2.48377,-4.752016 -0.3647,-1.330012 0.65568,-1.900698 0.92371,-3.017478 0.13407,-0.558587 -0.0122,-1.135244 0.11954,-1.700085 z"
       id="path4896" /><path
       style="opacity:1;fill:#ff9955;stroke:none;stroke-width:0.212739"
       id="path2631"
       d="m 131.62726,91.249299 c 0.30717,0.656517 0.60192,1.318562 0.91096,1.974279 0.25389,0.533567 0.48282,1.081077 0.78403,1.590809 0.14306,0.242091 0.31461,0.492 0.47101,0.725966 0.36609,0.534676 0.75902,1.050617 1.21179,1.514731 0.20305,0.1978 0.42383,0.37923 0.66858,0.5237 1.08689,0.64162 1.30252,0.85641 2.25416,1.14399 0.75717,0.16305 1.55009,0.20918 2.32083,0.11702 0.14076,-0.0168 0.27982,-0.0456 0.41972,-0.0684 0.63871,-0.11135 1.22191,-0.39923 1.71381,-0.8205 0.097,-0.0831 0.18534,-0.17561 0.27801,-0.26342 0.34344,-0.3658 0.68166,-0.77002 0.87459,-1.240311 0.0311,-0.07565 0.051,-0.155367 0.0766,-0.233048 0.11451,-0.538206 -0.004,-1.061734 -0.20162,-1.562892 -0.1931,-0.45201 -0.51774,-0.811141 -0.87777,-1.135975 -0.53578,-0.462953 -1.14289,-0.742444 -1.78742,-1.088463 -0.0188,-0.0101 -0.28848,-0.059 -0.30067,-0.06128 -0.20864,-0.0362 -0.4185,-0.06506 -0.62897,-0.08824 0,0 1.26291,0.937117 1.26291,0.937117 v 0 c 0.20091,0.01826 0.40144,0.04377 0.59824,0.08931 0.56927,0.153517 1.13955,0.592513 -0.94138,-0.622515 -0.0356,-0.02077 0.072,0.0401 0.10679,0.06223 0.10803,0.06878 0.16492,0.115903 0.26985,0.195665 0.36865,0.303918 0.70677,0.640884 0.91812,1.076841 0.20764,0.463552 0.34098,0.953512 0.24353,1.463849 -0.16493,0.545644 -0.47949,1.020364 -0.87709,1.427562 -0.0898,0.0836 -0.17512,0.17215 -0.26918,0.25085 -0.48005,0.40166 -1.04926,0.65414 -1.66339,0.76625 -0.90134,0.13783 -1.8215,0.14716 -2.70516,-0.1092 -0.12447,-0.0437 -0.2512,-0.0814 -0.37341,-0.13107 -0.397,-0.16142 -1.36793,-0.73683 0.69322,0.44139 0.0861,0.0491 -0.17056,-0.10116 -0.25285,-0.15638 -0.0752,-0.0504 -0.14833,-0.10403 -0.21919,-0.16037 -0.0697,-0.0555 -0.13488,-0.11655 -0.20232,-0.17481 -0.47205,-0.45584 -0.8806,-0.970543 -1.26078,-1.504723 -0.19615,-0.282877 -0.29595,-0.417672 -0.47548,-0.713976 -0.30864,-0.509327 -0.55409,-1.05281 -0.80952,-1.589681 -0.28517,-0.631918 -0.57329,-1.264709 -0.80188,-1.919794 0,0 -1.42865,-0.656498 -1.42865,-0.656498 z" /><path
       style="opacity:1;fill:#aa4400;stroke:none;stroke-width:0.212739"
       id="path2633"
       d="m 124.64624,71.970422 c 0.22529,0.469316 0.4279,0.949017 0.63619,1.425993 0.40452,0.882989 0.79981,1.770086 1.1976,2.65612 0.30017,0.675318 0.66649,1.317185 1.0509,1.947232 0.37485,0.607891 0.74243,1.220426 1.14486,1.810629 0.34942,0.498772 0.7538,0.954794 1.15104,1.415159 0.43971,0.523561 0.86174,1.061513 1.2975,1.588319 0.49375,0.573134 0.93481,1.18751 1.36605,1.808122 0.32708,0.469242 0.64929,0.941899 0.95741,1.423828 0.22932,0.363156 0.43334,0.741202 0.61563,1.129887 0.20727,0.43664 0.35709,0.896535 0.50235,1.356507 0.13512,0.433548 0.24611,0.873887 0.3256,1.320922 0.0596,0.37813 0.0815,0.760325 0.0896,1.142565 0.0257,0.371253 -0.0193,0.735793 -0.0868,1.100113 -0.0875,0.466966 -0.24093,0.915736 -0.43405,1.348544 -0.10456,0.227736 -0.23464,0.442441 -0.39684,0.633443 -0.14342,0.169273 -0.27666,0.346594 -0.40531,0.527248 -0.0788,0.112197 -0.0407,0.05845 -0.11419,0.161306 0,0 1.35327,0.794281 1.35327,0.794281 v 0 c 0.0673,-0.104837 0.0318,-0.05061 0.10626,-0.162523 0.12545,-0.179826 0.26169,-0.350742 0.40835,-0.513825 0.16084,-0.209925 0.27922,-0.446438 0.38547,-0.688008 0.18972,-0.446558 0.34198,-0.907251 0.44141,-1.382798 0.0744,-0.368725 0.16128,-0.739716 0.12694,-1.118597 -0.0198,-0.390793 -0.0448,-0.781935 -0.0997,-1.169595 -0.0701,-0.455908 -0.18806,-0.900739 -0.32101,-1.342238 -0.14337,-0.463543 -0.29398,-0.925884 -0.48759,-1.371337 -0.1791,-0.395958 -0.37845,-0.781473 -0.60958,-1.150021 -0.3157,-0.496111 -0.66317,-0.970718 -1.00259,-1.450678 -0.43361,-0.614252 -0.8481,-1.244495 -1.34403,-1.811597 -0.43512,-0.526302 -0.86258,-1.058783 -1.29359,-1.588441 -0.38595,-0.466159 -0.79865,-0.910798 -1.15475,-1.40111 -0.4125,-0.585384 -0.79205,-1.19273 -1.16015,-1.806869 -0.37956,-0.638907 -0.76834,-1.273844 -1.0874,-1.946139 -0.41333,-0.866508 -0.79411,-1.746756 -1.15994,-2.634298 -0.19549,-0.463547 -0.393,-0.926438 -0.57308,-1.396265 0,0 -1.42591,-0.655879 -1.42591,-0.655879 z" /><path
       style="opacity:1;fill:#ffccaa;stroke:none;stroke-width:0.212739"
       id="path2635"
       d="m 130.28152,72.670029 c 0.0702,0.288758 0.13258,0.579132 0.20689,0.866967 0.10852,0.388284 0.22336,0.774701 0.3327,1.162758 0.11502,0.426246 0.22463,0.853925 0.33406,1.281641 0.16079,0.576025 0.34394,1.145611 0.5325,1.713065 0.17346,0.514444 0.33629,1.03227 0.47684,1.556689 0.11026,0.423844 0.20391,0.851837 0.2971,1.279702 0.0541,0.239553 0.0881,0.482533 0.10285,0.7275 0.01,0.237535 0.0108,0.475415 0.013,0.713137 8.9e-4,0.14192 -5.7e-4,0.283836 -2.8e-4,0.425755 -8.5e-4,0.06106 -8.9e-4,0.122236 -0.004,0.183259 8.4e-4,0.02595 -0.005,0.04861 -0.01,0.07583 -5.6e-4,0.0045 -8.4e-4,0.0091 -8.9e-4,0.01376 0,0 1.40641,0.743289 1.40641,0.743289 v 0 c 8.9e-4,-0.0061 0.002,-0.01242 0.004,-0.01861 0.002,-0.02877 0.0109,-0.05439 0.0133,-0.08298 0.005,-0.06608 -8.9e-4,-0.132181 -8.3e-4,-0.198406 -0.002,-0.145044 -0.009,-0.289926 -0.013,-0.434893 -0.007,-0.239238 -0.0106,-0.478429 -0.0118,-0.71777 -0.0107,-0.257093 -0.0407,-0.511199 -0.10864,-0.760336 -0.10243,-0.432789 -0.20741,-0.865003 -0.31728,-1.295964 -0.14244,-0.529652 -0.29515,-1.056112 -0.4856,-1.570921 -0.18778,-0.558214 -0.373,-1.117841 -0.50988,-1.691229 -0.11494,-0.427795 -0.22091,-0.85793 -0.33769,-1.285242 -0.10254,-0.385308 -0.20981,-0.769306 -0.31683,-1.15338 -0.0749,-0.280453 -0.14541,-0.562401 -0.18306,-0.850737 0,0 -1.41978,-0.682914 -1.41978,-0.682914 z" /><path
       style="opacity:1;fill:#000000;stroke:none;stroke-width:0.212739"
       id="path2637"
       d="m 86.482063,59.19551 c 0.558593,0.637335 1.097031,1.29224 1.626209,1.95412 0.38693,0.479027 0.756891,0.970464 1.083505,1.492625 0.185446,0.313839 0.389079,0.616267 0.591543,0.919221 0.190061,0.272114 0.370969,0.55029 0.54769,0.831191 0.219492,0.338443 0.393627,0.701814 0.557984,1.069259 0.161544,0.370797 0.321523,0.742263 0.483375,1.112922 0.147435,0.333495 0.277753,0.673913 0.423765,1.008009 0.181695,0.376152 0.377046,0.74547 0.575591,1.112932 0.167856,0.311889 0.3401,0.621353 0.501681,0.936565 0.127991,0.267291 0.256728,0.533383 0.408669,0.787985 0.139876,0.228343 0.282727,0.454833 0.421114,0.684093 0.102742,0.172414 0.208831,0.342417 0.327881,0.504071 0.111769,0.159735 0.24717,0.298245 0.391412,0.428333 0.612788,0.436998 1.264496,0.832826 1.952219,1.140553 0.02102,0.0082 0.04213,0.01635 0.06316,0.02451 0,0 -1.237147,-0.977512 -1.237147,-0.977512 v 0 c -0.01835,-0.0086 -0.03671,-0.01734 -0.05507,-0.02598 -0.468738,-0.236186 -1.076177,-0.617779 1.07377,0.630413 0.07874,0.04573 -0.158451,-0.08995 -0.236447,-0.137003 -0.0375,-0.02263 -0.07474,-0.0457 -0.112078,-0.06854 -0.146425,-0.11737 -0.286126,-0.244942 -0.399308,-0.395539 -0.124646,-0.157175 -0.23831,-0.321364 -0.342474,-0.492922 -0.142083,-0.228483 -0.28085,-0.45902 -0.426149,-0.685508 -0.155183,-0.251927 -0.297574,-0.510373 -0.420569,-0.779804 -0.157877,-0.320791 -0.336143,-0.630758 -0.507602,-0.944396 -0.197593,-0.364624 -0.40028,-0.726963 -0.578729,-1.101497 -0.151089,-0.331347 -0.273232,-0.673742 -0.421632,-1.006098 -0.16495,-0.372336 -0.335192,-0.742377 -0.492465,-1.118076 -0.164164,-0.367702 -0.32218,-0.7406 -0.537188,-1.082401 -0.172605,-0.284393 -0.352023,-0.564769 -0.544116,-0.836473 -0.207601,-0.304057 -0.41553,-0.608074 -0.609085,-0.921369 -0.341834,-0.541433 -0.731935,-1.047546 -1.143573,-1.53786 -0.515468,-0.633049 -1.030576,-1.266839 -1.529581,-1.912938 0,0 -1.436327,-0.612883 -1.436327,-0.612883 z" /><path
       style="opacity:1;fill:#000000;stroke:none;stroke-width:0.212739"
       id="path2641"
       d="m 111.46295,100.14655 c 0.24389,0.22234 0.49568,0.43469 0.77079,0.61726 0.70458,0.42303 1.39912,0.88495 2.18382,1.1442 0.38399,0.1184 0.78786,0.15004 1.18497,0.19755 0.61347,0.0765 1.23016,0.11642 1.84731,0.14703 0.59543,0.0192 1.19085,0.018 1.78538,-0.0204 0.55693,-0.051 1.11387,-0.10147 1.66797,-0.17783 0.6884,-0.10674 1.34161,-0.35961 1.97527,-0.64031 0.51378,-0.24044 1.0077,-0.51938 1.46543,-0.85442 0.22495,-0.17505 0.42377,-0.37955 0.60578,-0.598106 0.0665,-0.0805 0.13171,-0.16216 0.19675,-0.2439 0,0 -1.36253,-0.80776 -1.36253,-0.80776 v 0 c -0.0577,0.0834 -0.11553,0.16694 -0.17669,0.24796 -0.16751,0.21194 -0.35251,0.41029 -0.56326,0.58017 -0.43319,0.337636 -0.90302,0.624976 -1.40368,0.852256 -0.63386,0.27395 -1.28683,0.51145 -1.97788,0.58771 -0.5507,0.0722 -1.10292,0.13512 -1.65726,0.17166 -0.59077,0.0322 -1.18274,0.042 -1.77384,0.009 -0.61415,-0.0264 -1.22751,-0.0736 -1.83694,-0.15559 -0.40475,-0.0594 -0.81479,-0.11111 -1.20182,-0.25024 -0.57644,-0.21721 -1.81986,-0.90845 0.48193,0.36994 -0.27609,-0.16235 -0.52918,-0.35743 -0.75864,-0.58141 0,0 -1.45286,-0.59474 -1.45286,-0.59474 z" /><path
       style="opacity:1;fill:#c83737;stroke:none;stroke-width:0.212739"
       d="m 98.895008,72.586321 c -1.72039,-3.551132 5.021072,-2.025453 7.189352,-2.21399 6.95711,-0.604938 7.08639,8.602683 10.63733,13.041364 0.3716,0.464497 6.14349,6.784161 3.09631,7.317439 -0.81872,0.143279 -1.17627,-2.275893 -1.94609,-2.93023 -0.80245,-0.682089 -3.53217,-2.650021 -4.19908,-2.852409 -0.41644,-0.126378 -1.408,0.578127 -1.85429,0.240335 -0.85657,-0.648327 1.70935,-1.46838 2.04905,-2.487516 0.36719,-1.101591 -0.62416,-5.7842 -1.51615,-6.336009 -3.75497,-2.32295 -9.77714,-3.861542 -13.456432,-3.778984"
       id="path4222" /><path
       style="opacity:1;fill:#aa4400;stroke:none;stroke-width:0.212739"
       d="m 106.35578,84.277779 c 9.11423,0.647808 9.71684,-1.483434 13.86044,6.402975 0.7208,1.371887 -4.27939,6.089611 -5.14175,7.12444 -0.72602,0.87122 -4.32095,1.19136 -3.18686,1.19136 0.90535,0 -0.61114,-1.70501 -0.88037,-2.569402 -0.64514,-2.071281 -1.39888,-4.183905 -2.18536,-6.201405 -0.74909,-1.921589 -2.42641,-3.919576 -2.4661,-5.947968 z"
       id="path3783" /><path
       style="opacity:1;fill:#a02c2c;stroke:none;stroke-width:0.212739"
       d="m 85.905399,57.929237 9.240216,14.269171 c 0,0 2.01614,-2.783986 18.679475,-0.722701 16.66332,2.061289 17.27782,1.071314 17.27782,1.071314 l 8.75428,-14.94428 z"
       id="path4902"
       sodipodi:nodetypes="ccsccc" /><path
       style="opacity:1;fill:#501616;stroke:none;stroke-width:0.212739"
       id="path4910"
       d="m 119.34134,88.464778 c 0.0476,0.185984 0.0763,0.376003 0.11156,0.564529 0.0428,0.194052 0.0722,0.390471 0.10659,0.586063 0.056,0.250207 0.0758,0.505962 0.10223,0.760376 0.0292,0.22172 0.0373,0.44511 0.0533,0.667889 0.0212,0.208829 0.0466,0.41717 0.0638,0.626381 0.009,0.190394 0.0322,0.379687 0.0447,0.569788 0.005,0.08368 0.004,0.167507 0.0106,0.251141 0.006,0.07884 0.01,0.157334 0.005,0.236353 2.9e-4,0.0607 -0.0285,0.102688 -0.0576,0.154984 -0.11641,0.195974 -0.27893,0.356378 -0.44135,0.513767 -0.1612,0.164133 -0.338,0.312546 -0.49303,0.482507 -0.17371,0.18328 -0.34785,0.366423 -0.52907,0.542324 -0.17749,0.176379 -0.37298,0.33289 -0.56018,0.498598 -0.069,0.05357 -0.13066,0.117854 -0.20339,0.166525 -0.0151,0.0071 -0.0281,0.01537 -0.04,0.02738 0,0 1.35161,0.839999 1.35161,0.839999 v 0 c 0.0148,-0.0099 0.0273,-0.02341 0.0392,-0.03677 0.05,-0.06674 0.10308,-0.131064 0.16096,-0.191137 0.17248,-0.177602 0.34887,-0.351459 0.53675,-0.512921 0.18651,-0.174464 0.36579,-0.355765 0.54087,-0.541689 0.16562,-0.158721 0.33102,-0.317662 0.49436,-0.478722 0.16516,-0.1678 0.32092,-0.344308 0.47809,-0.519527 0.0636,-0.06809 0.1233,-0.128305 0.12228,-0.226949 5.6e-4,-0.08159 0.004,-0.163023 8.9e-4,-0.244542 -2.7e-4,-0.09237 -0.0192,-0.182476 -0.0322,-0.273661 -0.0261,-0.192191 -0.0459,-0.385286 -0.0685,-0.577905 -0.0157,-0.20723 -0.0224,-0.415069 -0.0453,-0.621745 -0.0317,-0.225131 -0.0519,-0.451224 -0.0738,-0.677472 -0.026,-0.254793 -0.0569,-0.509075 -0.0864,-0.763481 -0.0314,-0.195435 -0.0603,-0.391398 -0.0959,-0.586064 -0.0379,-0.178632 -0.0853,-0.357569 -0.0904,-0.540938 0,0 -1.40585,-0.695083 -1.40585,-0.695083 z" /><circle
       id="path5043"
       style="fill:#ffd5d5;stroke:#000000;stroke-width:0.281435"
       cx="64.05732"
       cy="184.03224"
       r="0.010016002" /><path
       id="path6689"
       style="opacity:1;fill:#a02c2c;stroke:none;stroke-width:0.096031"
       d="m 87.520189,113.9573 a 1.2511426,1.3091492 1.4425646 0 0 -0.901161,-1.59108 1.2511426,1.3091492 1.4425646 0 0 -0.08597,-0.0195 1.2511426,1.3091492 1.4425646 0 0 -0.939574,-1.25913 1.2511426,1.3091492 1.4425646 0 0 -1.522832,0.94671 1.2511426,1.3091492 1.4425646 0 0 0.03706,0.77453 l -0.0315,-0.0365 -0.684784,-0.18205 -0.154519,-0.14353 -0.185307,0.75679 0.208167,-0.0334 0.696857,0.18524 a 1.2511426,1.3091492 1.4425646 0 0 -0.366115,0.63929 1.2511426,1.3091492 1.4425646 0 0 0.901454,1.59091 1.2511426,1.3091492 1.4425646 0 0 1.437657,-0.70285 1.2511426,1.3091492 1.4425646 0 0 0.06805,0.0209 1.2511426,1.3091492 1.4425646 0 0 1.52254,-0.94653 z" /><path
       id="path6691"
       style="opacity:1;fill:#a02c2c;stroke:none;stroke-width:0.096031"
       d="m 84.882827,120.38773 a 1.2511426,1.3091492 17.438404 0 0 -0.427819,-1.77781 1.2511426,1.3091492 17.438404 0 0 -0.07728,-0.0424 1.2511426,1.3091492 17.438404 0 0 -0.556217,-1.46931 1.2511426,1.3091492 17.438404 0 0 -1.724757,0.49042 1.2511426,1.3091492 17.438404 0 0 -0.1778,0.75475 l -0.02022,-0.0437 -0.608104,-0.3637 -0.108985,-0.18054 -0.386678,0.67641 0.209311,0.0252 0.618834,0.37009 a 1.2511426,1.3091492 17.438404 0 0 -0.528109,0.51364 1.2511426,1.3091492 17.438404 0 0 0.428148,1.77773 1.2511426,1.3091492 17.438404 0 0 1.575675,-0.27946 1.2511426,1.3091492 17.438404 0 0 0.05964,0.0389 1.2511426,1.3091492 17.438404 0 0 1.724422,-0.49032 z" /><path
       id="path6693"
       style="opacity:1;fill:#a02c2c;stroke:none;stroke-width:0.096031"
       d="m 80.693732,125.83586 a 1.2511426,1.3091492 32.962223 0 0 0.0636,-1.82746 1.2511426,1.3091492 32.962223 0 0 -0.0631,-0.0616 1.2511426,1.3091492 32.962223 0 0 -0.142685,-1.56457 1.2511426,1.3091492 32.962223 0 0 -1.79309,0.0109 1.2511426,1.3091492 32.962223 0 0 -0.373316,0.67963 l -0.0078,-0.0476 -0.488576,-0.5132 -0.0567,-0.20312 -0.553607,0.54825 0.194929,0.0803 0.497207,0.52221 a 1.2511426,1.3091492 32.962223 0 0 -0.646315,0.35358 1.2511426,1.3091492 32.962223 0 0 -0.06325,1.82746 1.2511426,1.3091492 32.962223 0 0 1.592988,0.15244 1.2511426,1.3091492 32.962223 0 0 0.04705,0.0535 1.2511426,1.3091492 32.962223 0 0 1.792743,-0.0109 z" /><path
       id="path6695"
       style="opacity:1;fill:#a02c2c;stroke:none;stroke-width:0.096031"
       d="m 75.194364,129.99015 a 1.2511426,1.3091492 48.091933 0 0 0.538371,-1.74753 1.2511426,1.3091492 48.091933 0 0 -0.04483,-0.076 1.2511426,1.3091492 48.091933 0 0 0.27062,-1.54757 1.2511426,1.3091492 48.091933 0 0 -1.733769,-0.45753 1.2511426,1.3091492 48.091933 0 0 -0.537765,0.55863 l 0.0049,-0.0479 -0.337696,-0.62292 -0.0017,-0.21089 -0.677512,0.38476 0.16721,0.1284 0.343674,0.63388 a 1.2511426,1.3091492 48.091933 0 0 -0.716196,0.17262 1.2511426,1.3091492 48.091933 0 0 -0.538042,1.74761 1.2511426,1.3091492 48.091933 0 0 1.497983,0.56292 1.2511426,1.3091492 48.091933 0 0 0.03145,0.064 1.2511426,1.3091492 48.091933 0 0 1.733433,0.45744 z" /><path
       id="path6697"
       style="opacity:1;fill:#a02c2c;stroke:none;stroke-width:0.096031"
       d="m 68.987388,132.5604 a 1.2511426,1.3091492 62.547187 0 0 0.957551,-1.55781 1.2511426,1.3091492 62.547187 0 0 -0.02446,-0.0847 1.2511426,1.3091492 62.547187 0 0 0.648365,-1.43103 1.2511426,1.3091492 62.547187 0 0 -1.564674,-0.87584 1.2511426,1.3091492 62.547187 0 0 -0.660186,0.40671 l 0.01672,-0.0453 -0.171511,-0.68749 0.051,-0.20463 -0.752109,0.20345 0.129866,0.16607 0.17456,0.6996 a 1.2511426,1.3091492 62.547187 0 0 -0.736611,-0.0116 1.2511426,1.3091492 62.547187 0 0 -0.957256,1.55798 1.2511426,1.3091492 62.547187 0 0 1.310041,0.91904 1.2511426,1.3091492 62.547187 0 0 0.01449,0.0697 1.2511426,1.3091492 62.547187 0 0 1.56437,0.87565 z" /><path
       id="path6701"
       style="opacity:1;fill:#a02c2c;stroke:none;stroke-width:0.096031"
       d="m 86.306025,142.33542 a 1.2511426,1.3091492 49.652047 0 0 -0.58575,1.73221 1.2511426,1.3091492 49.652047 0 0 0.04275,0.0771 1.2511426,1.3091492 49.652047 0 0 -0.312653,1.53963 1.2511426,1.3091492 49.652047 0 0 1.720668,0.50457 1.2511426,1.3091492 49.652047 0 0 0.552775,-0.5438 l -0.0061,0.0478 0.320613,0.63189 -0.004,0.21085 0.687737,-0.36616 -0.163652,-0.13291 -0.326288,-0.643 a 1.2511426,1.3091492 49.652047 0 0 0.720629,-0.15307 1.2511426,1.3091492 49.652047 0 0 0.585424,-1.73231 1.2511426,1.3091492 49.652047 0 0 -1.482102,-0.6035 1.2511426,1.3091492 49.652047 0 0 -0.0297,-0.0648 1.2511426,1.3091492 49.652047 0 0 -1.720336,-0.50447 z" /><path
       id="path6703"
       style="opacity:1;fill:#a02c2c;stroke:none;stroke-width:0.096031"
       d="m 92.498362,139.64147 a 1.2511426,1.3091492 60.936216 0 0 -0.913376,1.58411 1.2511426,1.3091492 60.936216 0 0 0.02684,0.084 1.2511426,1.3091492 60.936216 0 0 -0.607877,1.4487 1.2511426,1.3091492 60.936216 0 0 1.588677,0.8315 1.2511426,1.3091492 60.936216 0 0 0.648495,-0.42511 l -0.01539,0.0456 0.19077,0.68241 -0.04522,0.20598 0.746089,-0.2245 -0.134483,-0.16236 -0.194159,-0.69442 a 1.2511426,1.3091492 60.936216 0 0 0.736649,-0.01 1.2511426,1.3091492 60.936216 0 0 0.913074,-1.58428 1.2511426,1.3091492 60.936216 0 0 -1.335358,-0.88184 1.2511426,1.3091492 60.936216 0 0 -0.01644,-0.0694 1.2511426,1.3091492 60.936216 0 0 -1.588368,-0.83133 z" /><path
       id="path6705"
       style="opacity:1;fill:#a02c2c;stroke:none;stroke-width:0.096031"
       d="m 99.323293,138.878 a 1.2511426,1.3091492 76.335985 0 0 -1.301245,1.28468 1.2511426,1.3091492 76.335985 0 0 0.0036,0.0882 1.2511426,1.3091492 76.335985 0 0 -0.970749,1.23525 1.2511426,1.3091492 76.335985 0 0 1.31083,1.22353 1.2511426,1.3091492 76.335985 0 0 0.738096,-0.23765 l -0.02699,0.0399 0.0027,0.70856 -0.0983,0.18658 0.778921,-0.0183 -0.08658,-0.19224 -0.0027,-0.72105 a 1.2511426,1.3091492 76.335985 0 0 0.712744,0.18639 1.2511426,1.3091492 76.335985 0 0 1.301,-1.28491 1.2511426,1.3091492 76.335985 0 0 -1.05323,-1.20479 1.2511426,1.3091492 76.335985 0 0 0.003,-0.0713 1.2511426,1.3091492 76.335985 0 0 -1.310579,-1.22328 z" /><path
       id="path6707"
       style="opacity:1;fill:#a02c2c;stroke:none;stroke-width:0.096031"
       d="m 80.764448,146.47159 a 1.2511426,1.3091492 34.685488 0 0 -0.118525,1.82474 1.2511426,1.3091492 34.685488 0 0 0.06121,0.0635 1.2511426,1.3091492 34.685488 0 0 0.09557,1.56815 1.2511426,1.3091492 34.685488 0 0 1.792604,0.0431 1.2511426,1.3091492 34.685488 0 0 0.393586,-0.6681 l 0.0064,0.0478 0.472922,0.52765 0.05054,0.20472 0.569844,-0.53133 -0.192423,-0.0861 -0.481279,-0.53693 a 1.2511426,1.3091492 34.685488 0 0 0.656654,-0.33397 1.2511426,1.3091492 34.685488 0 0 0.118185,-1.82474 1.2511426,1.3091492 34.685488 0 0 -1.587683,-0.20027 1.2511426,1.3091492 34.685488 0 0 -0.04542,-0.0549 1.2511426,1.3091492 34.685488 0 0 -1.792256,-0.0431 z" /><path
       id="path6709"
       style="opacity:1;fill:#a02c2c;stroke:none;stroke-width:0.096031"
       d="m 76.560632,151.9693 a 1.2511426,1.3091492 16.582043 0 0 0.454347,1.77123 1.2511426,1.3091492 16.582043 0 0 0.07792,0.0413 1.2511426,1.3091492 16.582043 0 0 0.578118,1.46082 1.2511426,1.3091492 16.582043 0 0 1.717251,-0.51608 1.2511426,1.3091492 16.582043 0 0 0.166503,-0.75731 l 0.02092,0.0434 0.613472,0.35458 0.111659,0.17888 0.376529,-0.6821 -0.20967,-0.0221 -0.624297,-0.3608 a 1.2511426,1.3091492 16.582043 0 0 0.52037,-0.52149 1.2511426,1.3091492 16.582043 0 0 -0.454671,-1.77113 1.2511426,1.3091492 16.582043 0 0 -1.571319,0.30299 1.2511426,1.3091492 16.582043 0 0 -0.06023,-0.038 1.2511426,1.3091492 16.582043 0 0 -1.71692,0.51596 z" /><path
       id="path6711"
       style="opacity:1;fill:#a02c2c;stroke:none;stroke-width:0.096031"
       d="m 73.957184,158.25823 a 1.2511426,1.3091492 2.4511698 0 0 0.873022,1.6067 1.2511426,1.3091492 2.4511698 0 0 0.08566,0.0211 1.2511426,1.3091492 2.4511698 0 0 0.917266,1.27548 1.2511426,1.3091492 2.4511698 0 0 1.539296,-0.9197 1.2511426,1.3091492 2.4511698 0 0 -0.02343,-0.77505 l 0.03088,0.0371 0.681474,0.19408 0.151954,0.1462 0.198608,-0.75338 -0.208728,0.0298 -0.693492,-0.19748 a 1.2511426,1.3091492 2.4511698 0 0 0.377309,-0.63274 1.2511426,1.3091492 2.4511698 0 0 -0.873312,-1.60654 1.2511426,1.3091492 2.4511698 0 0 -1.449799,0.67744 1.2511426,1.3091492 2.4511698 0 0 -0.06771,-0.0223 1.2511426,1.3091492 2.4511698 0 0 -1.539001,0.91952 z" /><path
       id="path6713"
       style="opacity:1;fill:#a02c2c;stroke:none;stroke-width:0.096031"
       d="m 73.034862,165.04668 a 1.3091492,1.2511426 80.260767 0 0 1.192611,1.38612 1.3091492,1.2511426 80.260767 0 0 0.08818,0.002 1.3091492,1.2511426 80.260767 0 0 1.165914,1.05303 1.3091492,1.2511426 80.260767 0 0 1.310381,-1.224 1.3091492,1.2511426 80.260767 0 0 -0.186555,-0.75263 l 0.03799,0.0297 0.70709,0.0459 0.179401,0.11081 0.03505,-0.77832 -0.197733,0.0732 -0.719553,-0.0466 a 1.3091492,1.2511426 80.260767 0 0 0.23519,-0.69815 1.3091492,1.2511426 80.260767 0 0 -1.192859,-1.3859 1.3091492,1.2511426 80.260767 0 0 -1.274059,0.9683 1.3091492,1.2511426 80.260767 0 0 -0.07087,-0.007 1.3091492,1.2511426 80.260767 0 0 -1.310134,1.22376 z" /><path
       id="path6715"
       style="opacity:1;fill:#a02c2c;stroke:none;stroke-width:0.096031"
       d="m 73.927028,171.9288 a 1.3091492,1.2511426 63.442567 0 0 1.542657,0.98176 1.3091492,1.2511426 63.442567 0 0 0.08503,-0.0235 1.3091492,1.2511426 63.442567 0 0 1.420726,0.67065 1.3091492,1.2511426 63.442567 0 0 0.900186,-1.55078 1.3091492,1.2511426 63.442567 0 0 -0.396337,-0.66646 l 0.04495,0.0175 0.690109,-0.16072 0.203788,0.0542 -0.191647,-0.75518 -0.168102,0.12726 -0.702253,0.16365 a 1.3091492,1.2511426 63.442567 0 0 0.02313,-0.73635 1.3091492,1.2511426 63.442567 0 0 -1.542829,-0.98148 1.3091492,1.2511426 63.442567 0 0 -0.939399,1.29552 1.3091492,1.2511426 63.442567 0 0 -0.07001,0.0133 1.3091492,1.2511426 63.442567 0 0 -0.900019,1.55049 z" /><path
       id="path6717"
       style="opacity:1;fill:#a02c2c;stroke:none;stroke-width:0.096031"
       d="m 76.781175,178.27707 a 1.3091492,1.2511426 42.318302 0 0 1.792813,0.35982 1.3091492,1.2511426 42.318302 0 0 0.07084,-0.0525 1.3091492,1.2511426 42.318302 0 0 1.566953,0.11353 1.3091492,1.2511426 42.318302 0 0 0.280807,-1.771 1.3091492,1.2511426 42.318302 0 0 -0.609892,-0.47883 l 0.04819,3.3e-4 0.585812,-0.39864 0.209604,-0.0229 -0.45093,-0.63535 -0.110945,0.1793 -0.596084,0.40573 a 1.3091492,1.2511426 42.318302 0 0 -0.243791,-0.69519 1.3091492,1.2511426 42.318302 0 0 -1.792875,-0.35952 1.3091492,1.2511426 42.318302 0 0 -0.409375,1.54702 1.3091492,1.2511426 42.318302 0 0 -0.0605,0.0376 1.3091492,1.2511426 42.318302 0 0 -0.280754,1.77065 z" /><path
       id="path6719"
       style="opacity:1;fill:#a02c2c;stroke:none;stroke-width:0.096031"
       d="m 106.25709,139.82072 a 1.3091492,1.2511426 6.7300288 0 0 -1.66737,0.75071 1.3091492,1.2511426 6.7300288 0 0 -0.0274,0.0838 1.3091492,1.2511426 6.7300288 0 0 -1.34036,0.81956 1.3091492,1.2511426 6.7300288 0 0 0.80229,1.60362 1.3091492,1.2511426 6.7300288 0 0 0.77466,0.0345 l -0.0392,0.028 -0.24442,0.66508 -0.15716,0.14062 0.73648,0.25429 -0.0142,-0.21035 0.24867,-0.67681 a 1.3091492,1.2511426 6.7300288 0 0 0.60312,0.42308 1.3091492,1.2511426 6.7300288 0 0 1.66721,-0.75101 1.3091492,1.2511426 6.7300288 0 0 -0.56738,-1.49631 1.3091492,1.2511426 6.7300288 0 0 0.0273,-0.0659 1.3091492,1.2511426 6.7300288 0 0 -0.80214,-1.60332 z" /><path
       id="path6721"
       style="opacity:1;fill:#a02c2c;stroke:none;stroke-width:0.0489779"
       d="m 84.203369,159.48973 a 0.63810826,0.66769282 4.2453643 0 0 -0.419383,-0.83298 0.63810826,0.66769282 4.2453643 0 0 -0.04333,-0.0122 0.63810826,0.66769282 4.2453643 0 0 -0.447226,-0.66484 0.63810826,0.66769282 4.2453643 0 0 -0.799374,0.44425 0.63810826,0.66769282 4.2453643 0 0 -4.36e-4,0.39547 l -0.01514,-0.0193 -0.344303,-0.10977 -0.07512,-0.0769 -0.11328,0.38087 0.106979,-0.0111 0.350372,0.11173 a 0.63810826,0.66769282 4.2453643 0 0 -0.202446,0.31651 0.63810826,0.66769282 4.2453643 0 0 0.419536,0.83293 0.63810826,0.66769282 4.2453643 0 0 0.749882,-0.32219 0.63810826,0.66769282 4.2453643 0 0 0.03415,0.0123 0.63810826,0.66769282 4.2453643 0 0 0.79922,-0.44417 z" /><path
       id="path6723"
       style="opacity:1;fill:#ffd5d5;stroke:none;stroke-width:0.0489779"
       d="m 84.203369,159.48973 a 0.63810826,0.66769282 4.2453643 0 0 -0.419383,-0.83298 0.63810826,0.66769282 4.2453643 0 0 -0.04333,-0.0122 0.63810826,0.66769282 4.2453643 0 0 -0.447226,-0.66484 0.63810826,0.66769282 4.2453643 0 0 -0.799374,0.44425 0.63810826,0.66769282 4.2453643 0 0 -4.36e-4,0.39547 l -0.01514,-0.0193 -0.344303,-0.10977 -0.07512,-0.0769 -0.11328,0.38087 0.106979,-0.0111 0.350372,0.11173 a 0.63810826,0.66769282 4.2453643 0 0 -0.202446,0.31651 0.63810826,0.66769282 4.2453643 0 0 0.419536,0.83293 0.63810826,0.66769282 4.2453643 0 0 0.749882,-0.32219 0.63810826,0.66769282 4.2453643 0 0 0.03415,0.0123 0.63810826,0.66769282 4.2453643 0 0 0.79922,-0.44417 z" /><path
       id="path6725"
       style="opacity:1;fill:#ffd5d5;stroke:none;stroke-width:0.0489779"
       d="m 83.405395,162.38718 a 0.63810826,0.66769282 0.4259813 0 0 -0.473938,-0.80321 0.63810826,0.66769282 0.4259813 0 0 -0.04405,-0.01 0.63810826,0.66769282 0.4259813 0 0 -0.490518,-0.63358 0.63810826,0.66769282 0.4259813 0 0 -0.768008,0.49651 0.63810826,0.66769282 0.4259813 0 0 0.02591,0.39462 l -0.01639,-0.0183 -0.35085,-0.0866 -0.08007,-0.0717 -0.08766,0.38758 0.105997,-0.0183 0.357035,0.0882 a 0.63810826,0.66769282 0.4259813 0 0 -0.180912,0.32931 0.63810826,0.66769282 0.4259813 0 0 0.474086,0.80312 0.63810826,0.66769282 0.4259813 0 0 0.726756,-0.37142 0.63810826,0.66769282 0.4259813 0 0 0.0349,0.01 0.63810826,0.66769282 0.4259813 0 0 0.767858,-0.49643 z" /><path
       id="path6727"
       style="opacity:1;fill:#ffd5d5;stroke:none;stroke-width:0.0489779"
       d="m 83.220793,165.29901 a 0.66769282,0.63810826 82.647656 0 0 -0.578284,-0.73168 0.66769282,0.63810826 82.647656 0 0 -0.04494,-0.004 0.66769282,0.63810826 82.647656 0 0 -0.571753,-0.56137 0.66769282,0.63810826 82.647656 0 0 -0.693743,0.5959 0.66769282,0.63810826 82.647656 0 0 0.07907,0.38748 l -0.01872,-0.016 -0.359339,-0.0383 -0.08904,-0.0602 -0.0344,0.39587 0.10255,-0.0324 0.365685,0.039 a 0.66769282,0.63810826 82.647656 0 0 -0.13468,0.35076 0.66769282,0.63810826 82.647656 0 0 0.57842,0.73157 0.66769282,0.63810826 82.647656 0 0 0.669801,-0.46637 0.66769282,0.63810826 82.647656 0 0 0.03588,0.004 0.66769282,0.63810826 82.647656 0 0 0.693607,-0.59577 z" /><path
       id="path6729"
       style="opacity:1;fill:#ffd5d5;stroke:none;stroke-width:0.0489779"
       d="m 83.453443,167.99152 a 0.66769282,0.63810826 70.124493 0 0 -0.723177,-0.58887 0.66769282,0.63810826 70.124493 0 0 -0.04457,0.006 0.66769282,0.63810826 70.124493 0 0 -0.679872,-0.42403 0.66769282,0.63810826 70.124493 0 0 -0.548029,0.73214 0.66769282,0.63810826 70.124493 0 0 0.161214,0.36112 l -0.02173,-0.0115 -0.359094,0.0405 -0.09998,-0.0395 0.05226,0.3939 0.09307,-0.0539 0.36545,-0.0412 a 0.66769282,0.63810826 70.124493 0 0 -0.05542,0.37162 0.66769282,0.63810826 70.124493 0 0 0.723285,0.58873 0.66769282,0.63810826 70.124493 0 0 0.552742,-0.60051 0.66769282,0.63810826 70.124493 0 0 0.03595,-0.004 0.66769282,0.63810826 70.124493 0 0 0.54792,-0.732 z" /><path
       id="path6731"
       style="opacity:1;fill:#ffd5d5;stroke:none;stroke-width:0.0489779"
       d="m 84.184083,170.72676 a 0.66769282,0.63810826 60.117539 0 0 -0.814502,-0.45425 0.66769282,0.63810826 60.117539 0 0 -0.04279,0.0139 0.66769282,0.63810826 60.117539 0 0 -0.743212,-0.29944 0.66769282,0.63810826 60.117539 0 0 -0.412469,0.81624 0.66769282,0.63810826 60.117539 0 0 0.221512,0.3276 l -0.02344,-0.009 -0.34659,0.10232 -0.105306,-0.0215 0.119915,0.37884 0.08228,-0.0694 0.352741,-0.10402 a 0.66769282,0.63810826 60.117539 0 0 0.01,0.37559 0.66769282,0.63810826 60.117539 0 0 0.814587,0.4541 0.66769282,0.63810826 60.117539 0 0 0.439981,-0.68743 0.66769282,0.63810826 60.117539 0 0 0.03483,-0.01 0.66769282,0.63810826 60.117539 0 0 0.412389,-0.81605 z" /><path
       id="path6733"
       style="opacity:1;fill:#ffd5d5;stroke:none;stroke-width:0.0489779"
       d="m 85.390321,157.06369 a 0.63810826,0.66769282 17.174854 0 0 -0.222367,-0.90572 0.63810826,0.66769282 17.174854 0 0 -0.03949,-0.0217 0.63810826,0.66769282 17.174854 0 0 -0.287127,-0.74805 0.63810826,0.66769282 17.174854 0 0 -0.878508,0.25411 0.63810826,0.66769282 17.174854 0 0 -0.08892,0.38536 l -0.01042,-0.0223 -0.311012,-0.18403 -0.056,-0.0918 -0.19563,0.34588 0.10678,0.0129 0.316489,0.18731 a 0.63810826,0.66769282 17.174854 0 0 -0.268135,0.26319 0.63810826,0.66769282 17.174854 0 0 0.222529,0.90568 0.63810826,0.66769282 17.174854 0 0 0.802961,-0.14623 0.63810826,0.66769282 17.174854 0 0 0.03053,0.0197 0.63810826,0.66769282 17.174854 0 0 0.878343,-0.25409 z" /><path
       id="path6735"
       style="opacity:1;fill:#ffd5d5;stroke:none;stroke-width:0.0489779"
       d="m 87.004175,154.76461 a 0.63810826,0.66769282 26.656522 0 0 -0.07013,-0.92997 0.63810826,0.66769282 26.656522 0 0 -0.03536,-0.0279 0.63810826,0.66769282 26.656522 0 0 -0.159976,-0.78513 0.63810826,0.66769282 26.656522 0 0 -0.908367,0.10594 0.63810826,0.66769282 26.656522 0 0 -0.15118,0.36545 l -0.0066,-0.0236 -0.276446,-0.23274 -0.04011,-0.0998 -0.249934,0.30892 0.103199,0.0303 0.28131,0.23688 a 0.63810826,0.66769282 26.656522 0 0 -0.307828,0.21543 0.63810826,0.66769282 26.656522 0 0 0.0703,0.92997 0.63810826,0.66769282 26.656522 0 0 0.816082,-0.012 0.63810826,0.66769282 26.656522 0 0 0.02687,0.0245 0.63810826,0.66769282 26.656522 0 0 0.908199,-0.10595 z" /><path
       id="path6737"
       style="opacity:1;fill:#ffd5d5;stroke:none;stroke-width:0.0489779"
       d="m 88.948589,152.70085 a 0.63810826,0.66769282 35.591785 0 0 0.07516,-0.92958 0.63810826,0.66769282 35.591785 0 0 -0.03062,-0.033 0.63810826,0.66769282 35.591785 0 0 -0.03609,-0.80045 0.63810826,0.66769282 35.591785 0 0 -0.913799,-0.0363 0.63810826,0.66769282 35.591785 0 0 -0.206105,0.33753 l -0.0028,-0.0243 -0.236942,-0.27285 -0.02412,-0.10478 -0.294885,0.26636 0.09724,0.046 0.241103,0.2777 a 0.63810826,0.66769282 35.591785 0 0 -0.337552,0.16501 0.63810826,0.66769282 35.591785 0 0 -0.07499,0.92959 0.63810826,0.66769282 35.591785 0 0 0.808044,0.11488 0.63810826,0.66769282 35.591785 0 0 0.02275,0.0283 0.63810826,0.66769282 35.591785 0 0 0.913632,0.0363 z" /><path
       id="path6739"
       style="opacity:1;fill:#ffd5d5;stroke:none;stroke-width:0.0489779"
       d="m 91.340095,151.13295 a 0.63810826,0.66769282 44.368373 0 0 0.216118,-0.90724 0.63810826,0.66769282 44.368373 0 0 -0.02522,-0.0372 0.63810826,0.66769282 44.368373 0 0 0.08647,-0.7966 0.63810826,0.66769282 44.368373 0 0 -0.897548,-0.17537 0.63810826,0.66769282 44.368373 0 0 -0.255193,0.30212 l 8.78e-4,-0.0245 -0.192534,-0.30583 -0.0078,-0.10723 -0.332073,0.21825 0.0891,0.0602 0.195909,0.31122 a 0.63810826,0.66769282 44.368373 0 0 -0.358777,0.11158 0.63810826,0.66769282 44.368373 0 0 -0.215951,0.90727 0.63810826,0.66769282 44.368373 0 0 0.781054,0.23682 0.63810826,0.66769282 44.368373 0 0 0.01816,0.0314 0.63810826,0.66769282 44.368373 0 0 0.897385,0.17535 z" /><path
       id="path6741"
       style="opacity:1;fill:#ffd5d5;stroke:none;stroke-width:0.0489779"
       d="m 93.81471,149.96662 a 0.63810826,0.66769282 56.974323 0 0 0.408908,-0.8382 0.63810826,0.66769282 56.974323 0 0 -0.01649,-0.0418 0.63810826,0.66769282 56.974323 0 0 0.258235,-0.7585 0.63810826,0.66769282 56.974323 0 0 -0.837636,-0.36705 0.63810826,0.66769282 56.974323 0 0 -0.314981,0.23916 l 0.0061,-0.0237 -0.121149,-0.34047 0.01572,-0.10637 -0.371699,0.14052 0.07381,0.0782 0.123264,0.34648 a 0.63810826,0.66769282 56.974323 0 0 -0.374482,0.0306 0.63810826,0.66769282 56.974323 0 0 -0.408752,0.83827 0.63810826,0.66769282 56.974323 0 0 0.710543,0.40158 0.63810826,0.66769282 56.974323 0 0 0.01086,0.0346 0.63810826,0.66769282 56.974323 0 0 0.837483,0.36696 z" /><path
       id="path6743"
       style="opacity:1;fill:#ffd5d5;stroke:none;stroke-width:0.0489779"
       d="m 96.514989,149.18415 a 0.63810826,0.66769282 69.914116 0 0 0.58622,-0.72535 0.63810826,0.66769282 69.914116 0 0 -0.0071,-0.0444 0.63810826,0.66769282 69.914116 0 0 0.421524,-0.68141 0.63810826,0.66769282 69.914116 0 0 -0.734178,-0.54528 0.63810826,0.66769282 69.914116 0 0 -0.360532,0.16254 l 0.01131,-0.0217 -0.04187,-0.35894 0.03919,-0.10009 -0.393731,0.0537 0.05443,0.0928 0.04258,0.36527 a 0.63810826,0.66769282 69.914116 0 0 -0.371828,-0.0541 0.63810826,0.66769282 69.914116 0 0 -0.586082,0.72544 0.63810826,0.66769282 69.914116 0 0 0.602571,0.55049 0.63810826,0.66769282 69.914116 0 0 0.0027,0.0363 0.63810826,0.66769282 69.914116 0 0 0.734044,0.54518 z" /><path
       id="path6745"
       style="opacity:1;fill:#ffd5d5;stroke:none;stroke-width:0.0489779"
       d="m 99.375448,148.97065 a 0.63810826,0.66769282 78.888359 0 0 0.692182,-0.62503 0.63810826,0.66769282 78.888359 0 0 3.3e-4,-0.045 0.63810826,0.66769282 78.888359 0 0 0.52266,-0.60732 0.63810826,0.66769282 78.888359 0 0 -0.640131,-0.65314 0.63810826,0.66769282 78.888359 0 0 -0.381475,0.10436 l 0.01461,-0.0197 0.0147,-0.36108 0.05425,-0.0928 -0.397286,-0.009 0.03928,0.1001 -0.01497,0.36743 a 0.63810826,0.66769282 78.888359 0 0 -0.358849,-0.11137 0.63810826,0.66769282 78.888359 0 0 -0.692071,0.62513 0.63810826,0.66769282 78.888359 0 0 0.509328,0.63775 0.63810826,0.66769282 78.888359 0 0 -0.0027,0.0362 0.63810826,0.66769282 78.888359 0 0 0.640013,0.653 z" /><path
       id="path6747"
       style="opacity:1;fill:#ffd5d5;stroke:none;stroke-width:0.0489779"
       d="m 102.20268,149.04611 a 0.63810826,0.66769282 84.651547 0 0 0.75146,-0.55237 0.63810826,0.66769282 84.651547 0 0 0.004,-0.0447 0.63810826,0.66769282 84.651547 0 0 0.58101,-0.55178 0.63810826,0.66769282 84.651547 0 0 -0.57131,-0.7141 0.63810826,0.66769282 84.651547 0 0 -0.39003,0.0656 l 0.0165,-0.0181 0.0509,-0.35778 0.0633,-0.0868 -0.39442,-0.0484 0.029,0.10349 -0.0517,0.36409 a 0.63810826,0.66769282 84.651547 0 0 -0.34585,-0.14685 0.63810826,0.66769282 84.651547 0 0 -0.75135,0.55247 0.63810826,0.66769282 84.651547 0 0 0.44271,0.68567 0.63810826,0.66769282 84.651547 0 0 -0.006,0.0358 0.63810826,0.66769282 84.651547 0 0 0.57121,0.71397 z" /><path
       style="opacity:1;fill:#a02c2c;stroke:none;stroke-width:0.212739"
       d="m 113.16218,101.12438 c 0,0 -2.22269,30.69292 -12.30649,50.15784 -10.083814,19.46493 -36.570728,32.65988 -36.570728,32.65988 0,0 73.900248,-28.69002 94.818488,-75.5781 1.16812,-2.61832 -15.7536,-9.626636 -20.02561,-9.941496 -18.41116,-1.35699 -25.91566,2.701876 -25.91566,2.701876 z"
       id="path6803"
       sodipodi:nodetypes="cscssc" /><path
       style="opacity:1;fill:#d35f5f;stroke:none;stroke-width:0.212739"
       d="m 132.64553,105.24753 c -1.33357,3.50296 -24.99667,56.21721 -24.99667,56.21721 l 9.32458,-5.69878 25.75874,-58.362716 z"
       id="path6859" /><path
       style="opacity:1;fill:#d35f5f;stroke:none;stroke-width:0.212739"
       d="m 159.16279,107.99133 -17.06895,-9.271206 -25.1465,57.101816 c 0,0 34.46454,-28.71147 39.20887,-39.3373 4.74434,-10.62581 3.00658,-8.49331 3.00658,-8.49331 z"
       id="path6915" /><ellipse
       style="opacity:1;fill:none;stroke:#d40000;stroke-width:0.54461;stroke-dasharray:none"
       id="path6969"
       cx="63.143143"
       cy="107.0892"
       rx="19.413305"
       ry="20.109369" /><ellipse
       style="opacity:1;fill:none;stroke:#aa0000;stroke-width:0.907326;stroke-dasharray:none"
       id="ellipse6971"
       cx="63.143143"
       cy="107.0892"
       rx="26.593945"
       ry="27.290113" /><ellipse
       style="opacity:1;fill:none;stroke:#ffaaaa;stroke-width:1.787;stroke-dasharray:none"
       id="ellipse6975"
       cx="63.329334"
       cy="107.8726"
       rx="31.474478"
       ry="31.7701" /><ellipse
       style="opacity:1;fill:none;stroke:#ffaaaa;stroke-width:1.787;stroke-dasharray:none"
       id="ellipse6977"
       cx="98.364349"
       cy="164.28531"
       rx="31.474478"
       ry="31.7701" /><ellipse
       style="opacity:1;fill:none;stroke:#ffaaaa;stroke-width:0.462706;stroke-dasharray:none"
       id="ellipse6979"
       cx="98.364349"
       cy="164.28531"
       rx="28.56147"
       ry="29.210394" /><path
       style="opacity:1;fill:#782121;stroke:none;stroke-width:0.212739"
       d="m 111.46295,100.14654 c 1.11423,0.0801 2.12949,1.43095 3.32413,1.7679 2.00934,0.56675 7.89097,0.57563 8.78096,-1.933756 0.0673,-0.1897 -0.5626,-1.3348 -0.66102,-1.56024 -0.53018,-1.21426 -1.3021,-2.287361 -1.8071,-3.505337 -0.0429,-0.10355 -0.31466,-1.073304 -0.49837,-1.024316 -1.44408,0.38509 -2.17622,2.56222 -3.16424,3.505333 -1.61096,1.53774 -3.87188,2.2833 -5.97436,2.750416 z"
       id="path4912" /><path
       id="path6625"
       style="opacity:1;fill:#ff5555;stroke:none;stroke-width:0.212739"
       d="m 120.00178,104.46751 a 2.8570348,2.8135039 0 0 0 -2.85723,2.81325 2.8570348,2.8135039 0 0 0 0.007,0.19788 2.8570348,2.8135039 0 0 0 -2.13385,2.71981 2.8570348,2.8135039 0 0 0 2.85724,2.81379 2.8570348,2.8135039 0 0 0 1.61659,-0.49416 l -0.0593,0.088 v 1.58967 l -0.21658,0.41335 h 1.70401 l -0.18744,-0.4359 v -1.6177 a 2.8570348,2.8135039 0 0 0 1.55723,0.45678 2.8570348,2.8135039 0 0 0 2.85668,-2.81379 2.8570348,2.8135039 0 0 0 -2.29381,-2.75829 2.8570348,2.8135039 0 0 0 0.006,-0.1594 2.8570348,2.8135039 0 0 0 -2.85668,-2.81326 z" /><path
       style="opacity:0.9;fill:#ff8080;stroke-width:0.522535"
       id="path569"
       d="m 98.531455,94.068217 c 0.718761,0.255834 0.779694,0.03338 1.098364,0.128785 0.267299,0.06792 0.538191,0.09217 0.808711,0.103045 0.21158,0.01159 0.42328,-0.0029 0.6345,-0.02124 0.20319,-0.01974 0.40634,-0.03751 0.60984,-0.04776 0.18502,-0.0091 0.37014,-0.0044 0.5552,-0.0024 0.11,1.84e-4 0.21999,0.0049 0.32982,0.01367 0.0482,0.0058 0.0966,3.95e-4 0.14495,-0.0012 0.0805,-0.0039 0.16095,-0.0036 0.24141,-1.17e-4 0.01,3.92e-4 0.0192,0.0012 0.0288,0.0016 -0.17059,-1.439043 -0.50697,-1.547254 -1.81697,-1.63457 -0.43042,-0.0014 -0.84341,0.0058 -1.242224,0.02259 -0.2034,0.01234 0.219834,0.384151 0.01658,0.400691 -0.207262,0.01249 -0.41456,0.02364 -0.622017,0.01487 -0.260973,-0.01249 -0.522451,-0.03343 -0.779145,-0.11231 -0.315514,-0.09328 -0.627531,-0.210346 -0.938913,-0.331574 -0.286032,-0.116471 -0.573692,-0.232407 -0.847038,-0.408715 l -0.862091,1.467589 c 0.555643,0.393596 1.932314,0.36432 2.640227,0.407045 z"
       sodipodi:nodetypes="cccccccccccccccccccc" /><path
       style="opacity:0.9;fill:#aa0000;stroke-width:0.434999"
       id="path650"
       d="m 97.054775,93.109729 c 0.08384,-0.0024 0.167,0.01254 0.249658,0.02477 0.102063,0.01942 0.204237,0.03701 0.306875,0.0531 0.06726,0.01127 0.134696,0.02127 0.202477,0.02882 0.06753,0.0074 0.135372,0.01109 0.203102,0.01622 0.06531,0.0053 0.130615,0.0114 0.196025,0.01521 0.05308,0.0037 0.105476,0.01087 0.158668,0.01344 0.07245,0.0073 0.145081,0.0013 0.217649,0.0042 0.0907,0.0082 0.180496,0.02286 0.27134,0.02983 0.09041,0.0064 0.180483,0.01537 0.270966,0.02077 0.0917,0.0051 0.183493,0.0077 0.275343,0.0089 0.120513,5.29e-4 0.240943,0.0035 0.361395,0.0075 0.134093,0.0061 0.267927,0.01675 0.401577,0.02901 0.13451,0.01706 0.26973,0.02545 0.40507,0.03234 0.10958,0.0071 0.21915,0.01429 0.3287,0.02199 0.0903,0.0083 0.18051,0.01476 0.27123,0.01564 0.0665,0.0029 0.13316,0.0043 0.19972,0.0068 0.0285,0.0011 0.057,0.0016 0.0855,0.0031 0.005,2.64e-4 0.0109,5.29e-4 0.0164,0.0011 0,0 -1.21113,-0.879491 -1.21113,-0.879491 v 0 c -0.005,2.65e-4 -0.009,7.94e-4 -0.0137,0.0011 -0.025,0.0016 -0.05,0.0024 -0.075,0.0032 -0.0607,0.0019 -0.1214,0.0016 -0.182058,2.38e-4 -0.08824,-0.0057 -0.176417,-0.01196 -0.26478,-0.01553 -0.107312,-0.0058 -0.214595,-0.01196 -0.322024,-0.01545 -0.133154,-0.0075 -0.265909,-0.01886 -0.398433,-0.03403 -0.134353,-0.01193 -0.269153,-0.01474 -0.403789,-0.02236 -0.124828,-0.0068 -0.249843,-0.0088 -0.374674,-0.01574 -0.09229,-0.0053 -0.184629,-0.0092 -0.276794,-0.01635 -0.08867,-0.0073 -0.17735,-0.01437 -0.265961,-0.02228 -0.09334,-0.01156 -0.18669,-0.02508 -0.280996,-0.02447 -0.0744,-0.0016 -0.148256,-0.0096 -0.222313,-0.01662 -0.05389,-0.0061 -0.107609,-0.01183 -0.161917,-0.01257 -0.06205,-0.0041 -0.124283,-0.0056 -0.186174,-0.0122 -0.06963,-0.0067 -0.138721,-0.0168 -0.208063,-0.02582 -0.06118,-0.0076 -0.122603,-0.01318 -0.183664,-0.0218 -0.101975,-0.01614 -0.20293,-0.0384 -0.305591,-0.05037 -0.09137,-0.01344 -0.183655,-0.02024 -0.274473,-0.03696 0,0 1.189839,0.884989 1.189839,0.884989 z" /></g></svg>
