<?xml version="1.0" encoding="UTF-8" standalone="no"?>
<!-- Created with Inkscape (http://www.inkscape.org/) -->

<svg
   width="150"
   height="150"
   viewBox="0 0 150 150"
   id="svg2"
   version="1.1"
   inkscape:version="1.2.2 (b0a8486541, 2022-12-01)"
   sodipodi:docname="hearts.svg"
   xmlns:inkscape="http://www.inkscape.org/namespaces/inkscape"
   xmlns:sodipodi="http://sodipodi.sourceforge.net/DTD/sodipodi-0.dtd"
   xmlns="http://www.w3.org/2000/svg"
   xmlns:svg="http://www.w3.org/2000/svg"
   xmlns:rdf="http://www.w3.org/1999/02/22-rdf-syntax-ns#"
   xmlns:cc="http://creativecommons.org/ns#"
   xmlns:dc="http://purl.org/dc/elements/1.1/">
  <defs
     id="defs4" />
  <sodipodi:namedview
     id="base"
     pagecolor="#ffffff"
     bordercolor="#666666"
     borderopacity="1.0"
     inkscape:pageopacity="0.0"
     inkscape:pageshadow="2"
     inkscape:zoom="2.4069915"
     inkscape:cx="80.390812"
     inkscape:cy="105.94138"
     inkscape:document-units="px"
     inkscape:current-layer="layer1"
     showgrid="false"
     units="px"
     inkscape:window-width="1440"
     inkscape:window-height="828"
     inkscape:window-x="0"
     inkscape:window-y="0"
     inkscape:window-maximized="1"
     inkscape:showpageshadow="2"
     inkscape:pagecheckerboard="0"
     inkscape:deskcolor="#d1d1d1" />
  <metadata
     id="metadata7">
    <rdf:RDF>
      <cc:Work
         rdf:about="">
        <dc:format>image/svg+xml</dc:format>
        <dc:type
           rdf:resource="http://purl.org/dc/dcmitype/StillImage" />
      </cc:Work>
    </rdf:RDF>
  </metadata>
  <g
     inkscape:label="Layer 1"
     inkscape:groupmode="layer"
     id="layer1"
     transform="translate(0,-877.36216)">
    <path
       style="fill:#ff5599;fill-opacity:1;stroke:none;stroke-width:0.937158"
       d="M 73.489788,1018.5452 C 68.998835,1004.6881 62.043422,993.47698 37.723209,960.89501 22.891402,941.02471 17.364222,931.41475 15.555154,922.35203 c -2.196708,-11.00465 1.121621,-21.49279 9.057534,-28.62785 5.336096,-4.79761 10.878905,-6.85469 18.470007,-6.85469 12.514932,0 22.654643,7.16434 28.720315,20.29269 1.736626,3.7587 3.466674,6.4843 3.844551,6.05689 0.377877,-0.42742 1.375267,-2.59411 2.216423,-4.81488 3.645686,-9.6251 11.95233,-17.94959 20.617324,-20.66162 5.875022,-1.83881 16.397052,-0.74441 21.961682,2.28425 15.48926,8.4303 18.86672,26.85948 8.65243,47.21212 -4.01423,7.99862 -7.74386,13.44977 -20.12309,29.41146 -17.305353,22.31339 -27.7355,39.2999 -31.864895,51.8948 -0.849452,2.5909 -1.667418,4.7107 -1.817705,4.7107 -0.150285,0 -0.96026,-2.1198 -1.799942,-4.7107 z"
       id="path5865"
       inkscape:connector-curvature="0" />
    <path
       style="fill:#ff0066;stroke-width:1.54077"
       d="m 15.10932,915.68402 c 0,0 8.826051,17.33344 27.654045,16.80213 18.827995,-0.53132 32.689475,-18.77247 32.689475,-18.77247 0,0 6.917712,16.44461 29.45322,15.91291 22.53552,-0.53171 30.30276,-17.77637 30.30276,-17.77637 l -68.781511,90.28148 c 0,0 -34.596165,-46.34887 -42.758665,-61.64971 -8.162499,-15.30084 -8.559324,-24.79797 -8.559324,-24.79797 z"
       id="path1343" />
    <path
       style="fill:#ffaacc;stroke-width:1.54077"
       d="m 75.419386,913.58056 c 0,0 12.864631,-23.66216 27.196984,-24.10131 11.55743,-0.35414 14.5224,4.20907 14.5224,4.20907 l 3.86305,-3.36553 c 0,0 -15.32962,-7.29981 -26.027554,-2.11261 -13.181296,6.39132 -19.55488,25.37038 -19.55488,25.37038 z"
       id="path1675"
       sodipodi:nodetypes="csccsc" />
    <path
       style="fill:#800033;stroke-width:1.54077"
       d="m 115.05893,891.72265 c 0,0 29.79583,24.11097 -6.89403,44.71719 -36.689865,20.60622 -71.720575,22.63818 -71.720575,22.63818 0,0 7.876156,14.77981 15.897604,24.78697 17.273177,21.54911 23.130775,39.50221 23.130775,39.50221 0,0 2.695456,-17.7947 25.712466,-45.71766 20.85576,-25.30104 32.79857,-48.96036 32.79857,-48.96036 0,0 6.61986,-20.62872 -5.78435,-32.87154 -11.8286,-11.6747 -13.14046,-4.09499 -13.14046,-4.09499 z"
       id="path1287"
       sodipodi:nodetypes="cscscscsc" />
    <path
       style="fill:#800033;fill-opacity:1;stroke:none;stroke-width:0.45024"
       d="m 76.103347,991.17808 c -2.157589,-6.65737 -5.499181,-12.04354 -17.183351,-27.6969 -7.12565,-9.54631 -9.781075,-14.16321 -10.650207,-18.51721 -1.055365,-5.28697 0.53886,-10.3258 4.351515,-13.7537 2.563622,-2.30492 5.226557,-3.2932 8.873552,-3.2932 6.012555,0 10.88398,3.44196 13.798113,9.74922 0.834328,1.8058 1.665495,3.11525 1.847039,2.90991 0.181543,-0.20535 0.660719,-1.24629 1.064837,-2.3132 1.751499,-4.6242 5.742262,-8.62354 9.905189,-9.92648 2.822539,-0.88342 7.877641,-0.35764 10.551058,1.09742 7.441508,4.05018 9.064158,12.90412 4.156898,22.68215 -1.92856,3.84277 -3.720396,6.46167 -9.66775,14.13016 -8.314018,10.72003 -13.324978,18.88085 -15.308864,24.93183 -0.408103,1.24473 -0.801079,2.26319 -0.873281,2.26319 -0.07221,0 -0.461338,-1.01846 -0.864748,-2.26319 z"
       id="path1673"
       inkscape:connector-curvature="0" />
    <path
       style="fill:#ff0000;fill-opacity:1;stroke:none;stroke-width:0.343146"
       d="m 74.391622,980.17358 c -1.644388,-5.07386 -4.191151,-9.17888 -13.096136,-21.10895 -5.430749,-7.27562 -7.454557,-10.79436 -8.116959,-14.11272 -0.804336,-4.02942 0.410688,-7.86972 3.316468,-10.48226 1.953842,-1.75667 3.983373,-2.50988 6.762898,-2.50988 4.582413,0 8.295125,2.62326 10.516106,7.43028 0.635876,1.37627 1.269342,2.37426 1.407704,2.21777 0.138361,-0.15651 0.503561,-0.94985 0.811556,-1.763 1.334888,-3.52428 4.376413,-6.57234 7.549149,-7.56536 2.151173,-0.6733 6.003873,-0.27258 8.041393,0.83638 5.671479,3.0868 6.908155,9.83475 3.168138,17.28699 -1.469834,2.92874 -2.835462,4.92471 -7.368183,10.76917 -6.336453,8.17018 -10.15551,14.38987 -11.667512,19.00158 -0.311032,0.94865 -0.610535,1.72486 -0.665563,1.72486 -0.05503,0 -0.351605,-0.77621 -0.659059,-1.72486 z"
       id="path1671"
       inkscape:connector-curvature="0" />
  </g>
</svg>
