<?xml version="1.0" encoding="UTF-8" standalone="no"?>
<!-- Created with Inkscape (http://www.inkscape.org/) -->

<svg
   width="150mm"
   height="150mm"
   viewBox="0 0 150 150"
   version="1.1"
   id="svg5"
   inkscape:version="1.2.2 (b0a8486541, 2022-12-01)"
   sodipodi:docname="Null.svg"
   xmlns:inkscape="http://www.inkscape.org/namespaces/inkscape"
   xmlns:sodipodi="http://sodipodi.sourceforge.net/DTD/sodipodi-0.dtd"
   xmlns="http://www.w3.org/2000/svg"
   xmlns:svg="http://www.w3.org/2000/svg">
  <sodipodi:namedview
     id="namedview7"
     pagecolor="#ffffff"
     bordercolor="#000000"
     borderopacity="0.25"
     inkscape:showpageshadow="2"
     inkscape:pageopacity="0.0"
     inkscape:pagecheckerboard="0"
     inkscape:deskcolor="#d1d1d1"
     inkscape:document-units="mm"
     showgrid="false"
     inkscape:zoom="2.0602222"
     inkscape:cx="304.57879"
     inkscape:cy="343.16686"
     inkscape:window-width="1440"
     inkscape:window-height="828"
     inkscape:window-x="0"
     inkscape:window-y="0"
     inkscape:window-maximized="1"
     inkscape:current-layer="layer1" />
  <defs
     id="defs2" />
  <g
     inkscape:label="Layer 1"
     inkscape:groupmode="layer"
     id="layer1">
    <ellipse
       style="opacity:1;fill:none;fill-opacity:1;stroke:#000000;stroke-width:10.0657;stroke-dasharray:none"
       id="path234"
       cx="75.058159"
       cy="75.692635"
       rx="38.815746"
       ry="56.931442" />
    <path
       style="opacity:0.9;fill:#e580ff;stroke:#2d1650;stroke-width:0;stroke-dasharray:none"
       d="m 46.397297,103.38387 c 0,0 22.697775,-0.47644 33.366903,-4.665381 7.725498,-3.033207 11.365056,-7.879568 11.365056,-7.879568 0,0 1.12569,3.621521 3.830262,9.604909 3.695879,8.17647 17.058912,7.89629 17.058912,7.89629 0,0 -10.74357,27.62522 -36.699425,28.36589 -23.987102,0.68448 -39.074562,-29.90103 -39.074562,-29.90103 z"
       id="path3135"
       sodipodi:nodetypes="cscscscc" />
    <path
       style="opacity:1;fill:#ffffff;fill-opacity:1;stroke:none;stroke-width:0;stroke-dasharray:none"
       d="m 52.921869,99.103491 c 0,0 6.241611,10.477479 17.352954,12.472409 11.111341,1.99494 12.674849,0.34972 12.674849,0.34972 v 0 c 0,0 2.981936,2.2692 5.869429,0.3353 2.887493,-1.93389 5.995864,-4.67193 5.995864,-4.67193 l 11.329435,7.0896 -35.414715,13.45313 z"
       id="path5518" />
    <path
       style="opacity:1;fill:#dd55ff;stroke:#2d1650;stroke-width:0;stroke-dasharray:none"
       d="m 39.642082,39.372679 c -0.07892,1.267133 -0.467688,61.616581 27.909402,72.009651 18.421772,6.74695 41.579636,2.52724 41.579636,2.52724 0,0 -9.362632,22.82047 -37.138381,22.43812 C 52.522948,136.07967 31.217351,98.303183 31.048406,83.507845 30.905332,70.978159 39.642082,39.372679 39.642082,39.372679 Z"
       id="path3191"
       sodipodi:nodetypes="cscssc" />
    <path
       style="opacity:1;fill:#dd55ff;fill-opacity:1;stroke:none;stroke-width:0;stroke-dasharray:none"
       d="m 76.05328,114.02495 c 0,0 10.350165,1.29086 14.167033,-3.30585 5.729307,-6.89988 0.940812,-19.57893 0.940812,-19.57893 0,0 5.012732,17.8286 20.901405,17.37998 0.76719,-0.0217 -6.30441,9.92953 -6.30441,9.92953 l -30.513895,-4.27966 z"
       id="path5214"
       sodipodi:nodetypes="cscsccc" />
    <path
       style="opacity:1;fill:#ffffff;stroke:none;stroke-width:0;stroke-dasharray:none"
       d="m 44.997426,96.176593 c 0,0 6.66165,12.276297 13.087384,15.012747 6.425733,2.73644 2.802075,1.27211 2.802075,1.27211 0,0 -0.688427,6.94926 6.081574,5.07454 6.769983,-1.87473 4.15789,-1.06898 4.15789,-1.06898 0,0 1.039083,5.30506 7.31899,4.08326 6.279907,-1.22178 11.313448,-6.15588 11.313448,-6.15588 v 0 c 0,0 1.850926,3.48673 6.326792,4.81881 4.475871,1.33207 8.753081,1.11051 8.753081,1.11051 0,0 -4.18911,8.39827 -9.723425,12.72028 -5.534305,4.322 -37.650098,0.81348 -37.650098,0.81348 0,0 -11.814363,-24.05094 -12.346924,-32.80155 -0.532561,-8.750618 -0.120787,-4.879327 -0.120787,-4.879327 z"
       id="path4826" />
    <path
       style="opacity:1;fill:#2a7fff;fill-opacity:1;stroke:none;stroke-width:0;stroke-dasharray:none"
       d="m 58.421322,119.90644 c 9.351699,-0.77917 11.018958,-1.09755 12.562634,-0.37135 8.020454,3.77305 -6.427972,6.45493 -1.266162,6.98128 5.161815,0.52634 15.991933,-7.24899 19.921181,-11.89659 0.594737,-0.70347 1.197941,5.60075 10.327185,9.1162 3.79119,1.4599 2.79268,-3.34303 2.79268,-3.34303 l 2.75549,-0.14678 c 0,0 -5.768929,8.53342 -12.617638,12.14979 -6.848707,3.61637 -8.495025,4.72614 -19.543674,4.5181 -11.04865,-0.20805 -14.931696,-17.00762 -14.931696,-17.00762 z"
       id="path5462"
       sodipodi:nodetypes="cssssccssc" />
    <path
       style="opacity:1;fill:#7f2aff;stroke:#000000;stroke-width:0;stroke-dasharray:none"
       d="m 58.5868,18.729368 c 0,0 -21.987247,20.776131 -17.554196,62.431307 6.050933,33.196385 32.537749,56.496045 64.937206,39.082595 0,0 -11.671491,17.71482 -32.251652,17.65164 C 60.489885,137.8543 32.238363,122.25998 31.226842,81.027769 29.991533,30.6735 58.5868,18.729368 58.5868,18.729368 Z"
       id="path2983"
       sodipodi:nodetypes="cccssc" />
    <path
       style="opacity:1;fill:#7f2aff;fill-opacity:1;stroke:none;stroke-width:0;stroke-dasharray:none"
       d="m 64.321425,120.05887 c 0,0 9.030132,4.13282 19.191353,1.78715 10.16122,-2.34568 8.080375,4.09711 8.080375,4.09711 l 10.977157,-1.74274 c 0,0 -4.696336,6.60365 -15.496079,7.35825 -10.799748,0.7546 -22.752806,-11.49977 -22.752806,-11.49977 z"
       id="path4882" />
  </g>
</svg>
