<?xml version="1.0" encoding="UTF-8" standalone="no"?>
<!-- Created with Inkscape (http://www.inkscape.org/) -->

<svg
   width="150"
   height="150"
   viewBox="0 0 150 150"
   id="svg2"
   version="1.1"
   inkscape:version="1.2.2 (b0a8486541, 2022-12-01)"
   sodipodi:docname="spades.svg"
   xmlns:inkscape="http://www.inkscape.org/namespaces/inkscape"
   xmlns:sodipodi="http://sodipodi.sourceforge.net/DTD/sodipodi-0.dtd"
   xmlns="http://www.w3.org/2000/svg"
   xmlns:svg="http://www.w3.org/2000/svg"
   xmlns:rdf="http://www.w3.org/1999/02/22-rdf-syntax-ns#"
   xmlns:cc="http://creativecommons.org/ns#"
   xmlns:dc="http://purl.org/dc/elements/1.1/">
  <defs
     id="defs4" />
  <sodipodi:namedview
     id="base"
     pagecolor="#ffffff"
     bordercolor="#666666"
     borderopacity="1.0"
     inkscape:pageopacity="0.0"
     inkscape:pageshadow="2"
     inkscape:zoom="3.404"
     inkscape:cx="93.566392"
     inkscape:cy="73.73678"
     inkscape:document-units="px"
     inkscape:current-layer="layer1"
     showgrid="false"
     units="px"
     inkscape:window-width="1440"
     inkscape:window-height="828"
     inkscape:window-x="0"
     inkscape:window-y="0"
     inkscape:window-maximized="1"
     inkscape:showpageshadow="2"
     inkscape:pagecheckerboard="0"
     inkscape:deskcolor="#d1d1d1" />
  <metadata
     id="metadata7">
    <rdf:RDF>
      <cc:Work
         rdf:about="">
        <dc:format>image/svg+xml</dc:format>
        <dc:type
           rdf:resource="http://purl.org/dc/dcmitype/StillImage" />
      </cc:Work>
    </rdf:RDF>
  </metadata>
  <g
     inkscape:label="Layer 1"
     inkscape:groupmode="layer"
     id="layer1"
     transform="translate(0,-877.36216)">
    <path
       style="fill:#000000;stroke:none"
       d="m 27.193122,1021.1891 c 0,-1.4924 0.891385,-1.9732 4.547872,-2.4529 13.962309,-1.8319 20.983871,-4.7632 28.32361,-11.8247 7.600374,-7.31213 11.615144,-17.14847 12.717104,-31.15724 0.67066,-8.52584 0.65566,-8.52708 -4.77102,-0.394 -6.513949,9.7625 -15.083549,14.55437 -25.977141,14.52567 -7.825511,-0.021 -12.08404,-1.6034 -17.514784,-6.50977 -5.772766,-5.2153 -8.202454,-11.0201 -8.26185,-19.73833 -0.0431,-6.32605 0.35571,-8.05605 3.20037,-13.88298 2.600554,-5.32691 5.163522,-8.47312 12.832039,-15.75215 28.960087,-27.48922 34.860356,-34.78388 39.048926,-48.27733 l 2.23182,-7.18977 2.49169,7.0593 c 4.37992,12.40885 7.87851,17.06082 28.327862,37.66667 22.34775,22.51878 25.28138,26.80517 25.99092,37.97596 0.23597,3.71499 -0.0613,8.56753 -0.66058,10.78343 -1.54857,5.7259 -6.41807,11.5784 -12.45597,14.9704 -4.30518,2.41847 -6.27328,2.92227 -11.48936,2.94097 -3.46185,0.012 -7.916122,-0.5383 -9.898372,-1.2238 -5.45239,-1.88547 -12.41928,-7.88957 -16.84472,-14.51667 l -3.96608,-5.93928 v 6.17938 c 0,7.5209 2.99724,19.73721 6.17137,25.15341 5.08366,8.67463 16.56424,15.88033 28.422092,17.83883 10.41665,1.7204 10.40653,1.7168 10.40653,3.7244 0,1.8645 -0.78717,1.8967 -46.436162,1.8967 -45.308668,0 -46.436166,-0.045 -46.436166,-1.8562 z"
       id="path5852"
       inkscape:connector-curvature="0" />
    <path
       style="fill:#e580ff;stroke-width:1.64409"
       d="m 73.235857,878.95699 c 0,0 -2.374542,14.66843 -21.690449,35.47349 -19.315908,20.80507 -28.816399,25.65079 -33.819743,38.53566 -4.390022,11.30541 0.126697,26.10783 9.42821,32.81741 9.301514,6.70962 30.02765,-10.28177 46.106033,-32.8144 16.078383,-22.53264 -23.046989,-27.8724 -23.046989,-27.8724 0,0 34.721811,-14.10782 28.77014,-30.09444 -5.951672,-15.98661 -5.747202,-16.04532 -5.747202,-16.04532 z"
       id="path998"
       sodipodi:nodetypes="csscscsc" />
    <path
       style="fill:#7f2aff;stroke-width:1.64409"
       d="m 73.571336,879.46568 c 0,0 3.94793,28.1063 29.159684,46.67221 25.21175,18.56591 16.96666,40.13953 1.06435,45.95125 -15.902315,5.81171 -29.255656,-5.19894 -29.255656,-5.19894 0,0 19.735326,38.2986 46.940746,16.95011 29.27094,-22.96929 -13.53603,-57.07449 -13.53603,-57.07449 0,0 -8.056887,-7.60593 -18.577405,-18.87341 -10.308117,-11.04 -15.795689,-28.42673 -15.795689,-28.42673 z"
       id="path996"
       sodipodi:nodetypes="csscscsc" />
  </g>
</svg>
