<svg viewBox="0 0 592 645" xmlns="http://www.w3.org/2000/svg"><defs><filter id="a"><feGaussianBlur stdDeviation="17.993"/></filter></defs><path d="M554.805 642.642c-13.05-8.81-19.48-22.96-36.08-25.06-12.31-7.23-18.9-20.12-17.16-34.36 4.75-15.03-9.51-24.74-12.39-38.96-7.65-17.55-6.71-37.11-11.19-55.27-5.13-10.18-6.05-25.99-12.55-33.18-34.25 44.9-85.65 78.67-142.46 85.06-47.63 5.63-97.48-4.98-136.97-32.65-23.75-15.13-43.52-36.11-60.67-57.93-5 12.82-13.78 28.52-9.09 42.9.42 14.52 3.74 31.66-7.8 43.03-12.61 11.24-11.08 28.92-17.23 43.39-2.73 14.78-19.79 18.52-22.09 33.41-7.686 12.9-18.285 28.59-35.401 27.2-17.368 4.02-30.261-19.25-16.715-31.24 12.496-3.62 21.217-9.81 24.485-23.77.532-6.6 4.716-16.8-2.488-21.07-9.323-10.39-9.794-26.78-9.763-40.13 1.261-18.63 3.187-37.41 1.9-56.06-5.522-14.74-17.701-27.64-14.237-44.77-.559-8.61 1.059-17.72-.777-26.03-4.855-10.1-8.035-20.45-12.535-30.67-6.268-14.28-2.766-29.48-1.161-44.26 1.501-17.57 1.339-38.86 17.468-50.12 10.5-12.36 17.641-27.47 23.87-42.36 1.517-17.44 17.554-27.83 12.984-46.37.009-14.59 2.881-29.05 7.65-42.7 3.41-14.07 10.01-27.21 14.87-40.83 4.82-15.2 14.4-28.21 22.07-42.099 11.36-14.783 28.91-21.897 43.74-32.4 18.2-8.215 35.2-20.259 54.97-24.26 17.76-1.157 35.82-1.957 53.46.678 9.91.852 13.4 16.65 13.74 19.525 2-18.103 23.98-20.009 38.36-21.02 22.63-1.186 45.12 2.808 66.11 11.254 21.84 6.243 41.07 18.583 61.18 28.62 14.72 8.432 31.28 14.127 43.24 26.75 12.63 13.302 26.1 26.562 35.21 42.572 7.7 16.78 17.72 33.15 19.28 52.03 3.89 13.78 3.65 28.92 7.5 42.3 12.51 6.58 12.86 21.09 15.88 31.87 11.2 6.88 10.53 21.71 23.22 27.42 12.69 13.26 12.28 32.26 12.22 49.33.51 17.26 6.52 35.73-2.03 52.13 4.15 13.51 6.4 28.36 1.95 42.29-11.08 14.12-.03 28.13 1.29 43.39 4.64 16.02-9.5 28.81-9.17 43.87 4.55 16.87.72 34.91-8.13 49.71-8.8 15.15 5.85 33.84-6.81 46.78-5.51 4.67 2.23 13.59 3.91 18.7 15.7 5.94 15.92 31.41-1.15 35.28-4.85 1.28-10.11.43-14.51-1.92z"/><path d="M489.405 274.722c11.07-3.31 25.75-1.09 36.53-8.47 11.09 3.11-20.73 11.68-28.39 9.95-2.39-.39-6.52.9-8.14-1.48zm49-14c4.04-6.04 3.53 5.84 0 0zm-460 286c4.04-6.04 3.53 5.84 0 0z"/><path d="M80.405 542.702c7.95-11.93 25.82-19.67 23.22-36.62-3.69-8.76 2.47-13.9 3.23-2.06 2.97 15.83-9.14 27.54-20.03 36.89-1.4.93-5.77 5.62-6.42 1.79zm18-70.98c4.04-6.04 3.53 5.84 0 0zm-27-203.94c-7.102.69-24.286-17.38-11.208-10.98 7.428 9.16 24.018 7.41 30.558 11.63-6.27 1.35-13.16.94-19.35-.65zm34-6.06c4.04-6.04 3.53 5.84 0 0z"/><path fill="#6c2905" d="M323.905 536.772c38.99-4.78 75.71-22.72 105.63-47.81 7.81-9.61 19.27-16.78 26.08-27.76 15.07-8.98 6.57-27.23 15.03-39.71 9.56-12.35 17.26-26.93 7.23-41.78-7-13.83.14-28.45 3.09-42.22-1.31-17.44-10.56-33.2-11.29-50.92 1.58-10.36 5.52-19.78-6.87-22.4-3.49-14.78-15.62-24.3-24.9-35.38-13.73-4.53-24.71-15.75-27.6-30.17-3.54-11.6-2.78-24.01-2.4-36.02-8.5.26-18.65 2.18-25.35-3.38-14.24-5.99-26.24-19.14-25.79-35.48-3.66-5.36 6.78-24.19-3.69-18.59-25.28 10.14-54.16-2.63-71.57-21.64-10.82-14.548-15.58-32.687-16.58-50.573-7.51 5.466-16.65 27.038-30.18 33.221-9.78.007-7.56 16.692-2.82 4.107 3.39 4.276 20.99-13.684 12.06-.29-7.73 5.042-9.85 11.315-17.06 12.175-.74 13.05-4.96-3.58-13.27.28 1.77-2.18 15.81-5.04 9.13-10.7-9.97 2.181-23.59 1.625-15.43 15.15 3.5 15.15-3.62 29.24-14.43 39.5-6.34 13.39-31.32 10.27-28.28 28.05 5.89 14.25.11 29.76-10.77 39.89-9.31 10.83-22.03 22.31-22.61 37.09-7.59 15.1-.51 27.82.86 43.27-4.05 13.87-10.46 26.55-17.13 39.2 4.1 14.77 9.33 29.46 12.87 44.59 4.3 13.39 6.02 28.01-.42 41.05-3.33 15.13-5.82 32.92.31 47.41 24.16 32.64 55.7 60.22 93.32 76.13 32.18 14.37 68.1 17.19 102.83 13.71z"/><path d="M311.645 221.232c-18.77-9.18 5.58-35.78 16.13-17.59 8.52 8.98-6.59 24.86-16.13 17.59zm-38-14c-18.77-9.18 5.58-35.78 16.13-17.59 8.52 8.98-6.59 24.86-16.13 17.59zm74.87-6.22c-3.75-9.58-17.74-17.65-19.63-24.42 10.27 1.93 23.7 16.7 21.73 26.31l-1.12-.35-.98-1.54zm-96.62-18.8c-.35-11.5 17.83-25.75 26.95-21.91-10.72 4.41-20.64 16.17-26.95 21.91zm137.51-12.49c4.61-5.26 22.69 1.77 7 1.5-1.7-.75-6.12 1.06-7-1.5zm-71.85-50.46c-6.69.36-23.7-14.03-7.57-7.81 8.54 9.11 24.8 3.25 32.07 6.82-7.4 3.97-16.68 3.3-24.5.99zm30.85-4.54c4.04-6.04 3.53 5.84 0 0z"/><path filter="url(#a)" d="M455.615 461.202c15.07-8.98 6.57-27.23 15.03-39.71 9.56-12.35 17.26-26.93 7.23-41.78-7-13.83.14-28.45 3.09-42.22-1.31-17.44-10.56-33.2-11.29-50.92 1.58-10.36 5.52-19.78-6.87-22.4-3.49-14.78-15.62-24.3-24.9-35.38-13.73-4.53-24.71-15.75-27.6-30.17-3.54-11.6-2.78-24.01-2.4-36.02-8.5.26-18.65 2.18-25.35-3.38-14.24-5.99-26.24-19.14-25.79-35.48-3.66-5.36 6.78-24.19-3.69-18.59-25.28 10.14-54.16-2.63-71.57-21.64-10.82-14.548-15.58-32.687-16.58-50.573-7.51 5.466-16.65 27.038-30.18 33.221-9.78.007-7.56 16.692-2.82 4.107 3.39 4.276 20.99-13.684 12.06-.29-7.73 5.042-9.85 11.315-17.06 12.175-.74 13.05-4.96-3.58-13.27.28 1.77-2.18 15.81-5.04 9.13-10.7-9.97 2.181-23.59 1.625-15.43 15.15 3.5 15.15-3.62 29.24-14.43 39.5-6.34 13.39-31.32 10.27-28.28 28.05 5.89 14.25.11 29.76-10.77 39.89-9.31 10.83-22.03 22.31-22.61 37.09-7.59 15.1-.51 27.82.86 43.27-4.05 13.87-10.46 26.55-17.13 39.2 4.1 14.77 9.33 29.46 12.87 44.59 4.3 13.39 6.02 28.01-.42 41.05-3.33 15.13-5.82 32.92.31 47.41l1.36 2.98-38.5-40.43 1.92-119.36 11.55-105.88 44.28-82.78 77.01-69.306 57.75-5.776 102.03 61.602 55.83 71.23 59.68 86.63 7.7 92.41-17.33 98.18-35.42 24.77z"/><path fill="#557ba0" d="M493.905 263.332c15.97-3.31 33.33-6.66 45.48-18.37 9.33-10.26 12.54-26.79-1.49-35.1-11.34-7.89-9.7 16.14-21.77 17.14-11.06 10.23-25.88 13.97-40.67 13.72-9.98-1.49-24.12 2.91-12.14 13.14 1.8 15.34 20.41 10.38 30.59 9.47z"/><path d="M471.405 257.842c12.18-2.11 27.91-3.4 39-5.26-8.77 8.56-27.76 7.48-39 5.26zm44-9.12c4.04-6.04 3.53 5.84 0 0z"/><path fill="#557ba0" d="M106.025 253.142c16.13 1.71 24.72-17.27 19.34-28.39-14.54 2.02-30.8 9.76-45.11 1.46-10.82-1.75-16.727-12.13-24.148-16.43-12.09 12.19-7.572 31.15 6.929 39.03 12.769 7.16 28.929 5.42 42.989 4.33z"/><path d="M85.405 248.562c-7.92-1.59-26.788-4.03-23.684-14.17 10.794 10.11 26.614 12.57 40.884 11.34 4.1 6.49-14.96 2.1-17.2 2.83zm24-4.84c4.04-6.04 3.53 5.84 0 0zm-56-15c4.039-6.04 3.535 5.84 0 0zm216.55 248.89c-21.23-9.77-43.05-21.12-58.04-39.58-10.39-15.33-19.84-31.49-24.57-49.57-7.31-21.69-16.19-43.53-15.38-66.83 1.36-9.3-2.79-4.89-7.04-.25-3.27 6.23-14.66 8.28-5.91-.13 7.65-5.95 14.34-17.43 20.1-22.05-4.1 13.76-3.98 29.88-1.12 44.97 4.56 19.18 12.25 37.47 17.69 56.31 8.51 21.05 21.05 41.42 40.59 53.86 11.57 7.91 24.26 14.71 37.06 20.11 22.89 1.48 48.43-.26 65.5-17.55 23.27-23.63 46.25-48.94 58.79-80.1 6.69-19.02 10.35-38.91 12.64-58.87-4.81-3.92-13.85-26.72-3.56-13.8 6.73 12.92 19.72 21.79 28.95 31.68-8.81 1.87-14.48-9.29-21.2-14.17-4.66 28.04-9.25 57.2-25.55 81.25-15.32 24.37-34.95 46.07-56.97 64.53-17.85 12.4-41.25 12.47-61.98 10.19z"/><path fill="#040404" d="M110.905 223.232c16.98 1.08 24.61-10.93 32.33-23.67 9.62-9.93 23.37-22.04 18.72-37.4-9.99-19.62 11.51-25.92 23.75-34.32 12.35-9.64 21.59-25.18 17.3-41.19-7.1-12.414.22-17.779 12.76-17.772 15.45-3.098 27.44-13.45 36.25-25.962 9.72-10.89 16.84-36.879-5.2-37.919-22.38-.107-46.71-4.385-66.91 7.874-18.32 9.032-36.7 17.908-53.48 29.662-15.01 6.9-24.25 21-31.73 35.047-10.65 18.11-16.34 38.51-24.5 57.82-4.115 15.22-9.335 30.33-9.358 46.39-2.206 14.54-.336 32.69 15.958 37.97 10.61 6.88 22.25 7.26 34.11 3.47zm360 13.39c14.24.22 29.22-1.14 40.29-11.18 11.02-8.78 23.64-21.58 19.99-36.35-3.83-23.23-6.56-47.46-19.38-67.87-8.64-22.1-26.36-38.9-43.18-54.994-12.29-11.554-29.11-15.864-42.93-25.068-19.26-9.276-37.56-20.903-58.45-26.48-22.69-9.033-47.54-12.563-71.78-9.494-17.14 1.142-29.02 14.315-25.46 32.036.45 17.051 6.93 34.483 18.29 47.21 17.19 15.6 43.09 26.17 65.62 15.91 16.39-1.73 1.18 24.43 8.99 34.37 5.78 13.77 21.38 24.43 36.33 24.09 9.43-2.97 15.03-1.5 12.61 8.55.62 10.9-1.87 22.35 3.36 32.43 1.92 17.83 21.74 20.38 30.62 32.88 8.46 12.48 13.13 3.49 25.08 3.96zM45.006 633.642c14.445-7.37 19.579-23.66 27.009-36.74 15.03-8.05 17.28-26.38 21.37-41.26.66-16.79 21.37-25.02 19.4-42.62 2.23-15.17-7.3-29.9 1.07-44.3 8.58-19.1 5.79-40.11 7.28-60.33 2.99-13.84 10.36-27.72 4.4-42.06-4.26-17.13-8.56-34.25-15.13-50.59 4.88-14.13 14.07-26.63 17.4-41.56 1.84-12.27-4.43-26.07-17.67-17.4-20.08 1.87-45.483 5.24-59.35-13.06-9.24-16.12-10.401 14.28-18.729 18.8-4.694 12.23-18.903 17.25-21.449 30.67-4.428 17.87-3.917 36.6-6.827 54.7 1.243 15.19 9.557 28.1 13.875 42.23 5.467 7.6 2.519 17.16 3.25 25.87-1.169 14.14.691 28.55 9.873 39.91 9.901 12.64 3.79 28.44 4.314 42.94.3 14.82-4.806 29.98.35 44.34-2.527 11.18 8.711 16.69 11.462 24.56.532 10.13-.347 20.23-5.499 29.2-2.832 15.19-24.998 8.23-25.654 24.55-.87 15.09 19.006 17.81 29.255 12.15zm524.759 6.2c17.58-9.14 2.47-24.47-5.98-33.19-12.52-14.94 11.36-23.51 2.27-39.17-2.12-15.57 5.33-29.83 11.25-43.61 5.95-13.45-3.13-27.62 1.15-40.83 9.55-14.82 10.55-33.2 4.15-49.53-9.96-14.89 7.56-29.01 5.19-44.67-3.73-14.99-5.68-28.14.06-42.83.28-15.04-4.19-29.75-2.48-44.88-.43-15.92-5.08-34.06-20.19-42.08-4.96-6.11-11.94-30.59-21.2-13.56-12.05 15.23-32.82 18.09-50.62 22.23-19.43-4.51-22.8 15.81-17.37 30.12.31 16.5 14.85 32.24 7.11 48.46-8.81 16.74-.65 33.33 4.14 49.59.13 15.01-16.45 24.32-17.02 39.53-1.99 21.83 10.44 41.31 14.18 62.11.69 21.81 6.99 43.12 16.29 62.65 7.75 6.43 7.03 13.17 4.97 22.24-2.03 14.48 6.13 28.85 20 33.81 18.8-1.2 21.18 26.56 40.87 24.67l3.23-1.06z"/><script xmlns=""/></svg>