<svg xmlns="http://www.w3.org/2000/svg" xmlns:xlink="http://www.w3.org/1999/xlink" viewBox="0 0 695.89 728.51" version="1.0"><defs><radialGradient id="b" xlink:href="#a" gradientUnits="userSpaceOnUse" cy="357.21" cx="258.26" gradientTransform="matrix(1.0139 -.10957 .10744 .99421 -125.26 110.22)" r="68.713"/><radialGradient id="c" xlink:href="#a" gradientUnits="userSpaceOnUse" cy="357.21" cx="258.26" gradientTransform="matrix(1.0139 -.10957 .10744 .99421 220.87 105.47)" r="68.713"/><linearGradient id="a"><stop offset="0" stop-color="#cd8672"/><stop offset="1" stop-color="#cd8672" stop-opacity="0"/></linearGradient></defs><path d="M331.89 727.68c-76.19-6.06-143.71-54.07-189.08-134.44-13.87-24.57-27.75-59.52-34.75-87.51l-2.88-11.5-9.894-.61c-5.442-.34-11.467-1.13-13.388-1.75-1.922-.63-5.128-1.14-7.125-1.14s-5.544-.68-7.882-1.5c-2.338-.83-5.507-1.5-7.043-1.5-1.535 0-5.641-1.5-9.124-3.32-3.483-1.83-9.175-4.37-12.649-5.65-5.003-1.84-7.03-3.26-9.75-6.82-1.889-2.48-3.434-4.89-3.434-5.37 0-.47-1.35-2.72-3-5s-3-4.54-3-5.03-2.303-5.71-5.119-11.6c-8.258-17.28-9.88-22.96-9.889-34.64-.005-7.18-.577-11.94-1.992-16.57-3.451-11.31-2.12-25.88 3.515-38.5 2.277-5.1 7.482-11.47 9.415-11.52.314-.01 1.245-.44 2.069-.96 1.231-.78.659-1.8-3.198-5.74-3.653-3.72-5.486-6.86-8.249-14.12-4.205-11.05-4.523-16.9-1.42-26.09 1.795-5.31 3.424-7.63 10.25-14.58 8.586-8.75 12.025-11.01 18.882-12.44 6.429-1.34 16.206-5.73 23.116-10.38 9.798-6.6 13.536-11.51 19.044-25.04.867-2.13 1.576-4.53 1.576-5.32s1.125-3.9 2.5-6.91c1.375-3 2.5-6.15 2.5-6.98 0-.84.639-2.76 1.419-4.27 1.8-3.48 9.179-26.51 9.98-31.15 2.665-15.44 6.434-27.98 11.16-37.11.88-1.7 2.18-5.02 2.88-7.37 1.18-3.89 5.94-12.14 10.69-18.52 1.02-1.38 2.83-4.3 4.01-6.5s3.32-5.53 4.76-7.41c1.43-1.87 3.5-4.863 4.6-6.649 3.43-5.565 10.63-14.649 17.45-22.003 3.6-3.883 8.27-9.182 10.37-11.776 3.4-4.188 12.83-11.406 20.49-15.665 1.48-.825 4.94-2.927 7.69-4.672 5.11-3.241 25.61-10.507 35.5-12.584 7.13-1.496 24.09-1.512 30.56-.029 9.8 2.249 19.52 7.522 26.23 14.238 3.47 3.462 6.45 6.126 6.63 5.92.19-.205 1.36-3.298 2.62-6.873s3.06-7.4 4.01-8.5 2.96-4.452 4.46-7.45c2.94-5.873 11.8-15.08 17.48-18.157 1.93-1.046 4.77-2.906 6.32-4.134 2.31-1.838 4.69-2.375 13.5-3.038C353.43.037 401.98-.53 407.39.6c2.75.574 8.6 1.556 13 2.182 7.78 1.106 25.04 6.265 26.95 8.055.52.489 1.65.892 2.5.895.85.004 2.9.711 4.55 1.572 1.65.862 6.15 2.946 10 4.633s10.82 5.592 15.5 8.678c10.06 6.648 10.59 6.981 15.62 9.764 2.13 1.184 4.97 3.321 6.31 4.75 1.33 1.428 2.78 2.597 3.21 2.597 2.54 0 18.19 10.724 22.88 15.675 7.42 7.828 12.6 14.375 13.38 16.921.35 1.153 3.16 4.978 6.24 8.5s6.19 7.79 6.92 9.484 1.98 3.621 2.78 4.283c.79.662 2.03 2.65 2.74 4.42s2.3 4.83 3.52 6.8c5.01 8.1 10.43 18.96 13.85 27.75 2 5.13 4.7 10.98 6.01 13 1.3 2.02 3.07 6.45 3.92 9.85s2.46 7.89 3.58 9.99c1.12 2.09 2.04 4.39 2.04 5.11s.69 2.65 1.53 4.27c1.93 3.73 7.84 24.37 9.44 32.95 1.82 9.75 5.61 19.75 8.91 23.51 1.62 1.85 3.27 4.4 3.68 5.67.4 1.28 2.7 4.63 5.1 7.45 2.41 2.82 5.38 6.5 6.61 8.18 6.99 9.58 13.1 16.73 15.54 18.22 1.53.93 3.94 3.07 5.37 4.76 4.06 4.83 13.19 8.16 29.17 10.65 7.28 1.13 9.4 1.89 11.88 4.22 6.44 6.05 7.5 14.91 3.12 26.08-1.46 3.71-3.2 7.43-3.87 8.26-.66.82-1.47 3.18-1.78 5.24s-2.6 7.35-5.08 11.75l-4.5 8.01 4.88 5.09c7.06 7.36 9 13.76 9 29.63 0 8.71-.44 13.4-1.5 15.93-.82 1.98-1.5 4.77-1.51 6.22 0 1.44-.61 3.79-1.35 5.22-.75 1.43-1.65 4.13-2.02 6-.36 1.87-2.11 5.59-3.89 8.26-2.96 4.45-4.51 6.96-10.23 16.54-1.1 1.85-2.9 4.54-4 5.98-1.1 1.45-2.86 4.2-3.92 6.13-1.05 1.92-2.96 4.77-4.25 6.32-1.28 1.56-2.33 3.27-2.33 3.8 0 1.47-9.1 10.88-10.52 10.88-.69 0-1.97 1.09-2.85 2.44-.88 1.34-3.97 3.64-6.86 5.11-5.93 3.01-22.16 8.4-25.38 8.43-1.17.01-3.19.85-4.5 1.86-3.6 2.78-11.62 5.16-17.38 5.16h-5.13l-1.33 5.25c-6.21 24.57-18.95 56.56-32.36 81.25-14.64 26.96-31.52 49.55-53.09 71.04-40.71 40.57-86.54 62.41-139.56 66.52-12.64.98-12.39.98-26.04-.11z"/><path d="M380.98 721.83c43.34-8.65 81.36-29.67 115.36-63.79 23.01-23.1 41.23-48.74 56.99-80.2 20.44-40.78 33.06-84.56 38.08-132.05.84-7.94 1.63-14.54 1.75-14.67.13-.12 1.93.61 4.01 1.62 7.63 3.72 12.61 4.01 21.72 1.27 11.54-3.46 18.57-13.98 21.88-32.73 1.17-6.58 1.74-12.33 1.28-12.79s-1.92-.44-3.25.04c-1.32.48-6.23 1.44-10.91 2.14-7.97 1.19-8.83 1.13-13.82-.85-2.92-1.17-8.08-3.05-11.46-4.19-3.37-1.13-7.73-3.32-9.68-4.85s-5.36-3.71-7.58-4.83c-5.16-2.61-17.16-15.22-21.22-22.29-1.72-2.99-4.26-6.97-5.65-8.84s-3.23-5.47-4.07-8c-.85-2.53-3.35-7.97-5.55-12.09-2.2-4.13-4.71-9.11-5.57-11.08-1.07-2.45-2.6-3.96-4.85-4.77-1.8-.65-6.38-3.77-10.16-6.94-6.49-5.42-20.08-14.98-28.32-19.94-3.89-2.34-11.74-10.47-21.25-22.02-5.48-6.65-13.56-12.29-20.82-14.52-5.76-1.78-34.75-4.51-49.12-4.64-6.66-.06-12.21-.65-14.88-1.59-2.34-.83-5.55-1.5-7.15-1.5-5.68 0-39.04-9.91-45.35-13.47-2.2-1.24-6.92-3.24-10.5-4.44-3.57-1.19-8.97-3.73-12-5.63-3.02-1.89-7.3-4.29-9.5-5.32-5.31-2.49-13.8-12.44-17.78-20.85l-3.22-6.79.19-29c.12-17.85.63-30.55 1.32-33.03.62-2.22.98-6.04.79-8.5l-.34-4.47-1.84 4.27c-2.44 5.62-4.9 7.41-16.31 11.83-15.51 6.01-30.38 17.57-36.89 28.68-2 3.4-4.75 7.54-6.13 9.2-3.57 4.31-8.24 11.53-14.89 23.02-3.19 5.5-6.83 11.39-8.1 13.09-1.26 1.7-2.3 3.69-2.3 4.41s-1.14 2.81-2.54 4.64c-1.39 1.83-4.4 7.27-6.68 12.09-2.27 4.82-6.04 11.92-8.38 15.77-2.33 3.85-5.2 10.37-6.39 14.5-5.7 19.88-11.65 37.21-15.15 44.11-2.17 4.29-3.86 9.07-3.86 10.93 0 2.9-.8 6.14-5.08 20.53-.51 1.69-.92 3.8-.92 4.69s-2.18 8.33-4.84 16.54c-4.51 13.92-5.28 15.49-11.43 23.31-14.42 18.35-26.41 22.9-41.65 15.84-7.637-3.54-8.783-4.16-17.132-9.26-3.428-2.09-6.843-3.56-7.59-3.28-.832.32-1.357 2.08-1.357 4.56 0 2.21-.45 4.03-1 4.03s-1 .9-1 2 .45 2 1 2 1 1.09 1 2.42c0 5.78 1.962 6.74 8.346 4.08 4.451-1.86 10.654-2 10.654-.23 0 1.51-7.361 3.7-14.879 4.41-5.941.57-7.079-.22-7.106-4.93-.008-1.52-.465-2.75-1.015-2.75s-1-2.25-1-5 .45-5 1-5 1-1.77 1-3.92c0-3.35-.475-4.21-3.25-5.91-6.575-4.02-15.905-8.35-16.568-7.69-.638.64-1.191 12.64-.945 20.52.06 1.92.033 5.07-.06 7-.092 1.92.538 8.22 1.4 14 1.811 12.12 5.493 20.83 11.425 27 4.153 4.32 6.388 5.41 15.42 7.52 5.458 1.27 6.403 1.22 11.962-.65 3.32-1.12 7.291-2.93 8.826-4.02 2.764-1.97 2.79-1.97 2.79-.03 0 4.93 2.289 24.06 4.549 38.05 17.91 110.87 81.01 203.32 163.55 239.61 16.39 7.21 38.48 13.38 55.55 15.52 12.53 1.58 46.57.47 58.44-1.9z" fill="#e8cdba"/><path d="M359.89 717.23c0-.83.68-1.5 1.5-1.5.83 0 1.5.67 1.5 1.5 0 .82-.67 1.5-1.5 1.5-.82 0-1.5-.68-1.5-1.5zm12.01.25c.01-1.75 4.62-3.75 10.27-4.45 2.63-.32 5.02-.97 5.31-1.45.29-.47 1.3-.85 2.23-.85.94 0 3.39-.9 5.44-2 4.69-2.51 5.74-2.51 5.74 0 0 1.11-.67 2-1.5 2-.82 0-1.5.41-1.5.92 0 .5-1.45 1.24-3.22 1.62-1.77.39-3.9 1.08-4.75 1.53-.84.45-3.66 1.1-6.26 1.43-2.6.34-4.98 1.04-5.3 1.55-.88 1.42-6.47 1.15-6.46-.3zm31.99-9.25c0-.83.68-1.5 1.5-1.5.83 0 1.5.67 1.5 1.5 0 .82-.67 1.5-1.5 1.5-.82 0-1.5-.68-1.5-1.5zM71.993 425.83c-3.594-1.91-6.99-7.12-7.06-10.82-.115-6.1 6.852-13.28 12.884-13.28 6.017 0 13.074 7.01 13.074 13 0 3.9-3.677 9.47-7.436 11.27-4.55 2.17-7.154 2.13-11.462-.17z"/><path d="M82.746 423.3c6.655-3.44 6.655-13.71 0-17.15-9.026-4.67-18.343 4.66-13.459 13.47 2.622 4.73 8.384 6.31 13.459 3.68z" fill="#f2f2f2"/><path d="M605.99 422.83c-3.59-1.91-6.99-7.12-7.06-10.82-.11-6.1 6.86-13.28 12.89-13.28 6.01 0 13.07 7.01 13.07 13 0 3.9-3.68 9.47-7.43 11.27-4.56 2.17-7.16 2.13-11.47-.17z"/><path d="M616.75 420.3c6.65-3.44 6.65-13.71 0-17.15-9.03-4.67-18.35 4.66-13.46 13.47 2.62 4.73 8.38 6.31 13.46 3.68z" fill="#ececec"/><path d="M323.35 288.27c-3.12-3.11-3.12-5.97 0-9.09 3.11-3.11 5.97-3.11 9.09 0 3.22 3.22 3.15 6.85-.18 9.47-3.46 2.73-5.92 2.62-8.91-.38zm48.54-4.54c-2.7-2.71-2.52-6.58.46-9.55 3.11-3.11 5.97-3.11 9.09 0 3.11 3.12 3.11 5.98 0 9.09-2.98 2.98-6.85 3.16-9.55.46zm72.25-26.75c-5.52-.26-7.25-.69-7.25-1.8 0-1.65 6.27-1.91 19.35-.81 5.45.46 7.65 1.04 7.65 2 0 1.39-2.03 1.46-19.75.61zm-57.25-10.75c0-.83.68-1.5 1.5-1.5.83 0 1.5.67 1.5 1.5 0 .82-.67 1.5-1.5 1.5-.82 0-1.5-.68-1.5-1.5zm-16-3c0-.83.68-1.5 1.5-1.5.83 0 1.5.67 1.5 1.5 0 .82-.67 1.5-1.5 1.5-.82 0-1.5-.68-1.5-1.5zm-27.5-3.26c-4.84-2.53-5.89-2.95-9.27-3.69-1.76-.39-3.46-1.12-3.78-1.63-.31-.51-1.48-.92-2.59-.92s-5.29-1.58-9.29-3.5c-4-1.93-7.79-3.5-8.42-3.5s-1.15-.45-1.15-1-.56-1.01-1.25-1.02c-1.52-.02-5.75-4.34-5.75-5.87 0-1.85 3.91-1.25 5.73.89.94 1.1 2.29 2 2.99 2 .71 0 1.28.45 1.28 1s.52 1 1.15 1 4.42 1.57 8.42 3.5c4 1.92 8.18 3.5 9.29 3.5s2.28.41 2.59.92c.32.51 2.02 1.24 3.78 1.63 3.35.73 4.16 1.05 9.6 3.78 1.83.92 4.2 1.67 5.25 1.67 1.06 0 1.92.67 1.92 1.5 0 2.01-6.47 1.85-10.5-.26zm16.5.26c0-.83.68-1.5 1.5-1.5.83 0 1.5.67 1.5 1.5 0 .82-.67 1.5-1.5 1.5-.82 0-1.5-.68-1.5-1.5zm-69-29c0-.83.68-1.5 1.5-1.5.83 0 1.5.67 1.5 1.5 0 .82-.67 1.5-1.5 1.5-.82 0-1.5-.68-1.5-1.5zm-58-42c0-.83.68-1.5 1.5-1.5.83 0 1.5.67 1.5 1.5 0 .82-.67 1.5-1.5 1.5-.82 0-1.5-.68-1.5-1.5zm6-8.45c0-2.09 1.08-4 3.65-6.5 2.01-1.96 4.04-3.55 4.5-3.55.47 0 .85-.5.85-1.11 0-1.43 8.56-9.89 10-9.89.6 0 2.31-1.13 3.79-2.51 1.49-1.38 3.61-2.8 4.71-3.14s2.23-.93 2.5-1.31c.61-.84 9.47-4.01 13.25-4.74 1.96-.38 2.75-.12 2.75.89 0 1.43-5.13 4.11-10.25 5.35-1.51.37-2.75 1.03-2.75 1.46s-1.01 1.04-2.25 1.36c-1.24.31-3.47 1.71-4.96 3.11-1.48 1.39-3.21 2.53-3.84 2.53-1.59 0-18.95 18-18.95 19.65 0 .74-.67 1.35-1.5 1.35-.99 0-1.5-1-1.5-2.95z"/><path d="M603.28 496.71c3.24-1.64 6.47-2.98 7.17-2.98 2.34 0 23.44-7.2 23.44-8 0-.43 1.12-1.07 2.48-1.41 1.37-.34 3.48-1.96 4.69-3.61 1.21-1.64 2.8-2.98 3.52-2.98 1.46 0 8.04-6.93 9.8-10.32.63-1.2 2.57-4.16 4.32-6.58 1.76-2.42 3.19-4.78 3.19-5.24s1.97-3.43 4.37-6.6 5.54-8.09 6.98-10.94 3.04-5.45 3.56-5.77c1.18-.73 5.43-9.69 7.09-14.93 2.59-8.21 5-22.23 4.99-29.02-.03-12.25-2.17-18.76-8.87-26.96l-5.86-7.17 2.37-3.46c1.3-1.9 2.37-3.85 2.37-4.33s.89-2.12 1.97-3.63c1.08-1.52 2.26-4.74 2.63-7.16s1.22-5.07 1.89-5.89c.68-.83 2.44-4.19 3.92-7.48 2.24-4.98 2.65-7.21 2.49-13.47-.18-6.66-.5-7.81-2.86-10.17-2.65-2.65-7.85-4.16-18.04-5.24-4.19-.45-13.2-3.26-19-5.94-1.37-.63-3.78-2.64-5.34-4.45s-4.11-3.95-5.65-4.75c-1.55-.8-3.84-3.15-5.09-5.23-1.25-2.07-4.33-6.11-6.84-8.96-8.59-9.73-15.08-18.17-15.08-19.61 0-.79-1.72-3.64-3.82-6.32-4.04-5.15-8.4-16.87-9.64-25.88-.38-2.75-1.37-7.03-2.2-9.5-.84-2.48-1.69-5.36-1.9-6.4-.8-3.98-5.78-18.2-8.45-24.1-2.73-6.05-4.18-10.36-4.47-13.25-.17-1.78-1.91-5.64-3.86-8.57-1.94-2.93-3.85-6.65-4.23-8.26-.39-1.61-1.02-3.37-1.39-3.92-.38-.55-1.51-3.25-2.52-6-1-2.75-2.65-6.2-3.67-7.66s-1.85-3.16-1.85-3.79c0-1.08-.68-2.22-5.81-9.76-1.21-1.77-2.19-3.87-2.19-4.68 0-.8-1.06-2.73-2.36-4.29-1.3-1.55-3.09-4.26-4-6.017-.9-1.757-3.8-5.807-6.44-9s-6.22-8.281-7.94-11.306c-2.86-5.022-14.92-18.051-19.76-21.353-1.1-.75-5.08-2.989-8.85-4.977-3.76-1.987-8.6-5.201-10.75-7.142-2.15-1.94-4.36-3.528-4.91-3.528-.56 0-3.25-1.575-5.99-3.5s-5.34-3.5-5.78-3.5-2.35-1.332-4.26-2.959c-1.9-1.628-4.02-2.978-4.71-3-.69-.023-1.25-.461-1.25-.973 0-.513-1.01-1.232-2.25-1.597-1.24-.366-6.3-2.457-11.25-4.648-17.05-7.544-25.21-10.406-37-12.967-5.78-1.256-67.66-2.007-83.5-1.014-10.48.657-10.51.669-17.84 5.543-9.8 6.529-16.92 13.834-19.78 20.299-1.3 2.924-2.73 5.316-3.18 5.316s-2.06 3.165-3.57 7.034c-2.66 6.794-2.73 7.524-2.26 21.431.29 8.712.98 15.313 1.74 16.716 1.78 3.303 1.72 57.792-.08 64.212-.88 3.14-1.15 9.21-.86 19.39.42 14.67.46 14.91 4.15 22.68 3.92 8.26 12.7 18.54 15.82 18.54.94 0 3.04 1.12 4.68 2.5 1.63 1.37 3.41 2.5 3.94 2.5s2.04.83 3.36 1.84c1.31 1.01 5.98 3.07 10.38 4.58 4.4 1.5 8.75 3.41 9.66 4.23.92.82 2.27 1.59 3 1.7.74.11 4.04 1.14 7.34 2.29 8.8 3.07 15.6 5.15 19 5.81 3.49.67 5.63 1.15 14.5 3.23 3.58.83 13.03 1.9 21 2.37 7.98.47 18.1 1.31 22.5 1.86 4.4.54 12.52 1.37 18.04 1.83 8.45.7 11.06 1.36 16.5 4.16 10.07 5.19 12.57 7.26 18.96 15.73 4.77 6.32 15.84 17.39 20.05 20.05 8.93 5.63 12.9 8.43 23.42 16.52 6.23 4.79 12.46 8.99 13.85 9.34 1.88.47 3.47 2.48 6.19 7.8 2.01 3.93 5.2 10.07 7.08 13.62 1.87 3.56 3.41 7.35 3.41 8.43s2.1 5.14 4.67 9.03c2.56 3.89 5.74 8.71 7.05 10.72 3.81 5.78 14.58 15.86 19.12 17.9 2.29 1.02 4.16 2.3 4.16 2.84 0 1.11 9.44 5.79 13.08 6.47 1.33.26 4.67 1.44 7.42 2.63 4.27 1.86 6.16 2.09 12.96 1.58 8.36-.62 21.66-4.57 24.96-7.41 1.8-1.55 1.88-1.54 1.25.18-.37 1.01-.67 2.4-.67 3.1s-1.39 1.68-3.1 2.17c-2.84.82-3.12 1.31-3.48 5.82-.87 11.11-3.67 24.02-6.02 27.74-1.32 2.09-2.4 4.21-2.4 4.71s-2.05 3.19-4.55 5.97c-4.08 4.54-5.46 5.35-13.21 7.71-9.24 2.82-13.76 2.78-19.44-.16-1.64-.85-3.2-1.32-3.47-1.06-.27.27-1.35 7.62-2.42 16.33-1.78 14.57-5.73 36.73-7.88 44.23l-.89 3.11 6.18-.02c4.86-.01 7.44-.64 12.07-3z" fill="#5d2d16"/><path d="M597.39 360.75c-1.1-.46-4.92-1.86-8.5-3.1-5.73-1.99-7.6-3.38-15.75-11.69-5.09-5.19-9.25-10.09-9.25-10.9 0-1.86-4.82-12.11-6.06-12.87-.52-.32-.94-1.23-.94-2.02s-1.35-4.29-3-7.79c-1.65-3.49-3-7.09-3-8s-.45-1.65-1-1.65-1-.58-1-1.28c0-1.94-2.72-3.88-11.5-8.19-4.4-2.17-9.64-5.2-11.64-6.73-2.01-1.54-4.13-2.8-4.72-2.8-1.13 0-3.14-3.15-3.14-4.94 0-1.63 3.71-1.26 4.36.44.32.82 1.09 1.5 1.72 1.5.62 0 2.77 1.26 4.78 2.8 2 1.53 7.24 4.56 11.64 6.73 8.78 4.31 11.5 6.25 11.5 8.19 0 .7.45 1.28 1 1.28s1 .74 1 1.65 1.35 4.51 3 8c1.65 3.5 3 7 3 7.79s.42 1.7.94 2.02c1.18.73 6.06 10.97 6.06 12.73 0 .72 2.04 3.56 4.52 6.31 12.65 13.97 12.66 13.98 24.74 18.09 4.68 1.59 7.42 2.04 8.56 1.43.93-.5 3.37-1.18 5.43-1.51 3.56-.57 5.36-2.51 2.33-2.51-.79 0-2.47-1.38-3.75-3.07-1.28-1.68-4.02-5-6.08-7.36s-3.75-4.93-3.75-5.69c0-.77-.9-1.96-2-2.65s-2-2.28-2-3.54-1.8-5.07-4-8.45c-2.2-3.39-4-6.87-4-7.75 0-5.22-12.27-17.49-17.49-17.49-.83 0-1.51-.45-1.51-1s-.89-1-1.99-1c-1.96 0-3.05-.74-9.33-6.34-1.75-1.56-4.87-3.71-6.93-4.77s-3.75-2.42-3.75-3.01-2.92-4.11-6.5-7.81c-3.57-3.7-6.5-7.09-6.5-7.52s-1.35-2.33-3-4.21c-1.65-1.87-3.01-4.18-3.02-5.13-.02-1.97-9.2-12.21-10.94-12.21-.64 0-3.49-2.19-6.35-4.87-2.85-2.67-6.99-5.68-9.19-6.69-2.2-1-5.8-2.97-8-4.36-5.71-3.61-8.56-5.08-9.86-5.08-.63 0-2.94-.86-5.14-1.91-3.93-1.88-9.48-3.22-22.67-5.46-3.67-.62-7.01-1.47-7.42-1.88-.41-.42-3.12-.75-6.02-.75s-5.55-.45-5.89-1-2.59-1-5-1-4.66-.45-5-1-2.14-1-4-1-3.66-.45-4-1-1.48-1-2.53-1-3.51-.9-5.47-2-4.42-2-5.47-2-2.19-.45-2.53-1-1.51-1-2.6-1-2.98-.95-4.19-2.11c-1.22-1.16-3.91-3.2-6-4.54-5.45-3.49-11.71-9.36-11.71-10.97 0-.76-.47-1.38-1.04-1.38-1.43 0-8.67-7.5-9.37-9.71-.69-2.19-5.32-7.29-6.61-7.29-.52 0-1.86-1.8-2.98-4s-2.48-4-3.02-4-.98-.49-.98-1.1c0-.6-.9-2.23-2-3.63s-2-3.4-2-4.45-1.17-3.09-2.6-4.52c-1.44-1.43-3.05-3.88-3.6-5.45-.62-1.79-1.7-2.85-2.9-2.85-1.04 0-1.9-.38-1.9-.84 0-.47-2.24-2.06-4.98-3.55-2.74-1.5-5.32-3.26-5.75-3.93-.42-.66-3.02-2.27-5.77-3.56s-5.78-2.74-6.74-3.23c-2.34-1.2-6.76-1.13-6.76.11 0 .55-.67 1-1.5 1-.93 0-1.5-.95-1.5-2.5 0-2.34.33-2.5 5.01-2.5 2.76 0 5.8.4 6.75.88.96.49 4.22 1.95 7.24 3.25 3.03 1.3 6.32 3.38 7.32 4.62 1.01 1.23 2.43 2.25 3.18 2.25.74 0 2.62 1.01 4.18 2.25 1.56 1.23 3.73 2.75 4.83 3.35 1.09.61 2.15 1.93 2.35 2.94s1.66 3.13 3.25 4.72 2.89 3.91 2.89 5.16.9 3.08 2 4.08c1.1.99 2 2.31 2 2.93s.9 1.89 2 2.84c1.1.94 2 2.31 2 3.05s1.73 2.74 3.85 4.44 4.62 4.7 5.55 6.67c.93 1.96 2.13 3.57 2.67 3.57s1.49 1.12 2.11 2.5c.63 1.37 1.74 2.5 2.47 2.5s2.45 1.78 3.82 3.95c1.47 2.33 5.31 5.79 9.31 8.4 3.75 2.45 7.41 5.17 8.14 6.05s2.37 1.6 3.64 1.6c1.28 0 2.6.45 2.94 1s1.29 1 2.11 1 3.35.9 5.63 2c2.27 1.1 4.93 2 5.89 2s2 .4 2.3.89c.54.87 4.12 1.67 12.07 2.7 2.2.29 4.9.92 6 1.41s4.03 1.11 6.5 1.37c4.29.45 12.32 1.91 25.5 4.66 3.3.68 7.8 2.04 10 3 14.92 6.54 25.51 12.69 31.38 18.22 2.77 2.61 5.77 4.75 6.68 4.75 1.59 0 7.44 5.46 7.44 6.95 0 .4.9 1.55 2 2.55 1.1.99 2 2.54 2 3.44s1.33 3.19 2.96 5.09c1.63 1.91 2.98 3.86 3 4.35.07 1.61 14.33 16.07 18.47 18.74 2.24 1.45 5.16 3.81 6.5 5.25 1.33 1.45 3.02 2.63 3.75 2.63.72 0 1.32.45 1.32 1s.59 1 1.3 1c.72 0 3.63 1.15 6.46 2.56 5.47 2.73 16.24 13.44 16.24 16.16 0 2.12 3.18 9.28 4.12 9.28 1.04 0 3.88 5.95 3.88 8.14 0 1.01.9 2.4 2 3.09s2 2.06 2 3.05 1.69 3.62 3.75 5.85c2.06 2.22 4.25 4.96 4.86 6.08.6 1.13 3.39 3.31 6.19 4.86 4.33 2.39 6.4 2.85 13.9 3.07 5.44.16 9.64-.2 10.99-.94 3.16-1.74 8.31-1.56 8.31.3 0 .92-.94 1.5-2.44 1.5-1.34 0-2.72.45-3.06 1s-1.45 1-2.47 1c-1.03 0-2.04.54-2.27 1.21-.31.95-1.28.95-4.45 0-2.22-.67-6.77-1.21-10.12-1.21-3.34 0-6.35-.45-6.69-1-.95-1.54-3.5-1.19-3.5.48 0 .81-1.24 1.74-2.75 2.07-1.51.32-3.78 1-5.05 1.52-2.76 1.12-6.97 1.1-9.7-.05z"/><path d="M641.89 338.73c0-.55-.59-1-1.31-1s-2.61-1.35-4.19-3-3.29-3-3.79-3c-1.42 0-13.71-12.2-13.71-13.61 0-.69-.83-1.52-1.85-1.85-1.02-.32-3.72-3.39-6.01-6.81-2.28-3.43-5.53-8.03-7.21-10.23s-3.81-5.1-4.74-6.44c-.93-1.33-3.6-4.53-5.94-7.1s-4.25-5.1-4.25-5.63-1.39-2.28-3.09-3.9c-1.71-1.61-4.58-5.86-6.39-9.43-1.82-3.58-4.26-7.37-5.44-8.44-1.18-1.06-3.54-4.44-5.26-7.5-1.71-3.06-4.55-7.81-6.3-10.56-1.76-2.75-3.48-5.79-3.82-6.75-.35-.97-1.33-1.75-2.17-1.75s-1.53-.57-1.53-1.25c-.01-.69-2.37-3.84-5.25-6.99-8.92-9.76-12.75-14.44-12.75-15.55 0-.6-.87-1.35-1.93-1.69s-3.1-2.6-4.52-5.03c-1.67-2.84-3.92-5.03-6.32-6.14-4.03-1.85-5.66-3.09-10.64-8.1-1.92-1.94-4.24-3.25-5.72-3.25s-3.69-1.25-5.43-3.08c-3.34-3.49-13.78-8.92-17.16-8.92-1.24 0-4.44-1.35-7.12-3-2.69-1.65-6.07-3-7.52-3s-2.64-.45-2.64-1-.6-1-1.33-1-1.89-1.05-2.58-2.33c-.68-1.28-2.67-2.84-4.43-3.48-2.04-.74-3.9-2.5-5.17-4.92-1.09-2.08-3.82-5.8-6.05-8.27-4.42-4.91-10.72-13.92-14.05-20.11-1.16-2.16-2.85-4.74-3.75-5.74s-1.64-2.27-1.64-2.83-.9-1.83-2-2.82c-1.1-1-2.01-2.31-2.03-2.91-.09-3.48-14.16-14.593-18.47-14.593-.79 0-3.02-.889-4.96-1.976-5.49-3.087-18.77-8.014-21.6-8.019-1.41-.003-4.43-.905-6.7-2.005-2.28-1.1-5.4-2.003-6.94-2.006s-4.15-.738-5.8-1.631c-1.76-.955-5.06-1.575-8-1.503-16.26.397-30.12 1.382-30.95 2.199-.52.517-1.98.941-3.25.941-1.26 0-2.3.45-2.3 1s-1.12 1-2.5 1c-1.37 0-2.5-.482-2.5-1.071 0-1.909 2.79-3.929 5.43-3.929 1.41 0 2.57-.425 2.57-.944 0-.52 5.74-1.163 12.75-1.43 7.01-.266 15.23-.795 18.25-1.175 5.5-.69 8.06-.135 24 5.207 2.48.829 6.53 1.893 9 2.364 2.48.472 8.33 2.504 13 4.517 4.68 2.013 9.85 4.139 11.5 4.725 9.25 3.284 16.5 7.97 16.5 10.669 0 .59.4 1.07.89 1.07.48 0 1.6 1.51 2.48 3.36s2.28 3.93 3.11 4.62c.84.69 1.52 1.83 1.52 2.52s.68 1.82 1.52 2.51c.83.7 2.27 2.89 3.18 4.87.92 1.99 3.39 5.7 5.48 8.26 2.1 2.55 3.82 5.09 3.82 5.64s1.61 2.73 3.57 4.86c1.96 2.12 5.12 6.21 7.02 9.09 1.98 3 4.45 5.49 5.78 5.82 1.28.32 3.72 2.07 5.43 3.88 1.86 1.98 4.44 3.51 6.47 3.84 1.85.3 5.09 1.71 7.19 3.14 2.1 1.42 5.03 2.59 6.5 2.59 3.47 0 12.74 5.03 16.49 8.94 1.9 1.99 3.91 3.06 5.74 3.06 2.74 0 6.81 2.99 6.81 5 0 .55.61 1 1.35 1s2.1.83 3.03 1.86c.92 1.02 3.39 2.63 5.48 3.57 2.09.95 4.62 3.15 5.62 4.89 1 1.75 3.14 4.53 4.75 6.18s4.74 5.25 6.95 8c6.31 7.87 13.12 15.67 15.57 17.85 1.24 1.11 2.25 2.45 2.25 2.98 0 .54 1.19 2.53 2.64 4.43 1.44 1.9 3.9 6 5.46 9.1s4.65 7.83 6.87 10.5 4.88 6.72 5.91 9c1.04 2.28 3.51 5.88 5.5 8.01s3.62 4.42 3.62 5.08 1.18 2.29 2.61 3.62c3.68 3.41 21.09 26.4 21.88 28.88.35 1.12 1.28 2.05 2.06 2.05.77 0 2.2 1.23 3.16 2.75 2.38 3.72 9.41 11.25 10.5 11.25.48 0 1.87.94 3.08 2.09 5.86 5.56 10.51 7.91 15.64 7.91 3.84 0 5.07.36 5.07 1.5 0 1.19-1.44 1.5-7 1.5-4 0-7-.43-7-1z"/><path d="M651.89 314.67c-.82-.52-2.62-1.39-4-1.94-4.81-1.92-11-6.93-11-8.91 0-.56-3.15-3.52-7-6.59s-7-6.24-7-7.05c0-.8-.45-1.45-1-1.45-1.5 0-9-7.05-9-8.46 0-.68-.9-2.05-2-3.04-1.1-1-2-2.39-2-3.09s-.9-1.56-2-1.91c-1.25-.4-2-1.52-2-2.97 0-1.5-1.06-3.01-2.94-4.2-3.32-2.1-7.01-6.91-9.86-12.83-1.06-2.2-3.11-5.09-4.56-6.43-1.45-1.33-2.64-2.91-2.64-3.5-.01-.59-1.26-2.42-2.79-4.07s-3.57-4.69-4.54-6.75c-.97-2.07-2.42-3.75-3.22-3.75s-1.45-.7-1.45-1.55c0-1.76-4.85-6.37-6.75-6.42-.69-.02-1.25-.62-1.25-1.34 0-.71-1.61-2.85-3.58-4.75-1.96-1.89-4.42-5.28-5.45-7.53s-2.57-4.66-3.42-5.37-1.55-1.8-1.55-2.42-1.59-3.75-3.52-6.96c-1.94-3.21-4.37-8.24-5.4-11.18s-3.5-7.78-5.48-10.77c-1.98-2.98-3.6-6.35-3.6-7.48 0-1.14-2.19-6.72-4.88-12.4-2.68-5.68-6.32-13.71-8.09-17.83-4.22-9.87-6.38-14.39-7.18-15-.35-.28-3.18-5.68-6.28-12-4.15-8.488-7.14-13.076-11.38-17.503-11.86-12.38-19.02-18.445-24.01-20.339-2.73-1.039-5.95-2.803-7.15-3.918-2.01-1.87-9.9-5.009-21.03-8.364-2.47-.747-6.06-2.15-7.96-3.118s-4.18-1.761-5.05-1.761-2.02-.408-2.54-.908c-1.07-1.024-6.02-1.645-25.45-3.192-30.39-2.42-48.49-.809-61.29 5.456-2.98 1.454-6.07 2.644-6.88 2.644s-3.24 1.338-5.4 2.972c-2.16 1.635-4.73 2.985-5.71 3-.98.016-2.08.816-2.44 1.778-1.39 3.653-5.28 5.795-5.28 2.904 0-.741.71-2.766 1.57-4.5 1.12-2.24 2.28-3.154 4-3.154 1.34 0 2.43-.45 2.43-1s.47-1 1.04-1c.58 0 2.01-.9 3.19-2s3.41-2 4.96-2 2.81-.353 2.81-.784c0-.92 7.77-4.031 13.5-5.408 13.67-3.282 30.47-3.864 56-1.939 18.23 1.375 24.05 2.371 31.5 5.388 3.58 1.447 11.38 4.255 17.35 6.239 6.27 2.084 11.97 4.65 13.5 6.081 1.46 1.361 4.45 2.984 6.65 3.607 2.72.772 6.24 3.319 11.02 7.975 3.87 3.763 7.57 6.841 8.23 6.841s2 1.238 2.98 2.75c.97 1.513 2.69 3.65 3.81 4.75 3.28 3.214 8.45 10.759 8.54 12.447.04.854 1.81 4.706 3.92 8.556 5.73 10.41 14 27.59 14 29.08 0 .48 2.21 5.39 4.91 10.9s5.19 11.66 5.53 13.67 1.28 3.91 2.09 4.22 1.47 1.18 1.47 1.94.9 2.42 2 3.69 2 3.11 2 4.09.45 2.07 1 2.41 1 1.63 1 2.86c0 1.24 1.15 3.8 2.55 5.69 1.4 1.9 3.7 5.81 5.11 8.7 1.42 2.88 2.97 5.25 3.46 5.25.48 0 .88.9.88 2s.45 2 1 2 1 .56 1 1.25c0 2.35 12.48 15.75 14.66 15.75.74 0 1.34.85 1.34 1.89s.64 2.14 1.43 2.44c.78.3 2.18 2.15 3.11 4.11.93 1.95 2.09 3.56 2.57 3.56.49 0 .89.6.89 1.34s.9 2.16 2 3.16c1.1.99 2 2.23 2 2.75s1.8 2.99 4 5.48c2.2 2.5 4 5.16 4 5.9 0 1.74 2.45 4.83 7.75 9.77 2.34 2.17 4.25 4.53 4.25 5.23s1.01 2.34 2.25 3.63c2.34 2.45 3.46 4.01 6.78 9.53 1.1 1.81 3.54 4.2 5.44 5.32 1.89 1.12 3.72 2.9 4.05 3.96.34 1.06 1.03 1.93 1.55 1.93.51 0 5.28 4.27 10.61 9.5 5.33 5.22 10.41 9.5 11.28 9.5.88 0 2.6.7 3.83 1.56 1.77 1.24 4.28 1.49 11.97 1.17 5.36-.21 10.75-.75 11.99-1.18 2.52-.88 3.17 1.13 1.05 3.25-1.45 1.45-24.51 1.57-26.8.14zm-277-88.94c-.82-.54-2.44-.98-3.58-.99-2.76-.02-15.22-3.76-18.57-5.58-1.46-.79-3.8-1.43-5.19-1.43-1.4 0-2.82-.45-3.16-1s-1.38-1-2.32-1c-.93 0-4.72-2.03-8.41-4.5-3.69-2.48-7.09-4.5-7.56-4.5-1.25 0-5.21-4.43-5.21-5.82 0-1.83 2.9-1.4 5.84.87 5.64 4.37 16.65 10.95 18.31 10.95.95 0 2.01.45 2.35 1s1.76 1 3.16 1c1.39 0 3.73.64 5.19 1.42 5.32 2.85 19.18 6.47 27.9 7.28 3.62.33 5.25.92 5.25 1.89 0 1.06-1.54 1.4-6.25 1.39-3.44-.01-6.92-.45-7.75-.98z"/><path d="M103.89 489.34c0-.77-.91-5.81-2.02-11.2s-2.905-16.99-3.993-25.77-2.211-16.2-2.496-16.49c-.284-.28-3.323.47-6.753 1.68-7.891 2.77-9.526 2.73-18.915-.39-19.013-6.33-25.964-23.02-25.907-62.18l.026-18.23-4.97-2.14c-2.734-1.18-4.971-2.27-4.971-2.43 0-.17.278-1.02.618-1.91.553-1.44.982-1.4 4.057.42 1.892 1.11 4.294 2.03 5.338 2.03s3.558 1.12 5.587 2.5c2.715 1.84 4.027 2.22 4.974 1.44.957-.8 1.566-.55 2.379.97.601 1.12 1.972 2.51 3.047 3.09 1.646.88 1.867.76 1.396-.73-.532-1.69-.488-1.69.883-.02.793.96 2.009 1.75 2.704 1.75 1.008 0 1.005-.31-.018-1.55-2.092-2.52.397-4.14 2.792-1.82 2.682 2.6 3.408 5.09 1.68 5.75-.79.31-1.437.12-1.437-.41 0-.54-.505-.97-1.122-.97-.772 0-.73.47.133 1.51.691.83 1.758 1.42 2.372 1.3 1.278-.25 12.951 5.32 13.44 6.41.583 1.29 10.88 6.78 12.734 6.78.998 0 2.828.95 4.066 2.11 3.976 3.74 15.746 3.8 20.216.12 1.15-.95 3.95-3.08 6.22-4.73s6.18-5.79 8.69-9.21c2.52-3.41 5.17-6.43 5.91-6.72.74-.28 1.34-1.19 1.34-2.03s1.06-4.34 2.37-7.78c4.28-11.34 6.65-19.22 6.64-22.06 0-1.54.61-4.02 1.37-5.5.76-1.49 1.71-4.68 2.12-7.1.4-2.42 1.35-5.89 2.11-7.72.77-1.82 1.4-4.57 1.41-6.1.01-3.2 2.01-9.41 3.67-11.42 2.08-2.51 9.84-24.27 11.9-33.36 2.79-12.28 5.91-20.42 9.98-26 1.2-1.65 4.56-7.95 7.45-14 2.9-6.05 6.12-12.09 7.15-13.43 1.04-1.33 2.75-4.36 3.8-6.75 1.06-2.38 2.33-4.32 2.82-4.32.5 0 1.6-1.76 2.44-3.9.84-2.15 3.05-6.31 4.91-9.25 1.86-2.95 3.95-6.25 4.64-7.35s2.49-3.96 3.99-6.35c1.5-2.38 4.87-7.03 7.48-10.31 2.61-3.29 4.75-6.6 4.75-7.36 0-2.56 17.48-18.96 24.29-22.79 7.46-4.19 9.3-5.1 11.01-5.39.99-.17 3.67-1.21 5.94-2.3 2.28-1.1 4.59-2 5.13-2 1.43 0 5.63-4.13 5.63-5.52 0-.65.72-2.61 1.59-4.36 1.19-2.38 1.43-4.74.97-9.401-.34-3.422-.97-13.647-1.41-22.722-.43-9.075-1.3-17.725-1.93-19.221-1.76-4.185-12.81-14.502-18.04-16.845-13.83-6.194-31.04-8.691-38.48-5.582-1.78.743-5.46 1.685-8.18 2.092-2.72.408-7.21 1.529-9.98 2.492s-6.84 2.319-9.04 3.015c-9.35 2.957-32.88 18.225-38.39 24.915-1.99 2.408-6.85 7.811-10.81 12.008-3.96 4.196-8.56 9.688-10.23 12.204-1.66 2.516-3.94 5.397-5.05 6.403s-2.02 2.25-2.02 2.765-1.72 3.487-3.82 6.597c-15.75 23.29-20.18 30.76-20.18 34.05 0 1.09-.45 2.27-1 2.61s-1 1.43-1 2.43-.65 2.36-1.43 3.01c-.79.66-1.75 2.61-2.13 4.34s-1.07 3.84-1.54 4.68c-2.01 3.63-3.528 8.85-3.796 13.04-.159 2.47-.922 6.01-1.696 7.87-.774 1.85-1.407 4.47-1.407 5.82s-1.074 5.68-2.387 9.63c-1.312 3.95-2.714 8.75-3.115 10.68-.401 1.92-1.079 3.95-1.506 4.5-.855 1.1-4.529 10.96-9.402 25.23-1.734 5.08-3.701 9.78-4.371 10.45s-1.229 2.14-1.241 3.27c-.028 2.72-9.098 12.04-15.421 15.84-2.781 1.67-5.732 3.59-6.557 4.26s-2.931 1.53-4.681 1.9c-1.749.37-3.699 1.3-4.332 2.06-.633.77-3.251 1.69-5.819 2.07-2.567.37-6.018 1.38-7.668 2.24s-3.515 1.66-4.144 1.77-4.335 3.51-8.237 7.55c-7.908 8.2-12.119 16.62-12.119 24.22 0 4.81 1.698 10.64 3.098 10.64.496 0 .902 1.05.902 2.34 0 3.49 2.713 8.48 7.96 14.66 4.703 5.53 5.465 9.08 2.107 9.81-2.827.61-9.085 6.41-9.739 9.02-.366 1.47-1.53 4.62-2.584 7.01-2.808 6.35-3.624 25.17-1.388 32.01 1.065 3.25 1.644 8.42 1.644 14.68 0 11 1.584 17.65 6.616 27.77 1.861 3.74 3.384 7.4 3.384 8.12s.85 2.39 1.888 3.71c1.039 1.32 2.352 4.08 2.917 6.12.566 2.05 1.999 4.97 3.185 6.49 1.185 1.52 3.464 4.9 5.064 7.51 2.257 3.69 4.129 5.32 8.363 7.25 3 1.37 5.943 2.5 6.539 2.5s2.775 1.06 4.843 2.37c4.275 2.7 18.571 6.59 24.641 6.7 2.233.05 6.31.91 9.06 1.93 6.302 2.32 20.499 2.75 20.499.61z" fill="#5d2d16"/><path d="M66.318 450.35c-7.547-2.75-13.427-6.16-13.427-7.78 0-.68-1.09-2.38-2.422-3.79-1.332-1.4-2.74-4.28-3.129-6.4-.629-3.42-.498-3.81 1.171-3.49 1.034.2 2.016 1.31 2.183 2.47.167 1.17 1.405 3.15 2.75 4.42 1.346 1.26 2.447 2.91 2.447 3.66 0 2.44 14.015 9.16 19.323 9.25 2.522.05 1.749 3.49-.833 3.71-1.095.09-4.723-.83-8.063-2.05zm5.573-85.23c0-.83 1.942-1.3 2.387-.58.289.47-.13.85-.931.85s-1.456-.12-1.456-.27zm11-10.89c0-.83.45-1.5 1-1.5s1-.9 1-2 .366-2 .813-2c.448 0 1.436-1.59 2.195-3.52.76-1.94 2.194-4.26 3.187-5.16s1.805-2.46 1.805-3.48c0-1.01.338-1.85.75-1.85.898-.01 3.25-4.85 3.25-6.69 0-.72.45-1.3 1-1.3s1-.91 1-2.02c0-1.1.392-2.79.87-3.75.479-.95 1.839-3.76 3.009-6.23 1.18-2.48 3.01-5.85 4.06-7.5s1.95-3.79 1.99-4.75c.04-.97.42-1.75.85-1.75s1.4-2.14 2.15-4.75c.75-2.62 2.19-6.52 3.21-8.69 1.03-2.17 1.86-4.53 1.86-5.25s.45-1.31 1-1.31 1-1.35 1-3 .45-3 1-3 1-1.1 1-2.44c0-1.35.45-2.72 1-3.06s1-1.49 1-2.56.45-1.94 1-1.94 1-1.33 1-2.94c0-1.62.43-3.21.95-3.53s4.41-7.48 8.64-15.92c4.23-8.43 8.98-16.81 10.55-18.61 1.57-1.79 3.3-4.94 3.85-6.98s1.91-4.75 3.01-6.02 2-2.58 2-2.92c0-.33 1.08-1.76 2.39-3.18 1.32-1.42 3.18-4.12 4.14-5.99.95-1.88 3.48-5.32 5.6-7.64 2.13-2.33 3.87-4.58 3.87-5.01s1.03-1.9 2.28-3.27 3.46-4.52 4.9-6.99c1.45-2.48 3.57-5.58 4.73-6.91 1.15-1.32 2.09-2.67 2.09-3.01 0-.33 1.09-1.78 2.42-3.21 1.33-1.44 3.84-5.42 5.57-8.86 1.74-3.43 3.95-6.45 4.92-6.7s2.69-2.37 3.82-4.7 3.7-5.55 5.7-7.17 5.54-4.54 7.86-6.5c2.31-1.96 6.69-5.18 9.71-7.16 3.03-1.98 6.4-4.46 7.5-5.49 1.1-1.04 3.56-2.77 5.46-3.84 1.9-1.08 5-2.97 6.88-4.2 1.89-1.24 4.39-2.26 5.55-2.26s3.4-.68 4.98-1.5c2.12-1.11 6.32-1.49 16.25-1.49h13.38v2.5c0 1.55-.57 2.5-1.5 2.5-.82 0-1.5-.45-1.5-1 0-1.3-20.42-1.34-22.76-.05-.96.53-4.33 1.67-7.49 2.53-3.16.87-5.75 1.96-5.75 2.42 0 .47-1.41 1.44-3.13 2.15-1.73.72-5.21 2.93-7.75 4.93-2.54 1.99-6.87 5.13-9.62 6.98s-6.12 4.41-7.5 5.69c-1.37 1.29-4.4 3.69-6.73 5.33-2.55 1.81-5.22 4.96-6.73 7.93-1.37 2.72-3.29 5.2-4.27 5.52-.97.32-2.89 2.91-4.27 5.75-1.37 2.84-3.85 6.86-5.5 8.93-3.62 4.55-6.7 8.88-10.59 14.89-1.6 2.47-4.37 6.36-6.16 8.63-3.55 4.52-7.52 9.93-11.26 15.37-7.22 10.48-9.21 13.74-9.79 16.04-.35 1.4-2.17 4.55-4.05 7-3.52 4.59-19.65 35.52-19.65 37.68 0 .67-.9 2.82-2 4.78s-2 4.42-2 5.47-.45 2.19-1 2.53-1 1.45-1 2.46c0 1.02-.96 3.8-2.14 6.19-2.53 5.14-3.29 7-5.02 12.35-.71 2.2-2.09 5.47-3.07 7.28-.97 1.8-1.77 3.94-1.77 4.75s-.37 1.47-.81 1.47c-1.26 0-5.19 7.5-5.19 9.88 0 1.17-.45 2.12-1 2.12s-1 1.35-1 3-.45 3-1 3-.999.9-.999 2-.45 2-1 2-1 .9-1 2-.45 2-1 2-1 .73-1 1.63-.787 2.37-1.75 3.26c-2.253 2.1-4.25 5.66-4.25 7.59 0 .84-.45 1.52-1 1.52s-1 .9-1 2c0 1.46-.667 2-2.5 2-1.556 0-2.5-.57-2.5-1.5z"/><path d="M28.922 316.48c.039-1.53 3.578-4.19 6.969-5.24 1.375-.43 3.694-1.62 5.154-2.64 1.46-1.03 3.281-1.87 4.047-1.87s3.151-1.8 5.299-4 4.49-4 5.203-4 1.304-.57 1.312-1.25c.009-.69 2.709-4.05 6-7.47 3.292-3.42 5.985-7.08 5.985-8.13s.655-2.45 1.456-3.12c1.658-1.37 8.544-14.91 8.544-16.79 0-.68.45-1.24 1-1.24s1-1.1 1-2.44c0-1.35.45-2.72 1-3.06s1-1.63 1-2.87.788-3.13 1.75-4.2c2.724-3.01 6.25-10.37 6.25-13.03 0-1.32.37-2.4.822-2.4.903 0 5.178-8.93 5.178-10.82 0-.65.45-1.18 1-1.18s1-1.16 1-2.57c0-1.42.563-3.22 1.249-4.01 6.42-7.38 10.75-13.79 10.75-15.93 0-.78 1.35-2.96 3-4.84s3-3.94 3-4.57c0-1.77 3.57-8.31 5.84-10.71 1.11-1.17 3.67-5.45 5.7-9.5 3.83-7.68 7-11.87 8.96-11.87.64 0 2.21-2.25 3.5-5s2.69-5 3.1-5c.42 0 1.02-.79 1.34-1.75.31-.97 2.16-3.43 4.1-5.47 1.94-2.05 4.1-5.06 4.78-6.7.69-1.63 2.92-4.77 4.97-6.98 2.04-2.21 3.71-4.33 3.71-4.73 0-1.43 26.93-30.373 28.26-30.373.46 0 2.05-1.151 3.53-2.557 4.94-4.668 15.78-9.021 40.21-16.151 3.03-.883 5.93-1.985 6.45-2.449 1.35-1.2 22.3-1.057 23.05.157.34.55 1.9 1 3.47 1 2.78 0 10.3 3.34 12.78 5.679 2 1.882 1.46 3.321-1.25 3.321-1.37 0-2.5-.366-2.5-.814 0-1.403-8.05-5.186-11.03-5.186-1.57 0-3.13-.45-3.47-1-.82-1.321-18.5-1.321-18.5 0 0 .55-.88 1-1.95 1-1.08 0-2.99.425-4.25.944-1.27.52-5.67 1.923-9.8 3.119-4.12 1.195-9.41 3.02-11.74 4.055s-4.89 1.882-5.69 1.882-1.73.45-2.07 1-1.49 1-2.56 1-1.94.45-1.94 1-.72 1-1.6 1-2.86 1.35-4.4 3-3.25 3-3.79 3c-1.27 0-18.21 16.313-18.22 17.553 0 .52-2.25 3.3-5 6.19-2.74 2.88-5 5.8-5.01 6.5-.01.69-1.81 2.81-4 4.7s-3.98 4.16-3.98 5.04-2.18 4.18-4.84 7.33-6.55 8.64-8.63 12.21c-2.09 3.56-4.17 6.48-4.62 6.48-1.74 0-5.21 4.81-9.58 13.25-2.49 4.81-4.89 8.75-5.33 8.75-.94 0-5 7.52-5 9.28 0 .67-1.35 2.79-3 4.72-1.65 1.92-3 4.03-3 4.68 0 1.67-5.96 11.07-9.25 14.58-1.51 1.62-2.75 3.74-2.75 4.7s-1.8 5.3-3.995 9.64c-2.197 4.34-3.997 8.45-4 9.12-.002.67-.904 2.82-2.004 4.78s-2 4.12-2 4.81c0 .68-.9 1.89-2 2.69-1.1.79-2 2.44-2 3.66s-.45 2.5-1 2.84-1 1.94-1 3.56c0 1.61-.45 2.94-1 2.94s-1 .9-1 2-.45 2-1 2-1 .9-1 2-.45 2-1 2-1 .9-1 2-.45 2-1 2-1 .8-1 1.78c0 .97-.9 2.42-2 3.22-1.1.79-2 2.49-2 3.77 0 1.54-2.062 4.36-6 8.23-3.3 3.24-6 6.31-6 6.83 0 .51-1.237 1.74-2.75 2.73-1.512.98-3.943 3.06-5.401 4.61-1.458 1.56-3.189 2.83-3.846 2.83s-2.416.87-3.91 1.93c-1.493 1.06-3.907 2.23-5.363 2.6-1.456.36-3.172 1.29-3.811 2.07-1.443 1.73-5.93 1.85-5.888.15zm37.949 42.72c-.696-.84-1.525-1.26-1.844-.94-.318.32.084.99.893 1.51 2.117 1.34 2.394 1.17.951-.57z"/><path d="M244.64 439.82c.02 37.95-30.75 68.73-68.71 68.73s-68.72-30.78-68.71-68.73c-.01-37.96 30.75-68.74 68.71-68.74s68.73 30.78 68.71 68.74z" fill="url(#b)"/><path d="M590.78 435.07c.01 37.96-30.76 68.74-68.72 68.74-37.95 0-68.72-30.78-68.71-68.74-.01-37.96 30.76-68.74 68.71-68.74 37.96 0 68.73 30.78 68.72 68.74z" fill="url(#c)"/><path d="M349.51 633.24c-1.04-.79-3.97-1.73-6.5-2.1-10.88-1.58-23.56-5.04-29.96-8.18-1.83-.9-3.86-1.73-4.5-1.84-1.98-.35-11.08-4.57-12.66-5.88-.82-.68-3.19-1.5-5.26-1.82-2.07-.31-4.99-1.43-6.5-2.49-1.51-1.05-4.01-2.22-5.57-2.6-1.55-.37-4.57-2.46-6.71-4.64-2.99-3.05-4.65-3.96-7.22-3.96-2.51 0-4.19-.88-6.74-3.5-1.86-1.93-3.99-3.5-4.72-3.5s-1.72-1.03-2.2-2.29-1.62-2.92-2.54-3.68-2.38-2.77-3.25-4.46c-.86-1.69-3.43-4.94-5.71-7.23-2.27-2.29-5.13-6.15-6.34-8.58-1.22-2.44-3.12-5.25-4.23-6.25-1.1-1-2.01-2.57-2.01-3.49s-1.56-3.87-3.47-6.55c-2.02-2.84-3.74-6.68-4.11-9.19-.36-2.37-1.06-4.56-1.55-4.87-1.62-1-5.87-10.28-5.87-12.82 0-1.36-.47-2.77-1.06-3.13-1.48-.92-5.64-10.27-6.43-14.46-.37-1.93-.9-5.91-1.18-8.85-.63-6.47-3.1-9.57-6.56-8.25-3.68 1.42-7.76 5.81-8.41 9.07-.36 1.77-1.24 3.03-2.12 3.03-1.22 0-1.39-.89-.87-4.68.83-6.04 2.27-7.51 11.77-12.01 6.58-3.12 8.62-4.71 12.56-9.77 2.58-3.32 5.24-7.6 5.9-9.51 1.33-3.87 3.09-5.01 4.01-2.61 1.38 3.59-1.68 8.95-10.92 19.1-2.84 3.14-4.37 5.56-3.75 5.94.59.36 1.06 3.3 1.06 6.54 0 3.23.45 6.16 1 6.5s1 2.2 1 4.13c0 3.53 4.22 12.14 6.7 13.67.72.44 1.3 2.34 1.3 4.22 0 2.92 2.27 8.4 4.97 11.98.41.55 1.03 2.5 1.38 4.33.35 1.84 1.65 4.75 2.89 6.49 3.19 4.45 4.76 7.63 4.76 9.64 0 .95.95 2.58 2.12 3.63 1.16 1.05 2.51 2.81 3.01 3.91 1.92 4.28 5.27 9.19 9.23 13.54 2.28 2.5 5.46 6.25 7.07 8.33 5.09 6.6 11.94 12.6 14.39 12.62 3.02.01 6.2 1.76 8.48 4.67 1.02 1.28 2.35 2.34 2.96 2.34s4.15 1.57 7.87 3.5c3.72 1.92 7.52 3.5 8.45 3.5.92 0 4.66 1.39 8.3 3.1 13.25 6.21 14.86 6.9 16.28 6.9.79 0 1.87.36 2.39.79 1.46 1.22 7.43 2.95 12.68 3.67 2.6.36 4.99 1.08 5.31 1.59.32.52 2.24.97 4.27.99 2.03.03 5.49.69 7.69 1.49 4.5 1.62 30.29 2.09 33.26.6 2.12-1.06 7.09-2.78 13.74-4.76 2.75-.83 6.42-2.14 8.15-2.93 1.74-.8 3.65-1.44 4.25-1.44.61 0 2.04-.94 3.18-2.08 1.15-1.15 3.25-2.3 4.67-2.55 3.23-.59 20.4-9.07 21.75-10.75.55-.69 2.73-2.41 4.84-3.84 2.11-1.42 4.5-3.53 5.3-4.68.81-1.16 2.04-2.1 2.73-2.1 1.84 0 21.24-20.09 22.12-22.91.41-1.32 2.94-5.67 5.63-9.67 2.68-4 4.88-8.18 4.88-9.29s.39-2.26.87-2.55c1.58-.98 6.13-11.23 6.13-13.81 0-1.39.68-3.09 1.5-3.77.89-.74 1.5-2.93 1.5-5.38.01-2.39.87-5.53 2.05-7.47 1.21-1.98 2.29-6 2.65-9.79.33-3.53.98-6.66 1.45-6.95s.85-2.77.85-5.5c0-3.5.45-5.15 1.5-5.55 1.07-.41 1.5-2.09 1.5-5.91 0-5.01-.8-6.63-3.5-7.05-6.1-.97-17.5-14.16-17.5-20.25 0-2.56 2.9-3.67 3.63-1.39 1.62 5.06 2.74 7.26 4.46 8.82 1.05.95 1.91 2.25 1.91 2.89 0 1.08 6.62 5.4 10 6.53.83.27 4.59 2.07 8.37 4 7.02 3.58 7.73 4.45 10.49 12.96.79 2.44.81 3.76.06 4.5-1.53 1.5-4.92-2.98-4.92-6.51 0-2.92-3.2-5.98-7.75-7.39-2.16-.67-2.25-.46-2.25 5.31 0 3.31-.45 6.29-1 6.63s-1 2.56-1 4.93c0 2.42-.6 4.82-1.35 5.45-.75.62-1.64 4.11-1.98 7.78-.44 4.69-1.22 7.3-2.65 8.81-1.49 1.59-2.02 3.51-2.02 7.34 0 2.85-.45 5.19-1 5.19s-1 1.04-1 2.3c0 1.27-1.57 5.44-3.5 9.25-1.92 3.82-3.49 7.78-3.5 8.8 0 1.02-1.12 3.2-2.5 4.83-1.37 1.63-2.5 3.56-2.5 4.29 0 .72-.59 1.54-1.3 1.81-.72.28-2.72 3.14-4.44 6.36-3.11 5.81-22.71 26.36-25.14 26.36-.61 0-1.12.66-1.12 1.47s-1.32 2.16-2.95 3c-1.62.84-4.05 2.54-5.39 3.77-1.35 1.24-6.44 4.2-11.31 6.58-22.17 10.83-25 12.15-27.35 12.75-1.37.36-3.85 1.22-5.5 1.92s-5.59 2.04-8.75 2.98-6 2.12-6.31 2.62c-.3.5-7.84.89-16.75.88-12.44-.03-16.63-.37-18.07-1.46z"/><script xmlns=""/></svg>