<svg viewBox="0 0 464 526" xmlns="http://www.w3.org/2000/svg"><path stroke="#000" stroke-width=".036" stroke-miterlimit="10" fill-rule="evenodd" d="M33.263 282.99c0 134.1 88.627 242.85 197.97 242.85 109.29 0 197.93-108.76 197.93-242.85 0-134.1-88.64-242.86-197.93-242.86-109.33.002-197.97 108.76-197.97 242.86h.003-.003z"/><path fill-rule="evenodd" stroke="#000" stroke-width=".036" stroke-miterlimit="10" fill="#983207" d="M37.475 283.42c0 131.87 87.125 238.82 194.58 238.82s194.58-106.95 194.58-238.82c0-131.9-87.12-238.86-194.58-238.86-107.46 0-194.58 106.96-194.58 238.86h-.005.005z"/><path stroke="#000" stroke-width=".036" stroke-miterlimit="10" fill-rule="evenodd" d="M195.95 233.16c0 6.63 5.94 12.03 13.32 12.03 7.34 0 13.32-5.4 13.32-12.03 0-6.62-5.98-12.02-13.32-12.02-7.38 0-13.32 5.4-13.32 12.02z"/><path fill-rule="evenodd" stroke="#000" stroke-width=".036" stroke-miterlimit="10" fill="#fff" d="M202.64 230.97c0 2.01 1.62 3.63 3.64 3.63s3.64-1.62 3.64-3.63c0-1.98-1.62-3.6-3.64-3.6s-3.64 1.62-3.64 3.6z"/><path stroke="#000" stroke-width=".036" stroke-miterlimit="10" fill-rule="evenodd" d="M185.11 204.33c2.02-1.87 6.23-4.72 9.72-6.16 3.35-1.51 7.56-2.77 10.4-2.81 2.74-.14 5.44.9 6.02 2.02.39 1.08-.94 3.49-3.17 4.46-2.27.8-6.98-.21-10.12.87-3.24 1.11-6.51 3.63-8.71 5.33-2.34 1.47-3.38 3.78-4.5 3.99-1.11.07-2.09-1.51-1.94-2.81-.08-1.44.32-3.02 2.3-4.89zm94.61 33.77c0 6.51-5.98 11.77-13.32 11.77-7.38 0-13.32-5.26-13.32-11.77 0-6.48 5.94-11.74 13.32-11.74 7.34 0 13.32 5.26 13.32 11.74z"/><path fill-rule="evenodd" stroke="#000" stroke-width=".036" stroke-miterlimit="10" fill="#fff" d="M269.1 235.94c0 1.98-1.62 3.6-3.6 3.6-2.02 0-3.64-1.62-3.64-3.6 0-2.02 1.62-3.64 3.64-3.64 1.98 0 3.6 1.62 3.6 3.64z"/><path stroke="#000" stroke-width=".036" stroke-miterlimit="10" fill-rule="evenodd" d="M295.56 214.52c-3.02-2.45-9.07-6.34-13.82-8.61-4.86-2.41-10.59-4.46-14.4-5.18-3.82-.76-7.6-.29-8.14.83-.61 1.08 1.55 3.85 4.68 5.4 3.1 1.33 9.4 1.33 13.9 3.06 4.32 1.72 9.18 5.29 12.34 7.48 3.1 1.98 4.94 4.83 6.48 5.22 1.52.36 2.52-1.18 2.45-2.55-.21-1.41-.68-3.24-3.49-5.65zM193.1 509.32c-4.35-1.12-14.83-5.48-21.7-8.64-6.92-3.28-16.64-8.28-19.01-10.3-2.34-2.12.86-2.7 4.89-1.44 4.03 1.33 12.21 6.37 18.83 9.43 6.55 2.99 17.03 6.23 20.05 8.18 2.81 1.76 1.01 3.7-3.06 2.77zm8.21 1.66c1.12.64 6.05 2.37 7.31 2.12 1.15-.29 1.22-2.92.07-3.6-1.11-.79-5.72-.94-6.87-.72-1.26.21-1.66 1.4-.51 2.2zm-58.93-26.5c.9.97 5.15 3.81 6.48 3.96 1.19.07 1.91-2.56 1.04-3.46-1.01-1-5.25-2.48-6.48-2.48-1.29-.11-2.01.97-1.04 1.98zM45.143 229.53c-5.652-1.44-11.34-1.19-17.208.75-5.976 1.88-13.428 4.43-18.072 10.88-4.824 6.4-9.54 17.28-9.828 27.75-.324 10.55 4.068 25.63 8.316 34.42 4.176 8.49 9 13.78 16.992 16.84 7.992 2.99 18.072 3.21 30.636.94l-10.836-91.58z"/><path fill-rule="evenodd" fill="#983207" d="M41.65 327.91c9.037 2.78 15.409 1.95 19.405-2.48 3.888-4.61 5.22-10.48 4.14-24.26-1.224-14.04-7.487-45.36-11.016-58.39-3.672-12.89-6.912-19.08-10.26-18.72-.324 3.7-1.08 6.4-2.556 8.24-1.512 1.69-3.312 1.66-6.084 2.52-2.952.86-7.416 1.01-10.908 2.77-3.6 1.77-7.056 2.77-10.08 7.6-3.096 4.75-7.02 12.85-7.884 20.84-.936 7.92.756 19.44 2.448 26.21 1.656 6.7 4.824 10.01 7.416 13.68 2.52 3.42 4.932 5.76 7.812 7.45 2.844 1.59 6.228 1.84 8.892 2.56 2.484.68 4.752-.43 6.264 1.65 1.368 2.02 2.304 5.37 2.412 10.33z"/><path stroke="#000" stroke-width=".036" stroke-miterlimit="10" fill-rule="evenodd" d="M37.15 255.23c-2.52.29-6.66.72-8.963 2.66-2.448 1.95-4.248 5.33-4.824 9.33-.504 3.96.36 10.51 1.62 14.25 1.044 3.64 2.772 6.05 5.184 7.24 2.412.97 7.848-1.73 9.072-.72 1.044 1.01.216 6.33-2.628 6.95-2.952.46-11.34-1.01-14.472-3.6-3.096-2.67-3.528-7.17-4.068-11.85-.756-4.75-.864-11.23.252-15.95 1.044-4.78 3.204-9.54 6.624-12.02 3.42-2.56 10.872-3.56 13.896-2.88 2.952.65 3.672 5.47 3.528 6.7-.36.97-2.844-.54-5.22-.11zM419 231.11c5.62-1.44 11.31-1.19 17.21.76 5.91 1.87 13.32 4.43 18.07 10.87 4.68 6.41 9.54 17.28 9.87 27.75.1 10.48-4.07 25.71-8.36 34.46-4.28 8.49-9.07 13.82-16.99 16.81-8.02 2.99-18.1 3.2-30.63.94L419 231.11z"/><path fill-rule="evenodd" fill="#983207" d="M422.53 329.5c-9.07 2.84-15.44 1.98-19.4-2.45-4-4.64-5.29-10.37-4.18-24.26 1.12-14.04 7.38-45.36 11.02-58.4 3.6-12.92 6.87-19.04 10.26-18.75.29 3.71 1.04 6.41 2.55 8.24 1.41 1.66 3.24 1.73 6.09 2.56 2.88.79 7.27 1.01 10.94 2.73 3.49 1.66 6.99 2.85 10.08 7.6 3.03 4.75 6.84 12.85 7.85 20.84.83 7.92-.83 19.41-2.45 26.25-1.73 6.73-4.89 9.93-7.41 13.64-2.63 3.39-5.01 5.83-7.82 7.49-2.91 1.62-6.33 1.76-8.89 2.52-2.59.65-4.86-.36-6.26 1.69-1.48 2.02-2.27 5.4-2.38 10.3z"/><path stroke="#000" stroke-width=".036" stroke-miterlimit="10" fill-rule="evenodd" d="M427 256.85c2.37.29 6.62.72 9 2.67 2.26 1.94 4.14 5.32 4.78 9.32.54 3.96-.54 10.55-1.58 14.22-1.15 3.64-2.85 6.01-5.22 7.27-2.52.97-7.96-1.73-9.07-.72-1.08 1.01-.25 6.34 2.63 6.95 2.84.47 11.23-1.01 14.47-3.6 3.02-2.74 3.42-7.2 4.1-11.88.69-4.76.72-11.24-.29-15.95-1.15-4.72-3.31-9.54-6.62-11.99-3.56-2.55-10.87-3.56-13.86-2.88-2.99.65-3.85 5.51-3.56 6.66.25 1.08 2.77-.61 5.22-.07zM37.907 112.67c-5.256-2.66-8.28-7.42-9.216-14.11-.936-6.84.216-15.409 3.6-26.245-5.688-7.847-8.028-15.696-7.164-23.688.9-8.1 5.832-19.08 12.276-24.19 6.336-5.113 14.76-7.345 25.56-6.553C78.19 7.227 93.238 1.395 108.5.242c15.23-1.188 30.28 2.34 45.54 10.584 27.44-5.58 47.06-8.604 59.84-9.072 12.6-.539 17.89 1.477 15.87 6.05 10.3-2.306 17.79-2.81 23.01-1.514 5.18 1.225 7.56 4.249 7.66 9.073C284.54 6.83 302.76 2.51 316.19 2.258c13.28-.252 20.95 3.563 23.54 11.593 14.15-3.817 23.98-5.617 30.17-5.545 6.01.036 8.06 2.052 6.16 6.049 13.46-3.816 24.15-4.104 32.22-1.009 8.02 3.133 15.91 8.855 15.87 19.655-.18 10.765-5.76 25.272-16.88 44.353 2.73 7.74 3.71 14.617 3.06 21.204-.79 6.442-7.49 7.412-7.17 17.642.36 10.26 10.52 32.29 9.22 43.34-1.51 10.87-9.4 21.24-17.39 21.67-8.1.22-17.89-6.15-30.2-19.65-9.29-1.05-16.31-2.56-21.46-4.54-5.15-2.05-8.17-4.57-9.21-7.56-9.11-2.55-15.84-4.89-20.49-7.56-4.68-2.59-7.02-5.33-7.16-8.06-7.24.76-13.39-.25-18.9-3.02-5.55-2.88-10.01-7.28-13.83-13.61-12.92 3.49-22.71 5-29.66 4.53-6.91-.61-10.84-2.95-11.77-7.56-12.6 3.6-22.39 5.4-29.67 5.55-7.27.07-11.88-1.66-13.82-5.04-5.33 5.33-11.19 8.85-17.89 10.58-6.7 1.69-13.93 1.48-22-.5-5.14 9.29-11.16 15.37-18.43 18.64-7.34 3.25-15.55 3.28-25.06.51-8.311 13.28-16.628 22.46-25.088 28.22-8.64 5.66-19.152 9.58-25.56 5.55-6.372-4.21-10.368-14.15-12.276-30.24-5.04-7.09-7.992-13.29-8.712-19.16-.83-5.86.539-10.98 4.103-15.62h0z"/><path fill-rule="evenodd" stroke="#000" stroke-width=".036" stroke-miterlimit="10" d="M42.515 111.16c-5.256-2.67-8.28-7.42-9.216-14.114-.9-6.84.144-15.407 3.564-26.243-6.192-5.364-8.82-11.483-8.172-18.648.72-7.343 5.832-18.972 12.276-24.192 6.336-5.11 14.724-7.344 25.596-6.552C82.69 10.72 97.63 4.887 112.07 3.771c14.43-1.08 27.68 2.52 40.43 11.088 27.35-5.652 46.94-8.676 59.32-9.072 12.32-.359 16.99 1.692 14.33 6.554 10.26-2.306 17.89-2.81 23.04-1.514 5.19 1.226 7.56 4.248 7.67 9.072 24.12-8.532 42.34-12.853 55.76-13.104 13.29-.252 20.96 3.565 23.55 11.594 14.14-3.817 23.97-5.616 30.17-5.545 6.01.035 8.06 2.053 6.15 6.048 14.51-3.923 25.31-4.645 33.23-2.017 7.7 2.557 13.9 7.598 13.32 17.641-.61 10.044-6.19 23.977-16.88 42.336 3.63 7.704 5.22 14.472 4.6 20.7-.72 6.118-8.46 5.758-8.21 16.128.29 10.33 10.66 34.7 9.73 45.36-1.16 10.51-9.29 17.96-16.35 17.64-7.16-.47-15.73-7.09-26.1-20.16-9.25-1.04-16.42-2.56-21.49-4.54-5.15-2.05-8.17-4.57-9.22-7.56-9.14-2.55-15.77-4.89-20.45-7.56-4.68-2.59-7.02-5.32-7.16-8.06-7.2.76-13.46-.25-18.94-3.02-5.5-2.88-10.11-7.28-13.82-13.61-12.92 3.49-22.72 5-29.66 4.53-6.92-.61-10.84-2.95-11.78-7.56-12.16 3.93-21.96 5.73-29.66 5.55-7.74-.33-13.1-2.63-16.38-7.06-3.53 6.52-8.46 10.77-15.34 12.6-6.98 1.84-15.22 1.33-25.56-1.51-2.81 9.86-7.66 16.27-14.86 19.66-7.28 3.27-16.46 3.27-28.12 0-6.876 13.42-14.076 22.86-21.996 28.72-7.956 5.84-19.332 9.47-25.092 6.05-5.724-3.63-8.784-12.56-9.18-27.21-5.04-7.1-7.992-13.29-8.712-19.16-.827-5.87.54-10.98 4.105-15.62h0z"/><path stroke="#000" stroke-width=".036" stroke-miterlimit="10" fill-rule="evenodd" d="M255.85 108.14c3.35.61 7.17.61 11.74 0 4.5-.73 9.57-2.02 15.37-4.04-.18 2.88.79 5.62 3.06 8.07 2.2 2.34 9.22 5.36 10.22 6.55.87 1.11-2.66 1.01-4.6.5-2.02-.61-5.33-2.23-7.17-4.03-1.87-1.87-3.27-4.17-4.07-7.05-3.96.72-7.88 1.43-11.77 2.01-4.07.58-8.78 1.59-11.77 1.51-3.1-.21-5.98-1.98-6.15-2.52-.15-.61 1.47-.9 5.14-1zm85.93 34.27c1.01 1.58 5.55 6.58 9.72 8.06 4.07 1.4 13 .79 14.84.5 1.62-.43-2.02-2.01-4.11-2.52-2.05-.46-5.47.62-8.17-.5-2.92-1.3-6.7-6.19-8.71-7.06-2.13-.86-4.61-.21-3.57 1.52zM226.44 441.06c-8.93-.97-12.46-.68-22.61-3.78-10.22-3.16-26.64-8.46-37.94-14.83-11.27-6.37-20.2-13.39-29.16-23.11-8.97-9.79-18.33-23.15-24.12-34.96-5.76-11.77-9.15-23.29-10.3-35.17-.14-2.37.58-4.71 2.02-7.02 1.44-2.37 6.33-5.47 6.77-7.06.25-1.76-2.24-4.03-4.54-2.77-2.34 1.26-6.84 5.58-9.036 10.34-2.231 4.71-3.672 13.24-4.032 17.82-.396 4.5.937 7.48 1.765 8.81.756 1.16 2.196.8 2.77-1.51.505-2.37.54-6.52.253-12.56 2.16 11.77 6.3 23.22 12.56 35.17 6.2 11.81 14.08 25.45 24.63 35.68 10.55 10.15 26.42 18.9 38.19 24.87 11.63 5.8 22.72 8 31.18 10.34 8.24 2.34 12.28 2.8 18.61 3.49 6.3.57 12.71.57 19.08 0 6.23-.69 10.3-1.15 18.61-3.49 8.32-2.34 19.44-4.54 31.14-10.34 11.7-5.97 27.54-14.72 38.2-24.87 10.44-10.23 18.32-23.87 24.62-35.68 6.23-11.95 10.37-23.4 12.57-35.17-.33 6.05-.29 10.19.25 12.56.47 2.31 1.94 2.67 2.77 1.51.72-1.33 2.09-4.31 1.77-8.81-.44-4.58-1.91-13.11-4.04-17.82-2.26-4.76-6.8-9.08-9.03-10.34-2.41-1.26-4.9 1.01-4.54 2.77.29 1.59 5.33 4.69 6.81 7.06 1.4 2.31 2.12 4.65 2.01 7.02-1.19 11.88-4.53 23.4-10.29 35.17-5.84 11.81-15.2 25.17-24.16 34.96-8.96 9.72-17.86 16.74-29.12 23.11-11.31 6.37-27.76 11.67-37.98 14.83-10.16 3.1-13.68 2.81-22.61 3.78-8.93.94-4.14.94-13.07 0zm79.24-319.82c-.98.14-4.22.29-5.01-.11s-.25-2.12.65-2.27c.83-.25 3.71.47 4.46.9.69.43.65 1.12-.1 1.48zm-60.63-13.32c-.93-.25-4.03-1.48-4.57-2.13-.54-.75.58-2.01 1.55-1.83.83.18 3.17 1.91 3.71 2.66.46.61.1 1.37-.69 1.3zm91.15 30.1c-.97-.44-3.6-2.27-3.99-3.03-.36-.79 1.01-1.8 1.87-1.47.79.28 2.7 2.52 3.1 3.34.28.76-.18 1.33-.98 1.16zM75.419 180.14c1.188-1.34 4.968-1.8 8.027-3.75 2.952-2.05 7.129-5.11 9.9-8.06 2.664-2.95 4.572-8.32 6.156-9.43 1.478-1.19 3.168.43 2.848 2.37-.51 1.84-2.704 5.55-5.224 8.5-2.628 2.91-6.444 5.97-9.9 8.49-3.6 2.42-8.892 5.22-10.872 5.66-1.908.28-2.267-2.6-.935-3.78zm-3.565 5c-1.116.47-5.364 1.26-6.336 1.01-1.044-.43-.792-2.59.324-3.03 1.008-.46 4.716-.28 5.832.15 1.009.29 1.117 1.33.18 1.87zm38.776-32.11c1.65-.61 5.22.39 8.89-.04 3.53-.57 8.68-1.62 12.38-3.13 3.64-1.58 7.6-5.58 9.54-6.01 1.88-.47 2.6 1.76 1.59 3.35-1.23 1.51-4.83 3.96-8.32 5.54-3.6 1.58-8.39 2.66-12.56 3.53-4.36.68-10.19 1.08-12.24.61-1.95-.61-1.01-3.24.72-3.85zm40.64-16.42c-.54 1.04-3.02 4.46-3.99 4.97-1.01.29-2.31-1.37-1.8-2.45.43-1.08 3.34-3.42 4.42-3.81.94-.51 1.77.25 1.37 1.29zm82.08-11.74c1.62-.1 4.97 1.84 8.53 2.49 3.53.39 8.75 1.01 12.75.57 3.92-.43 8.89-3.24 10.87-3.02 1.84.07 2.02 2.45.54 3.64-1.51 1.01-5.83 2.44-9.5 2.95-3.89.43-8.9.22-13.07-.22-4.25-.61-10.15-1.87-11.88-2.95-1.69-1.19-.04-3.31 1.76-3.46zm95 31.94c1.66.32 4.04 3.45 7.28 5.11 3.16 1.62 7.95 3.67 11.88 4.64 3.78.72 9.43-.03 11.27.65 1.76.76 1.04 2.99-.65 3.64-1.95.5-6.19.39-9.97-.33-3.82-.9-8.57-2.55-12.32-4.39-3.89-1.94-9.03-5.07-10.29-6.62-1.26-1.7.97-3.06 2.8-2.7zm40.61 18.57c-1.15-.25-5.07-2.16-5.65-2.95-.65-.93.87-2.52 2.05-2.27 1.12.22 3.89 2.67 4.58 3.6.46.8.14 1.8-.98 1.62zm-47.66-18.54c-1.15.04-5.44-1-6.19-1.62-.76-.79.21-2.59 1.51-2.62 1.15 0 4.39 1.65 5.26 2.44.72.69.57 1.66-.58 1.8z"/><script xmlns=""/></svg>